<svg width="16" height="16" viewBox="0 0 16 16" fill="none" xmlns="http://www.w3.org/2000/svg">
<rect width="16" height="16" fill="#E5E5E5"/>
<g id="Icon/Add/Action" clip-path="url(#clip0_501_1732)">
<path id="Combined-Shape" d="M8.87829 0.0344238L8.87749 5.44662L12.5724 5.44824L7.27836 16.0344L7.27756 9.44643H3.5L8.87829 0.0344238ZM10.9624 0.566532C13.9793 1.76982 16 4.69672 16 7.99999C16 11.607 13.5922 14.7395 10.1704 15.702C9.90452 15.7767 9.62842 15.6218 9.55365 15.356C9.47889 15.0902 9.63377 14.8141 9.8996 14.7393C12.8929 13.8974 15 11.1561 15 7.99999C15 5.10944 13.2318 2.54829 10.5919 1.49538C10.3354 1.39307 10.2104 1.10221 10.3127 0.84572C10.415 0.589226 10.7059 0.464229 10.9624 0.566532ZM6.53311 0.626283C6.60471 0.89298 6.44656 1.16723 6.17986 1.23883C3.1472 2.05307 1 4.81383 1 7.99999C1 10.888 2.76506 13.4473 5.40148 14.502C5.65787 14.6045 5.78257 14.8955 5.68 15.1519C5.57744 15.4083 5.28645 15.533 5.03006 15.4304C2.01713 14.2251 0 11.3003 0 7.99999C0 4.3586 2.45361 1.20388 5.92056 0.273038C6.18725 0.201432 6.4615 0.359586 6.53311 0.626283ZM7.27756 6.06019L6.25681 7.84651H8.87829L8.87749 9.25844L9.98384 7.04654L7.27836 7.04625L7.27756 6.06019Z" fill="#40404B"/>
</g>
<defs>
<clipPath id="clip0_501_1732">
<rect width="16" height="16" fill="white"/>
</clipPath>
</defs>
</svg>
