<?xml version="1.0" encoding="utf-8"?>
<!-- 
  Copyright (c) 2021, WSO2 Inc. (http://www.wso2.com). All Rights Reserved.
 
 - This software is the property of WSO2 Inc. and its suppliers, if any.
 - Dissemination of any information or reproduction of any material contained
 - herein is strictly forbidden, unless permitted by WSO2 in accordance with
 - the WSO2 Commercial License available at http://wso2.com/licenses.
 - For specific language governing the permissions and limitations under
 - this license, please see the license as well as any agreement you’ve
 - entered into with WSO2 governing the purchase of this software and any
 - associated services.
 -->
<svg version="1.1" id="alert" x="0px" y="0px" viewBox="0 0 14 14">
<path id="Combined_Shape-2" d="M5,12H0.5C0.2238576,12,0,11.7761421,0,11.5S0.2238576,11,0.5,11H2V6
	C2.0033841,3.625037,3.6737955,1.578783,6,1.1V1c0-0.5522847,0.4477153-1,1-1s1,0.4477153,1,1v0.1
	C10.326417,1.5784326,11.9970016,3.6248991,12,6v5h1.5c0.2761421,0,0.5,0.2238579,0.5,0.5S13.7761421,12,13.5,12H9
	c0,1.1045694-0.8954306,2-2,2S5,13.1045694,5,12z M6.8829999,12.993L7,13c0.5073142-0.0001268,0.9341516-0.3801107,0.993-0.8839998
	L8,12H6C6.0000668,12.5069752,6.3795071,12.9336843,6.8829999,12.993z M3.0050001,5.8000002L3,6v5h8V6
	c0.0026684-2.1333339-1.6693325-3.8933351-3.8000002-4H7C4.8685989,1.9999985,3.1115701,3.6712649,3.0050001,5.8000002z"/>
</svg>
