<svg width="16" height="16" viewBox="0 0 16 16" fill="none" xmlns="http://www.w3.org/2000/svg">
<rect width="16" height="16" fill="#E5E5E5"/>
<g id="Icon/Add/Assigment" clip-path="url(#clip0_501_1732)">
<path id="Combined-Shape" d="M8 0C8.27614 0 8.5 0.223858 8.5 0.5C8.5 0.776142 8.27614 1 8 1C4.13401 1 1 4.13401 1 8C1 11.866 4.13401 15 8 15C11.866 15 15 11.866 15 8C15 7.72386 15.2239 7.5 15.5 7.5C15.7761 7.5 16 7.72386 16 8C16 12.4183 12.4183 16 8 16C3.58172 16 0 12.4183 0 8C0 3.58172 3.58172 0 8 0ZM8.38001 3.02563C8.51165 3.09141 8.62337 3.18994 8.70492 3.31096L8.76027 3.40578L12.6708 10.9306C12.8561 11.3011 12.7059 11.7516 12.3355 11.9369C11.9959 12.1067 11.589 11.9947 11.3808 11.6895L11.3292 11.6015L10.131 9.312H5.87L4.67364 11.6013C4.50391 11.941 4.11124 12.0955 3.76158 11.9763L3.66748 11.9369C3.32784 11.7672 3.17327 11.3745 3.2925 11.0249L3.33187 10.9308L7.23969 3.40599C7.44955 2.98607 7.96008 2.81577 8.38001 3.02563ZM8 5.23933L6.654 7.812H9.346L8 5.23933ZM15.3195 0.505342C15.5083 0.662183 15.5523 0.928685 15.4358 1.13516L15.3846 1.20944L11.9813 5.30655L9.76484 2.3522C9.59912 2.13132 9.64384 1.81791 9.86473 1.65219C10.0611 1.50488 10.3305 1.52385 10.5044 1.68502L10.5647 1.75207L12.021 3.693L14.6154 0.570475C14.7918 0.358057 15.1071 0.328896 15.3195 0.505342Z" fill="#40404B"/>
</g>
<defs>
<clipPath id="clip0_501_1732">
<rect width="16" height="16" fill="white"/>
</clipPath>
</defs>
</svg>
