<svg width="16" height="16" viewBox="0 0 16 16" fill="none" xmlns="http://www.w3.org/2000/svg">
<rect width="16" height="16" fill="#E5E5E5"/>
<g id="Icon/Attach" clip-path="url(#clip0_501_1732)">
<path id="Union" fill-rule="evenodd" clip-rule="evenodd" d="M9.13186 13.5964C7.12595 15.6023 3.87374 15.6023 1.86784 13.5964C-0.138068 11.5904 -0.138069 8.33824 1.86784 6.33233L6.23911 1.96105C6.43437 1.76579 6.75096 1.76579 6.94622 1.96105C7.14148 2.15632 7.14148 2.4729 6.94622 2.66816L2.57494 7.03944C0.959563 8.65482 0.959563 11.2739 2.57494 12.8892C4.19032 14.5046 6.80937 14.5046 8.42475 12.8892L10.246 11.0679L10.246 11.0679L13.8887 7.42516C14.9006 6.41333 14.9006 4.77283 13.8887 3.76099C12.8769 2.74916 11.2364 2.74916 10.2246 3.76099L7.31546 6.67009C7.31382 6.67178 7.31216 6.67346 7.31049 6.67513L4.76058 9.22504C4.3523 9.63332 4.3523 10.2953 4.76058 10.7036C5.16887 11.1119 5.83083 11.1119 6.23911 10.7036L10.6104 6.33229C10.8057 6.13703 11.1222 6.13703 11.3175 6.33229C11.5128 6.52756 11.5128 6.84414 11.3175 7.0394L6.94622 11.4107C6.14741 12.2095 4.85228 12.2095 4.05347 11.4107C3.25466 10.6119 3.25466 9.31674 4.05347 8.51793L6.23903 6.33238L6.23899 6.33234L9.51745 3.05389C10.9198 1.65153 13.1935 1.65153 14.5958 3.05389C15.9982 4.45624 15.9982 6.72991 14.5958 8.13227L12.4164 10.3117L12.4103 10.3179L9.13186 13.5964Z" fill="#40404B"/>
</g>
<defs>
<clipPath id="clip0_501_1732">
<rect width="16" height="16" fill="white"/>
</clipPath>
</defs>
</svg>
