<?xml version="1.0" encoding="utf-8"?>
<!-- 
  Copyright (c) 2021, WSO2 Inc. (http://www.wso2.com). All Rights Reserved.
 
 - This software is the property of WSO2 Inc. and its suppliers, if any.
 - Dissemination of any information or reproduction of any material contained
 - herein is strictly forbidden, unless permitted by WSO2 in accordance with
 - the WSO2 Commercial License available at http://wso2.com/licenses.
 - For specific language governing the permissions and limitations under
 - this license, please see the license as well as any agreement you’ve
 - entered into with WSO2 governing the purchase of this software and any
 - associated services.
 -->
<svg version="1.1" id="bookmark" x="0px" y="0px" viewBox="0 0 14 14">
<path id="Combined_Shape-2" d="M0.6561324,14L0.6561324,14V1.75c0-0.9664983,0.7835017-1.75,1.75-1.75h6.125
	c0.8064775-0.0000906,1.5085869,0.5509728,1.7001247,1.334375c1.9211006,0.2141205,3.304882,1.9450594,3.0907602,3.8661604
	c-0.1791496,1.6073532-1.4362679,2.8826423-3.040885,3.0848393V14l-4.8125005-2.625L0.6561324,14z M5.4686322,10.3775005
	L5.4686322,10.3775005l3.9375005,2.1489992V8.2853746C7.4880781,8.0454903,6.1276531,6.2961349,6.367538,4.3780813
	C6.56178,2.8249753,7.7635822,1.5896438,9.3107576,1.3527501C9.1788387,1.0915196,8.9242764,0.9142475,8.6335068,0.881125
	L8.5311327,0.875h-6.125c-0.4439,0.0001106-0.8173828,0.3325968-0.8688751,0.7735001L1.5311323,1.75v10.7756243l3.9375-2.1472492
	V10.3775005z M9.4061327,7.4025011L9.4061327,7.4025011c0.2896557,0.0484295,0.5853434,0.0484295,0.875,0
	c0.168539-0.0276928,0.3338699-0.0722499,0.4934998-0.1330004l0.0209999-0.007875
	c0.9342928-0.367835,1.5787735-1.2341523,1.6625004-2.2347498V5.0006256V4.9874997V4.9656248V4.6558752V4.6339998V4.6270003
	V4.6016254c-0.0942211-1.1980984-0.991806-2.178299-2.177-2.3773754c-0.2896585-0.0484133-0.5853424-0.0484133-0.875,0
	C9.3553829,2.233,9.3037577,2.242625,9.2512569,2.2548752l-0.0279989,0.007H9.2145071l-0.0183744,0.004375H9.1812572h-0.00875
	l-0.0227499,0.006125C8.0852909,2.5645278,7.3164868,3.4902377,7.2247572,4.5902505v0.0271249v0.3736253v0.0227499
	c0.0668573,0.8362851,0.5274954,1.5909123,1.2407503,2.0326247H8.471633l0.015749,0.009625l0.0192509,0.0113745
	c0.2765827,0.1660852,0.5815763,0.2794199,0.8994999,0.33425V7.4025011z"/>
</svg>
