<?xml version="1.0" encoding="utf-8"?>
<!-- 
  Copyright (c) 2021, WSO2 Inc. (http://www.wso2.com). All Rights Reserved.
 
 - This software is the property of WSO2 Inc. and its suppliers, if any.
 - Dissemination of any information or reproduction of any material contained
 - herein is strictly forbidden, unless permitted by WSO2 in accordance with
 - the WSO2 Commercial License available at http://wso2.com/licenses.
 - For specific language governing the permissions and limitations under
 - this license, please see the license as well as any agreement you’ve
 - entered into with WSO2 governing the purchase of this software and any
 - associated services.
 -->
<svg version="1.1" id="bug" x="0px" y="0px" viewBox="0 0 14 14"  >
<path id="Combined_Shape" d="M3.3557808,11.9395266c-0.0323517-0.0447941-0.0634587-0.0902109-0.0933218-0.1362495
	l-2.0372167,1.6266003c-0.202652,0.1591921-0.4959844,0.1239605-0.6551765-0.0786905
	c-0.1373505-0.1748476-0.1322497-0.4223213,0.0121888-0.591361l0.0606592-0.0578594l2.1352046-1.7077904
	c-0.544852-1.0994167-0.851413-2.3014936-0.8996229-3.5275664H0.4674689
	C0.2097681,7.4670839,0.0004755,7.2585611,0.0000008,7.0008602c-0.0004162-0.2259598,0.1611331-0.4197474,0.3834784-0.4600039
	l0.0839897-0.0074658h1.4110268c0.0481623-1.2229567,0.3534205-2.422049,0.89589-3.5191677L1.1207221,1.7739751
	c-0.2077613-0.1524638-0.2525888-0.4444838-0.1001252-0.652245c0.1355736-0.1847453,0.3852338-0.2437029,0.5891317-0.1391244
	l0.0709246,0.0447946l1.5715402,1.1795886c0.0335958-0.0491495,0.0678139-0.097677,0.102654-0.1455822
	C4.1611619,0.8212116,5.5216241,0.0521636,7,0.0008596C8.4765034,0.0534933,9.8346968,0.82244,10.6395531,2.0614064
	c0.0348387,0.0479054,0.0690575,0.0964327,0.1026535,0.1455822l1.5771399-1.1795883l0.0709248-0.0447946
	c0.2292995-0.1176075,0.5105238-0.0270631,0.6281309,0.2022367c0.104579,0.2038982,0.0456219,0.4535592-0.1391239,0.5891328
	l-1.6536636,1.2402477c0.5424433,1.0971286,0.8476992,2.2962153,0.8958893,3.5191677h1.411027
	c0.2577009-0.0004745,0.4669943,0.2080483,0.4674683,0.4657488c0.0004168,0.2259603-0.1611328,0.4197478-0.3834782,0.4600043
	l-0.0839901,0.0074658h-1.411027c-0.0483112,1.2257609-0.3548708,2.4275117-0.899622,3.5266337l2.136137,1.708724
	l0.0606585,0.0578594c0.167408,0.19592,0.1442938,0.4904556-0.0516272,0.6578636
	c-0.1690397,0.1444378-0.4165125,0.149539-0.5913601,0.012188l-2.0344172-1.627533
	c-0.0317297,0.0460386-0.0628366,0.0914555-0.0933228,0.1362495C9.8414106,13.1799393,8.4795094,13.9492092,7,13.9991407
	C5.5221343,13.9477453,4.1621199,13.1791019,3.3557808,11.9395266z M2.8005157,7
	c-0.0288186,1.5260954,0.4055552,3.0250912,1.2458472,4.2993393C4.6763387,12.3422689,5.7831311,13.0042467,7,13.0659218
	c2.3153152,0,4.1994839-2.7212658,4.1994839-6.0659218c0.0023861-0.7889814-0.1063108-1.5743704-0.3228931-2.3330469H3.1234093
	C2.9065471,5.4255705,2.7978437,6.210999,2.8005157,7z M10.5368986,3.7337344C9.7903233,2.0539408,8.4838181,0.9340783,7,0.9340783
	c-1.2171073,0.0616964-2.324173,0.723628-2.9545703,1.7665828C3.8197641,3.025923,3.6254091,3.371825,3.4649673,3.7337344
	H10.5368986z"/>
</svg>
