<?xml version="1.0" encoding="utf-8"?>
<!-- 
  Copyright (c) 2021, WSO2 Inc. (http://www.wso2.com). All Rights Reserved.
 
 - This software is the property of WSO2 Inc. and its suppliers, if any.
 - Dissemination of any information or reproduction of any material contained
 - herein is strictly forbidden, unless permitted by WSO2 in accordance with
 - the WSO2 Commercial License available at http://wso2.com/licenses.
 - For specific language governing the permissions and limitations under
 - this license, please see the license as well as any agreement you’ve
 - entered into with WSO2 governing the purchase of this software and any
 - associated services.
 -->
<svg version="1.1" id="Burger" x="0px" y="0px" viewBox="0 0 14 14">
<path d="M0.5,7.6C0.2,7.6,0,7.4,0,7.1V6.9c0-0.3,0.2-0.5,0.5-0.5h13c0.3,0,0.5,0.2,0.5,0.5v0.1c0,0.3-0.2,0.5-0.5,0.5L0.5,7.6z
	 M0.5,1.2C0.2,1.2,0,0.9,0,0.6V0.5C0,0.2,0.2,0,0.5,0h13C13.8,0,14,0.2,14,0.5v0.1c0,0.3-0.2,0.5-0.5,0.5L0.5,1.2z M0.5,14
	C0.2,14,0,13.8,0,13.5v-0.1c0-0.3,0.2-0.5,0.5-0.5h13c0.3,0,0.5,0.2,0.5,0.5v0.1c0,0.3-0.2,0.5-0.5,0.5L0.5,14z"/>
</svg>
