<?xml version="1.0" encoding="utf-8"?>
<!-- 
  Copyright (c) 2021, WSO2 Inc. (http://www.wso2.com). All Rights Reserved.
 
 - This software is the property of WSO2 Inc. and its suppliers, if any.
 - Dissemination of any information or reproduction of any material contained
 - herein is strictly forbidden, unless permitted by WSO2 in accordance with
 - the WSO2 Commercial License available at http://wso2.com/licenses.
 - For specific language governing the permissions and limitations under
 - this license, please see the license as well as any agreement you’ve
 - entered into with WSO2 governing the purchase of this software and any
 - associated services.
 -->
<svg version="1.1" id="calendar" x="0px" y="0px" viewBox="0 0 14 14">
<path id="Combined_Shape" d="M2.1877763,14c-1.2080537,0-2.1873746-0.9793215-2.1873746-2.1873741V3.9380774
	c0-1.2080534,0.9793208-2.1873744,2.1873746-2.1873744H3.062726V0.4382784
	c0.0102944-0.2413913,0.2143261-0.4287323,0.4557173-0.4184378C3.715405,0.0282403,3.8824165,0.1673391,3.9263015,0.359533
	l0.0113742,0.0787455v1.3124247h6.124649V0.4382784c-0.0004444-0.2416103,0.1950598-0.4378339,0.4366703-0.4382777
	c0.2118492-0.0003891,0.3935356,0.1510718,0.4312792,0.3595322l0.007,0.0787455v1.3124247h0.8749495
	c1.2080536,0,2.1873751,0.979321,2.1873751,2.1873744v7.8745484C13.9995985,13.0206785,13.020277,14,11.8122234,14H2.1877763z
	 M0.8753515,3.9380774v7.8745484c0,0.7248316,0.5875926,1.3124247,1.3124248,1.3124247h9.6244469
	c0.7248325,0,1.3124247-0.5875931,1.3124247-1.3124247V3.9380774c0-0.7248321-0.5875921-1.3124247-1.3124247-1.3124247H10.937274
	v0.8749499c0.0004444,0.2416105-0.1950598,0.437834-0.4366703,0.438278
	c-0.2118492,0.0003889-0.3935356-0.151072-0.4312792-0.3595324l-0.007-0.0787456V2.6256528h-6.124649v0.8749499
	c0.0004451,0.2416105-0.1950579,0.437835-0.4366679,0.4382801c-0.2118514,0.0003905-0.3935394-0.151072-0.4312823-0.3595345
	L3.062726,3.5006027V2.6256528H2.1877763C1.4629441,2.6256528,0.8753515,3.2132454,0.8753515,3.9380774z M10.0623245,10.5789461
	v-0.0787449V10.062726c-0.0004444-0.2416105,0.1950598-0.4378338,0.4366703-0.4382772
	c0.2118492-0.0003901,0.3935356,0.1510706,0.4312792,0.3595314l0.007,0.0787458v0.4374752
	c0.0004444,0.2416105-0.1950598,0.4378338-0.4366703,0.4382772c-0.2118492,0.0003901-0.3935356-0.1510715-0.4312792-0.3595324
	H10.0623245z M6.5625253,10.5789461v-0.0787449V10.062726C6.5620813,9.8211155,6.757585,9.6248922,6.9991956,9.6244488
	c0.2118492-0.0003901,0.3935351,0.1510706,0.4312792,0.3595314l0.007,0.0787458v0.4374752
	c0.0004449,0.2416105-0.1950574,0.4378347-0.4366679,0.4382801c-0.2118511,0.0003901-0.393539-0.1510725-0.431282-0.3595352
	H6.5625253z M3.062726,10.5789461v-0.0787449V10.062726C3.0622809,9.8211155,3.2577839,9.6248903,3.4993942,9.6244459
	c0.2118514-0.000391,0.393539,0.1510725,0.431282,0.3595343l0.0069995,0.0787458v0.4374752
	c0.0004451,0.2416105-0.1950579,0.4378347-0.4366679,0.4382801c-0.2118514,0.0003901-0.3935394-0.1510725-0.4312823-0.3595352
	H3.062726z M10.0623245,7.0791473V7.000402V6.5629268c-0.0004444-0.2416105,0.1950598-0.4378338,0.4366703-0.4382777
	c0.2118492-0.0003891,0.3935356,0.151072,0.4312792,0.3595324l0.007,0.0787454V7.000402
	c0.0004444,0.2416101-0.1950598,0.4378333-0.4366703,0.4382772c-0.2118492,0.0003901-0.3935356-0.1510711-0.4312792-0.3595319
	H10.0623245z M6.5625253,7.0791473V7.000402V6.5629268C6.5620813,6.3213162,6.757585,6.125093,6.9991956,6.124649
	c0.2118492-0.0003891,0.3935351,0.151072,0.4312792,0.3595324l0.007,0.0787454V7.000402
	C7.4379196,7.242012,7.2424173,7.4382372,7.0008068,7.4386821c-0.2118511,0.0003905-0.393539-0.1510725-0.431282-0.3595347
	H6.5625253z M3.062726,7.0791473V7.000402V6.5629268C3.0622809,6.3213162,3.2577839,6.125092,3.4993942,6.1246467
	c0.2118514-0.0003905,0.393539,0.151072,0.431282,0.3595347l0.0069995,0.0787454V7.000402
	C3.9381208,7.242012,3.7426178,7.4382372,3.5010078,7.4386821C3.2891564,7.4390726,3.1074684,7.2876096,3.0697255,7.0791473
	H3.062726z"/>
</svg>
