<?xml version="1.0" encoding="utf-8"?>
<!-- 
  Copyright (c) 2021, WSO2 Inc. (http://www.wso2.com). All Rights Reserved.
 
 - This software is the property of WSO2 Inc. and its suppliers, if any.
 - Dissemination of any information or reproduction of any material contained
 - herein is strictly forbidden, unless permitted by WSO2 in accordance with
 - the WSO2 Commercial License available at http://wso2.com/licenses.
 - For specific language governing the permissions and limitations under
 - this license, please see the license as well as any agreement you’ve
 - entered into with WSO2 governing the purchase of this software and any
 - associated services.
 -->
<svg version="1.1" id="change" x="0px" y="0px" viewBox="0 0 14 14">
<path id="Combined_Shape" d="M10.307373,13.2269363l-0.0527-0.0626945c-0.1247873-0.1805897-0.1026068-0.4245729,0.0527-0.5796995
	l1.9508047-1.9508038H4.2768688c-0.2509079,0.0004606-0.4546824-0.2025661-0.4551435-0.453474
	c-0.0004036-0.2200022,0.1568856-0.40868,0.3733678-0.447876l0.0817757-0.0072689h7.9804001L10.307373,7.7743144l-0.0527-0.0626941
	c-0.143137-0.2060747-0.0921173-0.4891667,0.1139574-0.6323037c0.1808615-0.1256247,0.4257736-0.1034551,0.5811367,0.0526047
	l2.6795168,2.6767907c0.0418921,0.0296745,0.0784512,0.0662336,0.1081257,0.1081266L14,10.1794291l-0.2644081,0.2644081
	c-0.028697,0.0399036-0.0636797,0.0748863-0.1035833,0.1035824l-2.6786079,2.6786089l-0.0626955,0.0526991
	c-0.1805887,0.1247873-0.424572,0.1026077-0.5796986-0.0526991L10.307373,13.2269363z M3.1102026,6.918395L3.0475078,6.8656955
	L0,3.8190963l0.3143821-0.3143821L0.32892,3.4901764l2.717679-2.7176793
	c0.1781263-0.1767085,0.4657769-0.175559,0.6424854,0.0025674c0.1533985,0.1546294,0.1754689,0.3963714,0.052608,0.5762228
	L3.6899014,1.4139822L1.7390966,3.3647869h7.9894867c0.2509079-0.0004623,0.4546833,0.202564,0.4551458,0.4534719
	c0.0004053,0.2200036-0.1568861,0.4086828-0.3733702,0.4478784L9.7285824,4.273406H1.7390966l1.9508047,1.9498959
	c0.1553066,0.1551266,0.1774871,0.3991094,0.0526998,0.579699L3.6899014,6.8656955
	C3.5347748,7.0210018,3.290792,7.0431824,3.1102026,6.918395z"/>
</svg>
