<?xml version="1.0" encoding="utf-8"?>
<!-- 
  Copyright (c) 2021, WSO2 Inc. (http://www.wso2.com). All Rights Reserved.
 
 - This software is the property of WSO2 Inc. and its suppliers, if any.
 - Dissemination of any information or reproduction of any material contained
 - herein is strictly forbidden, unless permitted by WSO2 in accordance with
 - the WSO2 Commercial License available at http://wso2.com/licenses.
 - For specific language governing the permissions and limitations under
 - this license, please see the license as well as any agreement you’ve
 - entered into with WSO2 governing the purchase of this software and any
 - associated services.
 -->
<svg version="1.1" id="chart" x="0px" y="0px" viewBox="0 0 14 14">
<path id="Combined_Shape" d="M2.5959835,12.4404135L2.583854,12.453476l0,0l-0.3414979-0.3172388
	C0.8162034,10.811142,0.0047627,8.9530411,0.0020926,7.0063047l0,0V6.9979072c0,0,0-0.0205269,0-0.0307908
	c0-0.0102634,0-0.0167947,0-0.0251923c0-0.0083971,0-0.0121298,0-0.0177279c0-0.0055985,0-0.0205274,0-0.0307908V6.8766103
	c0-0.0102639,0-0.0205274,0-0.0307908V6.6377482V6.6069574V6.5948277v-0.034523V6.5537739
	C0.1957573,3.6128891,2.2098629,1.1079385,5.040586,0.2873807l0.0158615-0.0074644h0.0093307
	C5.6945543,0.0988544,6.3456736,0.0071386,7,0.0074644h0.0177279L7.466527,0v0.0233264
	c3.4955416,0.2381588,6.2782936,3.0209105,6.5164518,6.5164514h0.0149288v0.4665275
	c-0.002327,3.8648372-3.1372824,6.9960198-7.0021191,6.9936938C5.3939133,13.9990339,3.8408577,13.4485273,2.5959835,12.4404135z
	 M6.9990664,13.0702248h0.1446238h0.066247l0,0c0.4181538-0.0143538,0.833704-0.0718861,1.2400293-0.1716814h0.0055981
	l0.0578489-0.0149288l0.0205278-0.0055981l0.0289249-0.0074644c2.2832766-0.6147184,4.0036211-2.4966192,4.4114809-4.825757l0,0
	l0.0102625-0.0606484l0.0055981-0.0382552V7.9262972l0.0093307-0.060648l0,0
	c0.0099525-0.0684247,0.0183506-0.1374698,0.0251932-0.2071385l0.0149288-0.180079H7.2034059L3.2323265,11.756485
	C4.3028131,12.6092529,5.6313686,13.0728321,7,13.0711575L6.9990664,13.0702248z M2.5474648,11.1192083L6.533473,6.8206272
	V0.9591798l-0.148356,0.0130628H6.3533936c-0.1611075,0.017417-0.320971,0.0410544-0.4795899,0.0709121l0,0L5.8112893,1.0552845
	H5.7991595L5.7469082,1.0664811L5.7217159,1.0720794L5.6937237,1.082343L5.6358747,1.0954058l0,0
	C3.5937445,1.5714961,1.9401711,3.0646822,1.2589169,5.0478239L1.2505194,5.0711503L1.2430549,5.0926104L1.2234608,5.1513929l0,0
	c-0.1845671,0.576633-0.2817492,1.1776519-0.2883139,1.7830667l0,0c0,0.0223937,0,0.0447865,0,0.0671802
	c0,0.0223932,0,0.0438533,0,0.066247v0.0065312c0,0.0214601,0,0.0429206,0,0.0643806V7.14533c0,0.0214601,0,0.0438533,0,0.0653138
	l0,0c0,0.0223937,0,0.0450978,0,0.0681129l0,0c0.0095476,0.2083507,0.0297905,0.4160733,0.0606486,0.6223478v0.0093307
	l0.0093306,0.0569162v0.015862l0.0083973,0.0503845v0.0261259l0.0046653,0.0279913L1.0275193,8.139966v0.0149288
	C1.2469749,9.2657003,1.7735636,10.2926931,2.5474648,11.1192083z M7.466527,6.5388446h5.5805979
	c-0.233737-2.9799006-2.6006966-5.3468614-5.5805979-5.5805979V6.5388446z"/>
</svg>
