<?xml version="1.0" encoding="utf-8"?>
<!-- 
  Copyright (c) 2021, WSO2 Inc. (http://www.wso2.com). All Rights Reserved.
 
 - This software is the property of WSO2 Inc. and its suppliers, if any.
 - Dissemination of any information or reproduction of any material contained
 - herein is strictly forbidden, unless permitted by WSO2 in accordance with
 - the WSO2 Commercial License available at http://wso2.com/licenses.
 - For specific language governing the permissions and limitations under
 - this license, please see the license as well as any agreement you’ve
 - entered into with WSO2 governing the purchase of this software and any
 - associated services.
 -->
<svg version="1.1" id="check" x="0px" y="0px" viewBox="0 0 14 14">
<path id="Path_2_00000068653056619766211840000000529314378248829576_" d="M6.9999995,0l0.0787501,0.007
	c0.2377591,0.0430476,0.3956041,0.2706864,0.3525567,0.5084453C7.3935609,0.7239193,7.2118626,0.8753901,6.9999995,0.875
	c-3.3827438,0-6.125,2.7422562-6.125,6.125s2.7422562,6.125,6.125,6.125S13.125,10.3827438,13.125,7l0.007-0.0787501
	c0.0430479-0.2377586,0.2706881-0.3956027,0.5084467-0.3525538C13.8489189,6.606442,14.0003881,6.7881384,14,7
	c0,3.8659935-3.1340075,7-7.0000005,7s-7-3.1340065-7-7S3.1340065,0,6.9999995,0 M12.4398746,3.2655001l0.0446243,0.0446248
	c0.1707916,0.1708436,0.1707916,0.4477811,0,0.6186249L7.7874994,8.6222496
	C7.6200128,8.7917013,7.3477268,8.7959805,7.1749992,8.631875C7.0975919,8.6120377,7.0268993,8.5718575,6.9702492,8.5154991
	L4.5027494,6.0374999c-0.1707926-0.1708436-0.1707926-0.4477811,0-0.6186252l0.0472498-0.0411248
	c0.1708441-0.1707921,0.4477811-0.1707921,0.6186252,0L7.4436245,7.65275l4.38375-4.38375
	c0.1708441-0.1707921,0.4477816-0.1707921,0.6186247,0"/>
</svg>
