<?xml version="1.0" encoding="utf-8"?>
<!-- 
  Copyright (c) 2021, WSO2 Inc. (http://www.wso2.com). All Rights Reserved.
 
 - This software is the property of WSO2 Inc. and its suppliers, if any.
 - Dissemination of any information or reproduction of any material contained
 - herein is strictly forbidden, unless permitted by WSO2 in accordance with
 - the WSO2 Commercial License available at http://wso2.com/licenses.
 - For specific language governing the permissions and limitations under
 - this license, please see the license as well as any agreement you’ve
 - entered into with WSO2 governing the purchase of this software and any
 - associated services.
 -->
<svg version="1.1" id="siddhi-logo" x="0px"
	 y="0px" viewBox="0 0 120.0390015 128" style="enable-background:new 0 0 120.0390015 128;" >
<path id="Combined_Shape-2" d="M51.225235,107.6160278c-10.4951439,0.0026093-19.0110474-8.4922943-19.0343437-18.9874115
	V69.7209854H20.102026c-7.5307636,0.103157-13.8089714-5.7387161-14.2476006-13.2574043V55.84412V39.4190254
	c-5.1114473-2.4259338-7.2884865-8.5361881-4.8625536-13.6476364s8.5361862-7.2884865,13.6476345-4.8625526
	s7.2884865,8.5361881,4.8625526,13.6476326c-1.0121899,2.1326866-2.729866,3.8503647-4.8625526,4.8625565v16.3453178
	c0.0894938,2.7444038,2.2694759,4.9611244,5.0119991,5.0964699h0.4692898h12.074791V38.9638138
	c0.0232887-10.4932861,8.536335-18.9874382,19.0296478-18.9874115h49.7774277
	c10.4940796-0.0000305,19.008461,8.4933681,19.0343399,18.9874115v49.6648026
	c-0.0258789,10.4940414-8.5402603,18.9874344-19.0343399,18.9874115H51.225235z M40.975975,38.9638138v49.6648026
	c0.0129395,5.6513367,4.5979004,10.2258072,10.2492599,10.2257919h49.7774277
	c5.6513672,0.0000153,10.2363281-4.5744553,10.2492599-10.2257996V38.9638138
	c-0.0129318-5.6513443-4.5978928-10.225811-10.2492599-10.2257957H51.225235
	C45.5738754,28.7380028,40.9889145,33.3124695,40.975975,38.9638138z M61.7513771,78.3605804
	c-4.0332832-3.7693024-6.2663956-9.0806274-6.1382904-14.5995636c-0.1283684-5.4963455,2.090374-10.7871933,6.10075-14.5479431
	c4.1368484-3.9280357,9.6718979-6.0400047,15.3738937-5.8661041c4.6044922-0.1506767,9.1379929,1.1638603,12.94767,3.7543068
	c3.1249084,1.9809456,5.4513016,5.0002708,6.5700378,8.5269737c0.2711945,1.9209213-0.8499374,3.7665634-2.6796341,4.4113083
	c-2.0568008,0.4412651-4.1663208-0.4757538-5.2466507-2.2807426c-0.7346573-2.0913963-2.170639-3.8639946-4.0640411-5.0166931
	c-5.3697815-3.3964233-12.3603363-2.712059-16.9694672,1.6612816c-2.4436035,2.4629478-3.780262,5.8139076-3.7026863,9.2825241
	c-0.0491676,3.4620438,1.2833519,6.8009415,3.7026863,9.277832c2.4719009,2.5983047,5.9377136,4.0143509,9.5218582,3.8904037
	c2.6165619,0.0592041,5.1929855-0.6505814,7.4100723-2.0414124c1.900116-1.0930328,3.3428726-2.8340149,4.0640335-4.9040604
	c1.0612335-1.5739059,2.9328461-2.3974228,4.8102036-2.1164932c2.9002075,0.7039337,3.1160736,4.1907425,3.1160736,4.1907425
	c-1.1215668,3.4701996-3.4120178,6.443985-6.4808655,8.4143524c-3.7814178,2.6260529-8.3033371,3.9744034-12.9054337,3.8481674
	C71.4582291,84.425827,65.901062,82.3063965,61.7513771,78.3605804z"/>
</svg>
