<?xml version="1.0" encoding="utf-8"?>
<!-- 
  Copyright (c) 2021, WSO2 Inc. (http://www.wso2.com). All Rights Reserved.
 
 - This software is the property of WSO2 Inc. and its suppliers, if any.
 - Dissemination of any information or reproduction of any material contained
 - herein is strictly forbidden, unless permitted by WSO2 in accordance with
 - the WSO2 Commercial License available at http://wso2.com/licenses.
 - For specific language governing the permissions and limitations under
 - this license, please see the license as well as any agreement you’ve
 - entered into with WSO2 governing the purchase of this software and any
 - associated services.
 -->
<svg version="1.1" id="clip" x="0px" y="0px" viewBox="0 0 14 14">
<path id="Combined_Shape" d="M1.7960832,12.8307686c-1.506851-1.5068197-1.5638524-3.9317236-0.1294675-5.5076828
	L1.7960832,7.190958l2.5077651-2.5113125l3.7625341-3.7625344c1.2076035-1.2164974,3.1727247-1.2237078,4.3892221-0.0161048
	c1.1758928,1.1672949,1.2275314,3.0524015,0.1173067,4.2823205l-0.117053,0.12326L8.6968718,9.0691214l-2.0936475,2.0900993
	c-0.8676152,0.8638935-2.2712798,0.8608751-3.1351728-0.0067396C2.6464279,10.3273172,2.60325,9.0071268,3.3692005,8.1300402
	l0.0957704-0.1064129l3.1382535-3.1382527c0.1727638-0.1735377,0.4534969-0.1741648,0.6270342-0.0014005
	c0.1523037,0.1516256,0.1739402,0.3906455,0.0513391,0.5671554L7.230165,5.5123158L4.095459,8.6505699
	c-0.52019,0.5187149-0.521385,1.3609152-0.0026689,1.8811054c0.4845843,0.4859619,1.2593341,0.5234823,1.7886095,0.0866203
	l0.0948834-0.0886765L9.529541,6.9763608l2.2993765-2.2993755c0.8570719-0.8743529,0.8430643-2.277951-0.0312891-3.1350238
	c-0.8223724-0.80612-2.1250153-0.8483669-2.9978933-0.0972265l-0.106411,0.1002042L6.8125,3.4257631L4.9316764,5.3065867l0,0
	l-2.5086517,2.505105c-1.2164969,1.2076039-1.2237064,3.1727262-0.0161028,4.3892217
	c1.1672947,1.1758919,3.0523996,1.2275305,4.2823181,0.1173067l0.1241469-0.117053l5.6433582-5.6433578
	c0.1727638-0.1735382,0.453496-0.1741662,0.6270342-0.0014029c0.1523056,0.1516252,0.1739426,0.3906469,0.0513401,0.5671573
	l-0.0514317,0.0611868l-5.6442461,5.646018c-1.5581064,1.5586147-4.0847087,1.5590277-5.6433239,0.0009212
	c-0.0003071-0.0003071-0.0006142-0.0006142-0.0009211-0.0009212H1.7960832z"/>
</svg>
