<?xml version="1.0" encoding="utf-8"?>
<!-- 
  Copyright (c) 2021, WSO2 Inc. (http://www.wso2.com). All Rights Reserved.
 
 - This software is the property of WSO2 Inc. and its suppliers, if any.
 - Dissemination of any information or reproduction of any material contained
 - herein is strictly forbidden, unless permitted by WSO2 in accordance with
 - the WSO2 Commercial License available at http://wso2.com/licenses.
 - For specific language governing the permissions and limitations under
 - this license, please see the license as well as any agreement you’ve
 - entered into with WSO2 governing the purchase of this software and any
 - associated services.
 -->
<svg version="1.1" id="clone" x="0px" y="0px" viewBox="0 0 14 14">
<path id="Combined_Shape" d="M5.6875,14c-1.1522303,0.0002069-2.1070776-0.8934078-2.1831248-2.0431252L3.5,11.8125V10.5H2.1875
	c-1.1525459,0.0001774-2.1075182-0.8939371-2.183125-2.0440006L0,8.3125v-6.125
	c-0.0001775-1.1525459,0.8939366-2.107518,2.0439999-2.183125L2.1875,0h6.125
	c1.1522083,0.0002837,2.1066647,0.8942732,2.1822491,2.0439999L10.5,2.1875V2.625h1.3125
	c1.1525459-0.0001776,2.1075182,0.8939364,2.1831245,2.0440001L14,4.8125v7
	c0.0002069,1.1522303-0.8934078,2.1070776-2.0431252,2.1831245L11.8125,14H5.6875z M4.368,9.1087494L4.375,9.1875v2.625
	c-0.0000114,0.6757393,0.5130501,1.2410526,1.1856251,1.3063745L5.6875,13.125h6.125
	c0.6757393,0.0000105,1.2410526-0.5130491,1.3063745-1.1856251L13.125,11.8125v-7
	c0.0000105-0.6757398-0.5130491-1.2410536-1.1856251-1.306375L11.8125,3.5h-3.5
	C8.0708752,3.5004451,7.8746395,3.3049309,7.8741946,3.0633068C7.8738041,2.8514433,8.0252752,2.669745,8.2337494,2.632
	L8.3125,2.625H9.625V2.1875C9.6249676,1.5114559,9.1114216,0.9460253,8.4385004,0.881125L8.3125,0.875h-6.125
	C1.5117601,0.8749889,0.9464465,1.3880497,0.881125,2.0606251L0.875,2.1875v6.125
	C0.8749889,8.9882393,1.3880497,9.5535526,2.0606251,9.6188745L2.1875,9.625H3.5V9.1875
	C3.4966605,8.9458981,3.68981,8.7473345,3.9314113,8.7439947C4.1472483,8.7410116,4.333004,8.8958941,4.368875,9.1087494H4.368z
	 M7.1286254,10.3722496c-0.1498384-0.1491632-0.1715679-0.3841381-0.0516253-0.5582504L7.1286254,9.753624l1.0351243-1.0359983
	C5.5076499,8.4191608,3.4997656,6.1728163,3.5,3.5c0-0.2416246,0.1958752-0.4375,0.4375-0.4375S4.375,3.2583754,4.375,3.5
	C4.3746247,5.6580801,5.9479537,7.4940643,8.0806246,7.8242502L7.1286254,6.8713751
	c-0.1498384-0.1491637-0.1715679-0.3841376-0.0516253-0.55825l0.0516253-0.0603747
	c0.1492562-0.149086,0.383647-0.1704273,0.557375-0.0507503l0.0603752,0.0507503L9.8061247,8.3125l-2.0597501,2.0597496
	c-0.1708431,0.1707916-0.4477816,0.1707916-0.6186247,0H7.1286254z"/>
</svg>
