<?xml version="1.0" encoding="utf-8"?>
<!-- 
  Copyright (c) 2021, WSO2 Inc. (http://www.wso2.com). All Rights Reserved.
 
 - This software is the property of WSO2 Inc. and its suppliers, if any.
 - Dissemination of any information or reproduction of any material contained
 - herein is strictly forbidden, unless permitted by WSO2 in accordance with
 - the WSO2 Commercial License available at http://wso2.com/licenses.
 - For specific language governing the permissions and limitations under
 - this license, please see the license as well as any agreement you’ve
 - entered into with WSO2 governing the purchase of this software and any
 - associated services.
 -->
<svg version="1.1" id="close" x="0px" y="0px" viewBox="0 0 14 14">
<path id="Combined_Shape" d="M12.9047098,13.8794909l-0.0966377-0.082633L7.000001,7.9887862l-5.8080721,5.8080716
	l-0.0966378,0.082633c-0.3193492,0.2181549-0.7550833,0.1361227-0.9732396-0.1832256
	c-0.1893793-0.2772245-0.1553594-0.649847,0.0810906-0.8881941L6.0098138,7L0.2031421,1.1919279
	c-0.2723786-0.274565-0.2706062-0.7179503,0.0039588-0.990329c0.238346-0.236448,0.610967-0.2704676,0.8881901-0.0810901
	l0.0966378,0.0826323L7.000001,6.0098128l5.8080721-5.8066716l0.0966368-0.0826323
	c0.3193502-0.2181555,0.755084-0.1361215,0.9732389,0.1832282c0.1893787,0.2772232,0.1553593,0.6498448-0.08109,0.8881909
	L7.9887872,7l5.8080716,5.8080721c0.2723799,0.2745638,0.2706089,0.7179489-0.0039549,0.9903288
	C13.5545568,14.0348511,13.1819344,14.0688715,12.9047098,13.8794909z"/>
</svg>
