<?xml version="1.0" encoding="utf-8"?>
<!-- 
  Copyright (c) 2021, WSO2 Inc. (http://www.wso2.com). All Rights Reserved.
 
 - This software is the property of WSO2 Inc. and its suppliers, if any.
 - Dissemination of any information or reproduction of any material contained
 - herein is strictly forbidden, unless permitted by WSO2 in accordance with
 - the WSO2 Commercial License available at http://wso2.com/licenses.
 - For specific language governing the permissions and limitations under
 - this license, please see the license as well as any agreement you’ve
 - entered into with WSO2 governing the purchase of this software and any
 - associated services.
 -->
<svg version="1.1" id="cloud" x="0px" y="0px" viewBox="0 0 14 14">
<g id="Shape">
	<path d="M7.00492,3.0140073c1.7209606,0,3.1575003,1.2928202,3.3415098,3.00722
		c0.0255899,0.2383699,0.0255899,0.4801002,0,0.7184701l-0.1246901,1.1616201L11.38869,7.8452773l0.0759306-0.0018301
		c0.8204994,0,1.4941397,0.6429,1.5336094,1.4636798c0.0015202,0.0317001,0.0020599,0.0634308,0.0015202,0.1084108
		c-0.0005903,0.8653698-0.7050896,1.56987-1.5696802,1.5704594l-8.8593597-0.0008698
		c-0.86507-0.0005903-1.5695801-0.7048597-1.57056-1.5827999c-0.0117701-0.8476601,0.66825-1.5468602,1.5371699-1.5587802
		l0.07355,0.00175l1.16646,0.0555201l-0.12463-1.1611199C3.55674,5.8457274,3.8146601,4.9678874,4.3789501,4.2678876
		c0.56429-0.6999903,1.3673902-1.1383402,2.2614102-1.2342901C6.7628202,3.0204475,6.88447,3.0140073,7.00492,3.0140073
		 M7.0049224,2.0140057c-0.1557193,0-0.3129878,0.0083063-0.4713221,0.0253017
		c-2.3975601,0.25734-4.1325402,2.40957-3.8751903,4.8071203c-0.0403399-0.0019221-0.0807123-0.002883-0.1210916-0.002883
		c-0.0117216,0-0.023447,0.0000811-0.0351684,0.0002427c-1.4012299,0.0194702-2.5213699,1.1711903-2.5019,2.5724306
		c0.00145,1.4185095,1.15127,2.5679398,2.5697801,2.5689096l8.8599396,0.0008698
		c1.4188499-0.0009594,2.56882-1.1509295,2.5697803-2.5697794c0.0007296-0.0524101-0.0001602-0.1048203-0.0026798-0.1571703
		c-0.0653076-1.3583245-1.1869936-2.4156017-2.5324507-2.4156017c-0.0410433,0-0.0824633,0.0009894-0.1238995,0.0029817
		c0.0332499-0.3097501,0.0332499-0.62218,0-0.9319301C11.1003752,3.6752725,9.2071571,2.0140057,7.0049224,2.0140057
		L7.0049224,2.0140057z"/>
</g>
</svg>
