<?xml version="1.0" encoding="utf-8"?>
<!-- 
  Copyright (c) 2021, WSO2 Inc. (http://www.wso2.com). All Rights Reserved.
 
 - This software is the property of WSO2 Inc. and its suppliers, if any.
 - Dissemination of any information or reproduction of any material contained
 - herein is strictly forbidden, unless permitted by WSO2 in accordance with
 - the WSO2 Commercial License available at http://wso2.com/licenses.
 - For specific language governing the permissions and limitations under
 - this license, please see the license as well as any agreement you’ve
 - entered into with WSO2 governing the purchase of this software and any
 - associated services.
 -->
<svg version="1.1" id="code" x="0px" y="0px" viewBox="0 0 14 14">
<path id="Combined_Shape-2" d="M8.6693211,11.975461c-0.178092-0.1784325-0.178092-0.4673681,0-0.6458006l4.3233614-4.3252583
	L8.6693211,2.6781969C8.4865532,2.504823,8.4789362,2.2161124,8.6523104,2.0333436
	C8.8256836,1.8505749,9.1143951,1.8429587,9.297163,2.0163324c0.0058193,0.0055199,0.0114918,0.0111923,0.0170116,0.0170114
	l4.5519047,4.5519042c0.1090727,0.1084852,0.1558247,0.2648044,0.1242285,0.4153614
	c0.0314169,0.1505499-0.0153103,0.3067842-0.1242285,0.4153614l-4.5519047,4.5519047
	c-0.1781073,0.1779842-0.4667463,0.1779842-0.6448536,0V11.975461z M4.6864057,11.975461L0.1345015,7.4235568
	C0.0243163,7.3141694-0.0225133,7.1561632,0.0102726,7.0044022C-0.0213241,6.8538446,0.0254288,6.697526,0.1345017,6.5890408
	l4.5519042-4.5519042c0.1827712-0.1733713,0.4714813-0.1657512,0.6448531,0.01702
	c0.1669359,0.1759872,0.1669359,0.4518456,0,0.6278331L1.0107433,7.0044022l4.3252573,4.3252573
	c0.1783328,0.178071,0.178545,0.4669933,0.000474,0.6453266c-0.1780715,0.1783333-0.4669943,0.178545-0.6453271,0.000474l0,0
	L4.6864057,11.975461z"/>
</svg>
