<?xml version="1.0" encoding="utf-8"?>
<!-- 
  Copyright (c) 2021, WSO2 Inc. (http://www.wso2.com). All Rights Reserved.
 
 - This software is the property of WSO2 Inc. and its suppliers, if any.
 - Dissemination of any information or reproduction of any material contained
 - herein is strictly forbidden, unless permitted by WSO2 in accordance with
 - the WSO2 Commercial License available at http://wso2.com/licenses.
 - For specific language governing the permissions and limitations under
 - this license, please see the license as well as any agreement you’ve
 - entered into with WSO2 governing the purchase of this software and any
 - associated services.
 -->
<svg version="1.1" id="comment" x="0px" y="0px" viewBox="0 0 14 14">
<path id="Combined-Shape" d="M10.9375,0.2624538c1.6349936,0,2.9707355,1.2812428,3.0579691,2.8944693L14,3.3249538v4.375
	c0,1.6349931-1.2812424,2.970736-2.8944683,3.0579686L10.9375,10.762454H3.71875L1.96,13.1074543
	c-0.4639192,0.6185589-0.4204853,0.7987175-1.0882883,0.4645643l-0.1231642-0.0686998L0.63,13.4224539
	c-0.3569348-0.2677011-0.581687-0.6725893-0.623068-1.1122856L0,12.1624537V3.3249538
	c0-1.634993,1.281243-2.9707355,2.8944693-3.0579686L3.0625,0.2624538H10.9375z M10.9375,1.1374538h-7.875
	c-1.1597979,0-2.1087837,0.9025939-2.182847,2.0436711L0.875,3.3249538v8.8374996
	c0,0.1888552,0.0762141,0.3682623,0.188885,0.4845314l0.0591893,0.0526247l0.0275507,0.0184689l0.0058724-0.0125017
	c0.0093241-0.0153675,0.022344-0.0318232,0.0397595-0.0493536L1.26,12.5824537L3.28125,9.887454h7.65625
	c1.1597977,0,2.1087837-0.9025946,2.182847-2.0436721L13.125,7.6999536v-4.375c0-1.1597979-0.9025936-2.1087837-2.0436716-2.182847
	L10.9375,1.1374538z M7.4375,6.8249536c0.2416244,0,0.4375,0.1958756,0.4375,0.4375s-0.1958756,0.4375-0.4375,0.4375h-3.5
	c-0.2416248,0-0.4375-0.1958756-0.4375-0.4375s0.1958752-0.4375,0.4375-0.4375H7.4375z M10.0625,3.7624538
	c0.2416248,0,0.4375,0.1958752,0.4375,0.4374998s-0.1958752,0.4375-0.4375,0.4375h-6.125
	c-0.2416248,0-0.4375-0.1958752-0.4375-0.4375s0.1958752-0.4374998,0.4375-0.4374998H10.0625z"/>
</svg>
