<?xml version="1.0" encoding="utf-8"?>
<!-- 
  Copyright (c) 2021, WSO2 Inc. (http://www.wso2.com). All Rights Reserved.
 
 - This software is the property of WSO2 Inc. and its suppliers, if any.
 - Dissemination of any information or reproduction of any material contained
 - herein is strictly forbidden, unless permitted by WSO2 in accordance with
 - the WSO2 Commercial License available at http://wso2.com/licenses.
 - For specific language governing the permissions and limitations under
 - this license, please see the license as well as any agreement you’ve
 - entered into with WSO2 governing the purchase of this software and any
 - associated services.
 -->
<svg version="1.1" id="commit" x="0px" y="0px" viewBox="0 0 14 14">
<path id="Combined_Shape" d="M0.0006791,11.6666775c-0.0002263-1.1089621,0.7801139-2.0648785,1.866671-2.2866716V4.6199942
	c-1.2626309-0.2577333-2.0772614-1.4902325-1.819528-2.7528634s1.4902325-2.0772614,2.7528634-1.8195279
	s2.0772617,1.4902325,1.8195279,2.7528636C4.4331641,3.7168167,3.717036,4.4329453,2.8006856,4.6199942v1.9133382h6.0666809
	c1.1293182-0.0002785,2.0963421-0.8092771,2.2960052-1.9208045C9.9049511,4.3349638,9.1098099,3.0898025,9.387373,1.8313823
	C9.664937,0.5729617,10.910099-0.2221798,12.16852,0.055384s2.0535612,1.522725,1.7759972,2.7811458
	c-0.2007627,0.9102192-0.9239702,1.6136332-1.8394098,1.7890644c-0.2045832,1.558053-1.4895096,2.7496586-3.0585403,2.8364067
	L8.8673668,7.4666677H2.8006856v1.9133382c1.2626307,0.2577333,2.0772617,1.4902325,1.8195279,2.7528629
	C4.3624802,13.3955002,3.129981,14.2101316,1.86735,13.9523973C0.7811434,13.7306767,0.0009053,12.7752819,0.0006791,11.6666775z
	 M0.9340146,11.6666775c0,0.773201,0.6268029,1.4000034,1.4000034,1.4000034s1.4000032-0.6268024,1.4000032-1.4000034
	c0-0.7732-0.6268029-1.4000034-1.4000032-1.4000034S0.9340146,10.8934774,0.9340146,11.6666775z M10.2673702,2.3333225
	c0,0.7732003,0.6268024,1.4000032,1.4000025,1.4000032c0.773201,0,1.4000034-0.6268029,1.4000034-1.4000032
	s-0.6268024-1.4000034-1.4000034-1.4000034C10.8941727,0.9333192,10.2673702,1.560122,10.2673702,2.3333225z M0.9340146,2.3333225
	c0,0.7732003,0.6268029,1.4000032,1.4000034,1.4000032s1.4000032-0.6268029,1.4000032-1.4000032
	S3.1072183,0.9333192,2.334018,0.9333192S0.9340146,1.560122,0.9340146,2.3333225z"/>
</svg>
