<svg width="16" height="16" viewBox="0 0 16 16" fill="none" xmlns="http://www.w3.org/2000/svg">
<rect width="16" height="16" fill="#E5E5E5"/>
<g id="Icon/Add/Configurable" clip-path="url(#clip0_501_1732)">
<path id="config" d="M3.5 0C5.433 0 7 1.567 7 3.5V12.5C7 14.433 5.433 16 3.5 16C1.567 16 0 14.433 0 12.5V3.5C0 1.567 1.567 0 3.5 0ZM3.5 1.4C2.39063 1.4 1.48217 2.26022 1.40527 3.35003L1.4 3.5V12.5C1.4 13.6598 2.3402 14.6 3.5 14.6C4.60937 14.6 5.51783 13.7398 5.59473 12.65L5.6 12.5V3.5C5.6 2.3402 4.6598 1.4 3.5 1.4ZM3.5 3C3.6933 3 3.85457 3.13711 3.89187 3.31939L3.9 3.4V6.8727C3.9 7.09362 3.72091 7.2727 3.5 7.2727C3.3067 7.2727 3.14543 7.13559 3.10813 6.95332L3.1 6.8727V3.4C3.1 3.17909 3.27909 3 3.5 3ZM12.5 16C14.433 16 16 14.433 16 12.5V3.5C16 1.567 14.433 0 12.5 0C10.567 0 9 1.567 9 3.5V12.5C9 14.433 10.567 16 12.5 16ZM12.5 14.6C11.3906 14.6 10.4822 13.7398 10.4053 12.65L10.4 12.5V3.5C10.4 2.3402 11.3402 1.4 12.5 1.4C13.6094 1.4 14.5178 2.26022 14.5947 3.35003L14.6 3.5V12.5C14.6 13.6598 13.6598 14.6 12.5 14.6ZM12.5 13C12.6933 13 12.8546 12.8629 12.8919 12.6806L12.9 12.6V9.1273C12.9 8.90638 12.7209 8.7273 12.5 8.7273C12.3067 8.7273 12.1454 8.86441 12.1081 9.04668L12.1 9.1273V12.6C12.1 12.8209 12.2791 13 12.5 13Z" fill="#40404B"/>
</g>
<defs>
<clipPath id="clip0_501_1732">
<rect width="16" height="16" fill="white"/>
</clipPath>
</defs>
</svg>
