<?xml version="1.0" encoding="utf-8"?>
<!-- 
  Copyright (c) 2021, WSO2 Inc. (http://www.wso2.com). All Rights Reserved.
 
 - This software is the property of WSO2 Inc. and its suppliers, if any.
 - Dissemination of any information or reproduction of any material contained
 - herein is strictly forbidden, unless permitted by WSO2 in accordance with
 - the WSO2 Commercial License available at http://wso2.com/licenses.
 - For specific language governing the permissions and limitations under
 - this license, please see the license as well as any agreement you’ve
 - entered into with WSO2 governing the purchase of this software and any
 - associated services.
 -->
<svg version="1.1" id="configured" x="0px" y="0px" viewBox="0 0 14 14">
<path id="Combined_Shape" d="M10.0625,0.4375v1.75c-0.0007896,0.014281-0.0007896,0.0285938,0,0.0428748
	C9.0435333,2.4383702,8.3118715,3.3350213,8.3125,4.375c-0.0002117,1.03965,0.7313547,1.9358196,1.75,2.1437497
	c-0.0008001,0.0145726-0.0008001,0.0291781,0,0.0437503v7C10.0625,13.8041248,10.2583752,14,10.5,14
	c0.2416239,0,0.4375-0.1958752,0.4375-0.4375v-7c0.0007687-0.0142813,0.0007687-0.028594,0-0.0428748
	c1.0189667-0.2079954,1.7506285-1.1046462,1.75-2.1446252c0.0006285-1.0399787-0.7310333-1.9366298-1.75-2.1446252
	c0.0007896-0.014281,0.0007896-0.0285938,0-0.0428748v-1.75C10.9375,0.1958756,10.7416239,0,10.5,0
	C10.2583752,0,10.0625,0.1958756,10.0625,0.4375z M3.0624998,0.4375v7c-0.0008218,0.0145717-0.0008218,0.0291781,0,0.0437503
	C2.043855,7.6891799,1.3122877,8.58535,1.3124998,9.625c-0.0002122,1.03965,0.7313552,1.9358206,1.75,2.1437502
	c-0.0008216,0.0145721-0.0008216,0.0291777,0,0.0437498v1.75c0,0.2416248,0.1958754,0.4375,0.4375,0.4375
	s0.4375-0.1958752,0.4375-0.4375v-1.75c0.0008218-0.0145721,0.0008218-0.0291777,0-0.0437498
	C4.9561448,11.5608206,5.6877122,10.66465,5.6875,9.625c0.0002117-1.03965-0.7313552-1.9358201-1.7500002-2.1437497
	c0.0008218-0.0145721,0.0008218-0.0291786,0-0.0437503v-7c0-0.2416244-0.1958754-0.4375-0.4375-0.4375
	S3.0624998,0.1958756,3.0624998,0.4375z"/>
</svg>
