<?xml version="1.0" encoding="utf-8"?>
<!-- 
  Copyright (c) 2021, WSO2 Inc. (http://www.wso2.com). All Rights Reserved.
 
 - This software is the property of WSO2 Inc. and its suppliers, if any.
 - Dissemination of any information or reproduction of any material contained
 - herein is strictly forbidden, unless permitted by WSO2 in accordance with
 - the WSO2 Commercial License available at http://wso2.com/licenses.
 - For specific language governing the permissions and limitations under
 - this license, please see the license as well as any agreement you’ve
 - entered into with WSO2 governing the purchase of this software and any
 - associated services.
 -->
<svg version="1.1" id="configure" x="0px" y="0px" viewBox="0 0 14 14">
<path id="Combined_Shape" d="M10.1,13.6v-1.8c0,0,0,0,0,0c-1.2-0.2-1.9-1.4-1.7-2.6c0.2-0.9,0.8-1.5,1.7-1.7c0,0,0,0,0,0v-7
	c0-0.2,0.2-0.4,0.4-0.4c0.2,0,0.4,0.2,0.4,0.4v7c0,0,0,0,0,0c1.2,0.2,1.9,1.4,1.7,2.6c-0.2,0.9-0.8,1.5-1.7,1.7c0,0,0,0,0,0v1.8
	c0,0.2-0.2,0.4-0.4,0.4C10.3,14,10.1,13.8,10.1,13.6L10.1,13.6z M9.2,9.6c0,0.7,0.6,1.3,1.3,1.3c0.7,0,1.3-0.6,1.3-1.3
	s-0.6-1.3-1.3-1.3C9.8,8.3,9.2,8.9,9.2,9.6z M3.1,13.6v-7c0,0,0,0,0,0C1.9,6.3,1.1,5.1,1.4,3.9c0.2-0.9,0.8-1.5,1.7-1.7c0,0,0,0,0,0
	V0.4C3.1,0.2,3.3,0,3.5,0s0.4,0.2,0.4,0.4v1.8c0,0,0,0,0,0c1.2,0.2,1.9,1.4,1.7,2.6C5.5,5.7,4.8,6.3,3.9,6.5c0,0,0,0,0,0v7
	c0,0.2-0.2,0.4-0.4,0.4S3.1,13.8,3.1,13.6z M2.2,4.4c0,0.7,0.6,1.3,1.3,1.3s1.3-0.6,1.3-1.3S4.2,3.1,3.5,3.1S2.2,3.7,2.2,4.4z"/>
</svg>
