<?xml version="1.0" encoding="utf-8"?>
<!-- 
  Copyright (c) 2021, WSO2 Inc. (http://www.wso2.com). All Rights Reserved.
 
 - This software is the property of WSO2 Inc. and its suppliers, if any.
 - Dissemination of any information or reproduction of any material contained
 - herein is strictly forbidden, unless permitted by WSO2 in accordance with
 - the WSO2 Commercial License available at http://wso2.com/licenses.
 - For specific language governing the permissions and limitations under
 - this license, please see the license as well as any agreement you’ve
 - entered into with WSO2 governing the purchase of this software and any
 - associated services.
 -->
<svg version="1.1" id="curl" x="0px" y="0px" viewBox="0 0 14 14">
<path id="Combined_Shape" d="M5.8334661,13.4661846c-0.1937323-0.1134872-0.2792335-0.3488111-0.203536-0.5601912
	l0.0354791-0.0765591l7.4692068-12.1374607c0.1342831-0.2200899,0.4215584-0.2896505,0.6416483-0.1553677
	c0.1867666,0.113951,0.2693405,0.3423235,0.198637,0.5493684l-0.0364113,0.0765593L6.4692831,13.2999935
	c-0.1298513,0.2227335-0.4156775,0.2980289-0.6384106,0.1681776c-0.0000691-0.0000401-0.0001378-0.0000801-0.0002069-0.0001202
	L5.8334661,13.4661846z M2.0988626,13.4661846c-0.1940844-0.1131945-0.2800027-0.348587-0.2044696-0.5601912l0.0364125-0.0765591
	L9.400012,0.6919734c0.1342831-0.2200899,0.4215584-0.2896505,0.6416483-0.1553677
	c0.1867666,0.113951,0.2693396,0.3423235,0.198637,0.5493684l-0.0354786,0.0765593L2.7356119,13.2999935
	c-0.1298511,0.2227335-0.4156773,0.2980289-0.6384106,0.1681776c-0.0000689-0.0000401-0.0001378-0.0000801-0.0002067-0.0001202
	L2.0988626,13.4661846z M0.0000156,9.5569878c0.0005158-0.3867302,0.314441-0.6998196,0.7011715-0.6993027
	c0.3867306,0.000515,0.6998194,0.3144407,0.6993034,0.7011709c-0.0005153,0.3863649-0.313871,0.6993036-0.7002369,0.6993036
	c-0.3867308,0-0.7002384-0.3135061-0.7002387-0.7002373C0.0000149,9.5576115,0.0000151,9.5572996,0.0000156,9.5569878z
	 M0.0000156,4.4219084c0.0025783-0.3867221,0.3181687-0.6981325,0.7048909-0.6955543s0.6981324,0.3181686,0.6955541,0.7048907
	c-0.002566,0.3848948-0.315304,0.6955614-0.7002069,0.69557C0.3135228,5.1268234,0.0000086,4.813323,0,4.4265924
	C0,4.4250312,0.0000052,4.4234695,0.0000156,4.4219084z"/>
</svg>
