<?xml version="1.0" encoding="utf-8"?>
<!-- 
  Copyright (c) 2021, WSO2 Inc. (http://www.wso2.com). All Rights Reserved.
 
 - This software is the property of WSO2 Inc. and its suppliers, if any.
 - Dissemination of any information or reproduction of any material contained
 - herein is strictly forbidden, unless permitted by WSO2 in accordance with
 - the WSO2 Commercial License available at http://wso2.com/licenses.
 - For specific language governing the permissions and limitations under
 - this license, please see the license as well as any agreement you’ve
 - entered into with WSO2 governing the purchase of this software and any
 - associated services.
 -->
<svg version="1.1" id="customize" x="0px" y="0px" viewBox="0 0 14 14">
<path id="Combined_Shape" d="M11.2069502,13.6165218l-0.0074663-0.0839891v-1.3998289H0.4674689
	c-0.2577008,0.000474-0.4669923-0.2080498-0.4674656-0.4657507c-0.000415-0.2259579,0.1611327-0.4197435,0.3834759-0.460001
	l0.0839897-0.0074663h10.7320147v-1.399828c-0.000473-0.2577009,0.2080507-0.4669924,0.4657516-0.4674664
	c0.2259579-0.0004148,0.4197435,0.1611328,0.460001,0.3834763l0.0074663,0.0839901v1.399828h1.399828
	c0.2577009-0.000474,0.4669924,0.2080498,0.4674654,0.4657507c0.0004158,0.2259579-0.1611319,0.4197445-0.3834753,0.4600019
	l-0.0839901,0.0074654h-1.399828v1.3998289c0.000474,0.2577009-0.2080507,0.4669914-0.4657516,0.4674654
	C11.4409933,14.0004139,11.2472076,13.8388662,11.2069502,13.6165218z M6.5408568,8.950429L6.5333905,8.8664389V7.4666104H0.4674689
	C0.2097681,7.4670849,0.0004755,7.2585626,0.0000008,7.0008616c-0.0004162-0.2259598,0.1611331-0.4197474,0.3834784-0.4600039
	L0.4674689,6.533392h6.0659218V5.133564C6.5329156,4.8758631,6.7414389,4.6665707,6.9991393,4.6660957
	C7.2250996,4.665679,7.4188867,4.8272285,7.4591436,5.0495739L7.4666095,5.133564v1.399828h6.0659213
	c0.2577009-0.0004749,0.4669943,0.2080483,0.4674683,0.4657488c0.0004168,0.2259598-0.1611328,0.4197474-0.3834782,0.4600043
	l-0.0839901,0.0074654H7.4666095v1.3998284C7.4665661,9.1241398,7.2576232,9.3330135,6.9999218,9.3329697
	c-0.2256045-0.0000372-0.41887-0.1614799-0.4590654-0.3834743L6.5408568,8.950429z M1.8747631,4.2843351L1.8672969,4.200345
	v-1.399828H0.4674689c-0.2577008,0.0004747-0.4669934-0.2080483-0.4674681-0.465749
	C-0.0004154,2.1088083,0.1611339,1.9150205,0.3834792,1.874764l0.0839897-0.0074656h1.3998281V0.4674702
	C1.8668222,0.2097694,2.0753453,0.0004768,2.333046,0.0000021c0.2259598-0.0004162,0.4197476,0.1611331,0.4600041,0.3834784
	l0.0074656,0.0839897v1.3998282h10.7320156c0.2577009-0.0004748,0.4669943,0.2080481,0.4674683,0.465749
	c0.0004168,0.2259598-0.1611328,0.4197474-0.3834782,0.4600041l-0.0839901,0.0074656H2.8005157v1.399828
	c0.0004749,0.2577009-0.2080481,0.4669933-0.465749,0.4674683C2.1088068,4.6682301,1.9150192,4.5066805,1.8747631,4.2843351z"/>
</svg>
