<?xml version="1.0" encoding="utf-8"?>
<!-- 
  Copyright (c) 2021, WSO2 Inc. (http://www.wso2.com). All Rights Reserved.
 
 - This software is the property of WSO2 Inc. and its suppliers, if any.
 - Dissemination of any information or reproduction of any material contained
 - herein is strictly forbidden, unless permitted by WSO2 in accordance with
 - the WSO2 Commercial License available at http://wso2.com/licenses.
 - For specific language governing the permissions and limitations under
 - this license, please see the license as well as any agreement you’ve
 - entered into with WSO2 governing the purchase of this software and any
 - associated services.
 -->
<svg version="1.1" id="delete" x="0px" y="0px" viewBox="0 0 14 14">
<path id="Combined_Shape-2" d="M4.8280888,14.0257969c-1.6563978,0-2.9991736-1.3427753-2.9991736-2.9991732V3.0288277H1.3290529
	c-0.2760663,0-0.4998623-0.2237959-0.4998623-0.4998622S1.0529866,2.029103,1.3290529,2.029103h3.169127
	c0.5504537-1.5622592,2.2631464-2.3824894,3.8254056-1.8320355c0.8565588,0.3018041,1.5302315,0.9754767,1.832036,1.8320355
	h3.170126c0.2760658,0,0.4998617,0.2237961,0.4998617,0.4998624s-0.2237959,0.4998622-0.4998617,0.4998622h-0.4998627v7.9977961
	c0,1.6563978-1.3427753,2.9991732-2.9991732,2.9991732H4.8280888z M2.8286397,11.0266237
	c0.003566,1.0446243,0.8080606,1.9117393,1.8494904,1.9934502l0.1499586,0.0059986h4.9986229
	c1.0448132-0.0030861,1.9122028-0.8078356,1.9934502-1.8494902l0.0059986-0.1499586V3.0288277H2.8286397V11.0266237z
	 M9.0589228,2.029103C8.5067425,1.0728093,7.2838817,0.7452114,6.3275876,1.2973925
	C6.0237017,1.4728619,5.7713466,1.7252169,5.5958772,2.029103H9.0589228z M8.8269863,10.5267611V5.5281391
	c0-0.2760668,0.2237968-0.4998627,0.4998627-0.4998627s0.4998627,0.2237959,0.4998627,0.4998627v4.9986219
	c0,0.2760668-0.2237968,0.4998627-0.4998627,0.4998627S8.8269863,10.8028278,8.8269863,10.5267611z M4.8280888,10.5267611V5.5281391
	c0-0.2760668,0.2237959-0.4998627,0.4998622-0.4998627c0.2760668,0,0.4998622,0.2237959,0.4998622,0.4998627v4.9986219
	c0,0.2760668-0.2237954,0.4998627-0.4998622,0.4998627C5.0518847,11.0266237,4.8280888,10.8028278,4.8280888,10.5267611z"/>
</svg>
