<?xml version="1.0" encoding="utf-8"?>
<!-- 
  Copyright (c) 2021, WSO2 Inc. (http://www.wso2.com). All Rights Reserved.
 
 - This software is the property of WSO2 Inc. and its suppliers, if any.
 - Dissemination of any information or reproduction of any material contained
 - herein is strictly forbidden, unless permitted by WSO2 in accordance with
 - the WSO2 Commercial License available at http://wso2.com/licenses.
 - For specific language governing the permissions and limitations under
 - this license, please see the license as well as any agreement you’ve
 - entered into with WSO2 governing the purchase of this software and any
 - associated services.
 -->
<svg version="1.1" id="deploy" x="0px" y="0px" viewBox="0 0 14 14">
<path id="Combined_Shape" d="M0.534538,13.9669342L0.0654348,13.962326l-0.0129026-0.4681816
	c-0.0396295-1.5538473,0.1843234-2.45611,0.7760017-3.1141453l0.1041427-0.1096725l2.8127761,2.8136978
	c-0.8095534,0.6822376-1.863901,1.0018082-2.915997,0.883832L0.534538,13.9669342z M1.0819787,11.8969812
	c-0.0609366,0.290926-0.0957891,0.586709-0.1041428,0.883831l-0.0064513,0.2645035h0.0718861
	c0.3652049-0.0049143,0.7290847-0.0450363,1.0865866-0.1198101l0.1198103-0.0304136l-1.1326675-1.1335897L1.0819787,11.8969812z
	 M8.4217386,11.5753374L6.609839,13.1245766c-0.1510253,0.1317167-0.3364334,0.2177076-0.5345378,0.2479153l-0.1142807,0.0110588
	H5.9204688c-0.2584128,0.0013685-0.5067601-0.1000919-0.6902909-0.2820148l-4.3233066-4.323307
	C0.5922818,8.4517469,0.5345674,7.955328,0.7658639,7.5653806c0.0361894-0.0633283,0.0781474-0.1231799,0.12534-0.1787939
	l0.3520578-0.41012l0.8211609-0.959403L0,3.9526412l0.6571131-0.6580346
	c1.2110273-1.1606119,2.895133-1.6881095,4.5518675-1.4257421L5.463347,1.9057292l0.1124377,0.0202757
	c1.0941286-1.1558055,2.5942087-1.8417454,4.1841421-1.9132775l0.2322474-0.0046081
	c1.0220804-0.0026876,2.0258522,0.2711837,2.9049368,0.7925909l0.199069,0.1244183
	c1.4210768,2.262157,1.1443062,5.1969867-0.6746235,7.1535935l0.0331783,0.2359333
	c0.2625141,1.656745-0.2650042,3.3409147-1.4257421,4.5518675l-0.6571131,0.6571131L8.4217386,11.5753374z M9.9921741,0.9297366
	C8.6432943,0.9404851,7.350924,1.4728901,6.3858857,2.4153836l-0.161283,0.1640477l-0.1557536,0.173264l-4.1270013,4.824667
	L1.5897899,7.9884033L1.5667493,8.0261889c-0.0159119,0.024868-0.0212213,0.0550642-0.0147458,0.0838671l0.0101378,0.0165892
	l4.3205414,4.323307c0.0107861,0.009078,0.0246325,0.0136929,0.0387077,0.0129023
	c0.0170498-0.0005388,0.0337534-0.0049515,0.0488458-0.0129023l0.0396299-0.0267267l5.2532182-4.5030227
	c0.9033909-0.7760835,1.5154743-1.8367453,1.735405-3.0072374c0.2164202-1.1303644,0.0188284-2.3008621-0.5566568-3.2975454
	l-0.015667-0.0230404c-0.7362576-0.4366534-1.5770721-0.665648-2.4330692-0.6626428l0,0H9.9921741z M9.1240101,10.9753647
	l1.2487917,1.2487907l0.1548319-0.1640482c0.7595854-0.8813,1.1372747-2.0286264,1.0497217-3.188796L9.1240101,10.9753647z
	 M1.4672147,3.7959664L1.3031669,3.9507983L2.6662385,5.31387l2.1851547-2.5556448
	C4.6993265,2.7462442,4.550024,2.7397928,4.4025655,2.7397928C3.3266971,2.7138216,2.2798939,3.0904737,1.4672147,3.7959664z
	 M7.3729382,4.6604428c0-1.0179901,0.8252439-1.8432343,1.8432341-1.8432343s1.843235,0.8252442,1.843235,1.8432343
	s-0.8252449,1.8432345-1.843235,1.8432345S7.3729382,5.6784334,7.3729382,4.6604428z M8.2945557,4.6604428
	c0,0.5089955,0.4126215,0.9216175,0.9216166,0.9216175c0.508996,0,0.9216175-0.412622,0.9216175-0.9216175
	s-0.4126215-0.921617-0.9216175-0.921617C8.7071772,3.7388258,8.2945557,4.1514478,8.2945557,4.6604428z"/>
</svg>
