<?xml version="1.0" encoding="utf-8"?>
<!-- 
  Copyright (c) 2021, WSO2 Inc. (http://www.wso2.com). All Rights Reserved.
 
 - This software is the property of WSO2 Inc. and its suppliers, if any.
 - Dissemination of any information or reproduction of any material contained
 - herein is strictly forbidden, unless permitted by WSO2 in accordance with
 - the WSO2 Commercial License available at http://wso2.com/licenses.
 - For specific language governing the permissions and limitations under
 - this license, please see the license as well as any agreement you’ve
 - entered into with WSO2 governing the purchase of this software and any
 - associated services.
 -->
<svg version="1.1" id="deploy-console" x="0px"
	 y="0px" viewBox="0 0 14 14"  >
<path id="Shape" d="M1.3680403,11.1619091c-1.0444512-1.4184885-1.517863-3.1776066-1.326407-4.9287019
	c0.014193-0.2412195,0.2212453-0.4252601,0.4624646-0.411067c0.2412196,0.0141921,0.4252606,0.2212453,0.4110677,0.4624643
	C0.9142624,6.2999549,0.912551,6.3152456,0.9100376,6.3304162c-0.1659372,1.5315142,0.2493643,3.0694957,1.1636462,4.3093181
	c0.1435668,0.1944952,0.1022816,0.4685497-0.092214,0.6121168c-0.194496,0.1435661-0.4685502,0.1022816-0.6121172-0.0922146
	L1.3680403,11.1619091z M5.847569,13.4783859c0.0258245-0.2402525,0.2415228-0.4140806,0.4817753-0.3882561
	c0.0003285,0.0000353,0.0006585,0.0000715,0.0009875,0.0001068c1.5200696,0.165246,3.0471478-0.2421064,4.2829571-1.1424904
	c0.1953888-0.1422138,0.4690704-0.0991077,0.6112843,0.0962811c0.1422148,0.1953888,0.0991087,0.4690704-0.0962801,0.6112843l0,0
	c-1.4128075,1.028204-3.1581345,1.4928932-4.8951707,1.3033295c-0.2401423-0.0262575-0.4135609-0.2421732-0.3873911-0.4823256
	L5.847569,13.4783859z M13.0871143,7.6944585c0.1728888-1.5348792-0.2384596-3.0785871-1.1521854-4.3239188
	c-0.1373825-0.1987822-0.0876074-0.471297,0.1111746-0.6086793c0.190196-0.1314483,0.4498358-0.0922279,0.5927191,0.0895343
	c1.0444155,1.4231086,1.5146217,3.1873312,1.3170156,4.9414673c-0.0270844,0.240222-0.2437801,0.413003-0.4840021,0.3859186
	c-0.240221-0.0270853-0.413002-0.2437801-0.3859177-0.4840016l0,0L13.0871143,7.6944585z M2.7446787,1.9819165
	C2.6009886,1.7876452,2.6419926,1.5136733,2.8362634,1.3699833c0.0000107-0.0000079,0.0000212-0.0000157,0.0000319-0.0000236
	c1.4289038-1.0531048,3.2034681-1.5263093,4.9670067-1.3244998c0.2402215,0.0270849,0.4130034,0.24378,0.3859181,0.4840018
	C8.1621361,0.7696834,7.9454408,0.9424648,7.7052188,0.9153799C6.1616163,0.7384013,4.608242,1.152338,3.3573933,2.0739708
	C3.1632371,2.2178161,2.8892324,2.1770313,2.7453868,1.9828751C2.7451503,1.9825559,2.7449145,1.9822361,2.7446787,1.9819165z"/>
</svg>
