<svg width="16" height="16" viewBox="0 0 16 16" fill="none" xmlns="http://www.w3.org/2000/svg">
<rect width="16" height="16" fill="#E5E5E5"/>
<g id="Icon/Deploy">
<g id="Icon/Deploy_2">
<path id="Combined Shape" fill-rule="evenodd" clip-rule="evenodd" d="M14.499 1.31174L14.7149 1.44682C16.2839 3.84707 15.9429 7.04447 13.9835 9.20927L14.0196 9.46491C14.2554 11.3938 13.7161 13.16 12.4722 14.4039L11.7594 15.1167L9.64271 13L7.67744 14.6838C7.50596 14.8317 7.30395 14.9212 7.09758 14.9526L6.97344 14.9644C6.68353 14.9758 6.39533 14.8736 6.18062 14.6589L1.48911 9.96738C1.14138 9.61965 1.08863 9.0792 1.33593 8.65091C1.37423 8.58328 1.41947 8.51841 1.4721 8.45741L1.85437 8.01291L2.7452 6.97129L0.504883 4.73097L1.21771 4.01814C2.46159 2.77427 4.2278 2.23498 6.15668 2.47082L6.4333 2.50979L6.55509 2.53141C7.78837 1.23585 9.43539 0.523133 11.0954 0.456974L11.3473 0.451904C12.439 0.451519 13.5276 0.732092 14.499 1.31174ZM5.7689 3.43582C4.3344 3.31963 3.04577 3.71269 2.09709 4.56221L1.91909 4.73081L3.39716 6.20899L5.7689 3.43582ZM10.4046 12.3472L13.0681 10.0653C13.1306 11.4143 12.7355 12.6229 11.9282 13.5245L11.7606 13.7023L10.4046 12.3472ZM1.51755 11.5877L4.56998 14.6401C3.93607 15.274 3.03867 15.5817 1.40053 15.5985L1.08458 15.5982L0.576364 15.5925L0.563211 15.0848C0.518058 13.3416 0.787952 12.3932 1.40504 11.7063L1.51755 11.5877ZM1.67845 13.349L1.71635 13.2L2.94635 14.431L2.8158 14.4643C2.4983 14.5365 2.11278 14.5791 1.63624 14.5936L1.55835 14.595L1.56557 14.3086C1.58049 13.9311 1.61792 13.6161 1.67845 13.349ZM7.25889 3.24229L7.08977 3.42993L2.61256 8.66494L2.22922 9.11069L2.20193 9.15094C2.18089 9.18738 2.17833 9.22079 2.18576 9.24262L2.19622 9.26027L6.88772 13.9518C6.90424 13.9683 6.94136 13.973 6.98354 13.953L7.02682 13.9244L12.7303 9.03784C14.7705 7.27747 15.2862 4.37783 14.0034 2.19632L13.9866 2.17048C11.9246 0.940094 9.22131 1.32249 7.43446 3.06366L7.25889 3.24229ZM10.5003 3.5C9.39578 3.5 8.50035 4.39543 8.50035 5.5C8.50035 6.60457 9.39578 7.5 10.5003 7.5C11.6049 7.5 12.5003 6.60457 12.5003 5.5C12.5003 4.39543 11.6049 3.5 10.5003 3.5ZM10.5003 4.5C11.0526 4.5 11.5003 4.94772 11.5003 5.5C11.5003 6.05229 11.0526 6.5 10.5003 6.5C9.94806 6.5 9.50035 6.05229 9.50035 5.5C9.50035 4.94772 9.94806 4.5 10.5003 4.5Z" fill="#40404B"/>
</g>
</g>
</svg>
