<svg width="17" height="17" viewBox="0 0 17 17" fill="none" xmlns="http://www.w3.org/2000/svg">
<rect width="17" height="17" fill="#E5E5E5"/>
<g id="Icon/Deploy console">
<g id="Icon/Deploy console_2">
<path id="Shape" fill-rule="evenodd" clip-rule="evenodd" d="M8.88124 1.1281C9.15558 1.15959 9.40351 0.962728 9.435 0.688387C9.46649 0.414047 9.26963 0.16612 8.99528 0.134627C6.98494 -0.0961507 4.94985 0.447267 3.32212 1.6494C3.09999 1.81345 3.05291 2.12651 3.21696 2.34864C3.38101 2.57077 3.69407 2.61785 3.9162 2.4538C5.34033 1.40204 7.12236 0.926192 8.88124 1.1281ZM14.5252 3.34296C15.7171 4.96525 16.2564 6.98939 16.0294 8.98968C15.9983 9.26406 15.7507 9.46126 15.4763 9.43013C15.2019 9.399 15.0047 9.15134 15.0358 8.87696C15.2344 7.12687 14.7621 5.35442 13.7193 3.93504C13.5558 3.7125 13.6037 3.39956 13.8262 3.23606C14.0488 3.07256 14.3617 3.12042 14.5252 3.34296ZM2.44835 12.2459C1.40473 10.8325 0.92814 9.06618 1.11893 7.3196C1.14891 7.04509 0.950685 6.79825 0.676176 6.76827C0.401666 6.73828 0.154824 6.93651 0.124838 7.21102C-0.093219 9.20727 0.451046 11.2244 1.64387 12.8399C1.80789 13.0621 2.12094 13.1092 2.3431 12.9452C2.56525 12.7812 2.61237 12.4681 2.44835 12.2459ZM12.7975 14.5465C13.0206 14.3838 13.0696 14.071 12.9069 13.8479C12.7441 13.6248 12.4314 13.5758 12.2083 13.7386C10.7999 14.7658 9.04705 15.2333 7.31414 15.0439C7.03963 15.0139 6.79277 15.2121 6.76276 15.4866C6.73276 15.7611 6.93096 16.008 7.20547 16.038C9.1861 16.2545 11.1878 15.7206 12.7975 14.5465Z" fill="#40404B"/>
</g>
</g>
</svg>
