<?xml version="1.0" encoding="utf-8"?>
<!-- 
  Copyright (c) 2021, WSO2 Inc. (http://www.wso2.com). All Rights Reserved.
 
 - This software is the property of WSO2 Inc. and its suppliers, if any.
 - Dissemination of any information or reproduction of any material contained
 - herein is strictly forbidden, unless permitted by WSO2 in accordance with
 - the WSO2 Commercial License available at http://wso2.com/licenses.
 - For specific language governing the permissions and limitations under
 - this license, please see the license as well as any agreement you’ve
 - entered into with WSO2 governing the purchase of this software and any
 - associated services.
 -->
<svg version="1.1" id="disable-show" x="0px"
	 y="0px" viewBox="0 0 14 14"  >
<path id="Combined_Shape-2" d="M12.4381256,13.0475616l-0.0603752-0.0507498l-1.7989998-1.7963753l0,0
	c-0.0875006,0.0568743-0.1531258,0.1014996-0.217001,0.1417494c-0.9628124,0.5978155-2.0744476,0.9125671-3.2077498,0.9082499H7
	c-1.1432953,0.0320511-2.2728953-0.2551966-3.2619996-0.8294992C2.420578,10.5656767,1.337775,9.3947458,0.5880004,8.0145617
	l-0.1925-0.32725L0,7.0004363l0.399-0.6868749l0.02625-0.0446253c0.6048159-1.0914369,1.3812296-2.0784988,2.2995-2.9233751l0,0
	L1.0036249,1.6218112C0.8323892,1.451339,0.8317703,1.17433,1.0022424,1.0030943
	C1.1518565,0.8528101,1.3877065,0.8314609,1.561875,0.9524361L1.62225,1.0040612l1.7998751,1.796375l0.6658747,0.665875
	L5.480125,4.8619366l0.6308751,0.6308751l2.3966246,2.3957496l0.6317501,0.6317501l1.4953747,1.4953747l0.6405001,0.6405001
	l1.7220001,1.7220011c0.1712379,0.1704712,0.1718578,0.4474802,0.0013876,0.6187162
	c-0.1496153,0.1502876-0.3854685,0.1716366-0.559638,0.0506592L12.4381256,13.0475616z M1.259125,7.4668112
	C3.285625,10.8408108,5.2981248,11.2958117,7,11.2958117h0.1478748c0.6608801-0.0048285,1.3157511-0.1259689,1.9346256-0.3578758
	l0,0c0.2880774-0.1109734,0.5656776-0.2474308,0.8294992-0.4077492l0,0L8.52075,9.138936
	c-0.3947659,0.283082-0.8609953,0.4498091-1.3457503,0.4812508l0,0l-0.0874991,0.005249H7
	c-1.4497476,0-2.625-1.175252-2.625-2.6249995c0-0.0131249,0-0.0262504,0-0.0393753v-0.007c0-0.0131249,0-0.0262499,0-0.0402498l0,0
	c0.0159888-0.5146909,0.1847286-1.0129914,0.4847498-1.4315l0,0L3.3634999,3.9860611
	C3.1384554,4.1725259,2.9245853,4.3720794,2.723,4.5836859l0,0c-0.2705014,0.284884-0.5235453,0.5858488-0.75775,0.9012499
	L1.952125,5.5024357L1.9389999,5.5199356C1.6393253,5.9274969,1.3615572,6.3507204,1.1068749,6.7878108l-0.0070001,0.011375
	l-0.0315,0.0542498L0.984375,7.0004363L1.259125,7.4668112z M5.25,7.0004363
	c0.0001469,0.9664979,0.7837677,1.7498803,1.7502651,1.7497334C7.3125191,8.750123,7.619072,8.6665287,7.8881254,8.5080605l0,0
	L5.4932499,6.1123114l0,0C5.3340588,6.3812118,5.2500463,6.6879473,5.25,7.0004363z M11.9000006,10.0445614L11.274375,9.4189358
	c0.6387463-0.6887884,1.1938467-1.4506555,1.6537504-2.2697496l0.0875006-0.1478748l-0.2730007-0.4681249
	c-0.6655636-1.2259893-1.622303-2.2695675-2.7859993-3.0388753C9.1159487,2.9995034,8.1624985,2.7283797,7.1872506,2.7068112
	L7,2.7050612C6.2896366,2.6940475,5.5834332,2.8154075,4.9175,3.0629361l-0.7131252-0.71225
	C5.0775633,1.9379019,6.0343261,1.7324747,7,1.7504362c1.1429434-0.031378,2.2720814,0.2558295,3.2611256,0.8294998
	c1.3184252,0.8566852,2.4013567,2.0298619,3.1499996,3.4125004L14,7.0004363l-0.3998747,0.6886249
	C13.1223211,8.5347166,12.5521212,9.3247213,11.9000006,10.0445614L11.9000006,10.0445614z M9.5375004,7.6820612L8.750001,6.8945613
	c-0.0519991-0.8845925-0.7569933-1.5907135-1.6415014-1.644125L6.3209996,4.4629359
	c1.4000359-0.3763881,2.8401113,0.4534416,3.2164998,1.853477c0.1200151,0.4464154,0.1200151,0.9166079,0,1.3630233l0,0
	L9.5375004,7.6820612z"/>
</svg>
