<?xml version="1.0" encoding="utf-8"?>
<!-- 
  Copyright (c) 2021, WSO2 Inc. (http://www.wso2.com). All Rights Reserved.
 
 - This software is the property of WSO2 Inc. and its suppliers, if any.
 - Dissemination of any information or reproduction of any material contained
 - herein is strictly forbidden, unless permitted by WSO2 in accordance with
 - the WSO2 Commercial License available at http://wso2.com/licenses.
 - For specific language governing the permissions and limitations under
 - this license, please see the license as well as any agreement you’ve
 - entered into with WSO2 governing the purchase of this software and any
 - associated services.
 -->
<svg version="1.1" id="docs" x="0px" y="0px" viewBox="0 0 14 14">
<style type="text/css">
	.st0{fill:#40404B;}
</style>
<g id="Group_152">
	<path id="Combined_Shape-2" class="st0" d="M2.8,14c-1.0309315,0-1.8666666-0.8357353-1.8666666-1.8666668V1.8666667
		C0.9333333,0.8357351,1.7690685,0,2.8,0h8.3999996c1.0309315,0,1.8666668,0.8357351,1.8666668,1.8666667v10.2666664
		C13.0666666,13.1642647,12.2309313,14,11.1999998,14H2.8z M1.8731999,1.7584L1.8666667,1.8666667v10.2666664
		c0.0001179,0.4734936,0.3547698,0.8718748,0.8250667,0.9267998L2.8,13.0666666h8.3999996
		c0.4738503,0.0003557,0.8727674-0.3544159,0.9277344-0.8250666l0.005599-0.1082668V1.8666667
		c-0.000062-0.4731766-0.3542061-0.8714385-0.8241339-0.9268l-0.1091995-0.0065333H2.8
		C2.3265069,0.9334513,1.9281253,1.2881031,1.8731999,1.7584z M6.0666666,10.7501326
		c-0.2577329,0-0.4666667-0.2089338-0.4666667-0.4666662s0.2089338-0.4666662,0.4666667-0.4666662h3.7333336
		c0.2577324,0,0.4666662,0.2089338,0.4666662,0.4666662s-0.2089338,0.4666662-0.4666662,0.4666662H6.0666666z M3.7333333,10.2834663
		c0-0.2577324,0.2089338-0.4666662,0.4666665-0.4666662s0.4666667,0.2089338,0.4666667,0.4666662
		s-0.2089338,0.4666662-0.4666667,0.4666662C3.9426315,10.7501335,3.7338483,10.541769,3.7333333,10.2844V10.2834663z
		 M6.0666666,7.4956002c-0.2577329,0-0.4666667-0.2089338-0.4666667-0.4666667c0-0.2577333,0.2089338-0.4666667,0.4666667-0.4666667
		h3.7333336c0.2577324,0,0.4666662,0.2089334,0.4666662,0.4666667c0,0.2577329-0.2089338,0.4666667-0.4666662,0.4666667H6.0666666z
		 M3.7333333,7.0289335c0-0.2577333,0.2089338-0.4666667,0.4666665-0.4666667s0.4666667,0.2089334,0.4666667,0.4666667
		c0,0.2577329-0.2089338,0.4666667-0.4666667,0.4666667S3.7333333,7.2866664,3.7333333,7.0289335z M4.1999998,4.1999998
		c-0.2577326,0-0.4666665-0.2089334-0.4666665-0.4666665s0.2089338-0.4666667,0.4666665-0.4666667h5.6000004
		c0.2577324,0,0.4666662,0.2089338,0.4666662,0.4666667s-0.2089338,0.4666665-0.4666662,0.4666665H4.1999998z"/>
</g>
</svg>
