<svg width="16" height="16" viewBox="0 0 16 16" fill="none" xmlns="http://www.w3.org/2000/svg">
<rect width="16" height="16" fill="#E5E5E5"/>
<g id="Icon/Docs">
<g id="Icon/Docs_2">
<path id="Combined Shape" fill-rule="evenodd" clip-rule="evenodd" d="M12.5 0.501801C13.6046 0.501801 14.5 1.39723 14.5 2.5018V13.5039C14.5 14.6084 13.6046 15.5039 12.5 15.5039H3.5C2.39543 15.5039 1.5 14.6084 1.5 13.5039V2.5018C1.5 1.39723 2.39543 0.501801 3.5 0.501801H12.5ZM12.5 1.5018H3.5C2.98716 1.5018 2.56449 1.88784 2.50673 2.38518L2.5 2.5018V13.5039C2.5 14.0167 2.88604 14.4394 3.38338 14.4971L3.5 14.5039H12.5C13.0128 14.5039 13.4355 14.1178 13.4933 13.6205L13.5 13.5039V2.5018C13.5 1.98896 13.114 1.56629 12.6166 1.50853L12.5 1.5018ZM5 4.0018C4.72386 4.0018 4.5 4.22566 4.5 4.5018C4.5 4.77794 4.72386 5.0018 5 5.0018H11C11.2761 5.0018 11.5 4.77794 11.5 4.5018C11.5 4.22566 11.2761 4.0018 11 4.0018H5ZM6.5 8.03288C6.5 7.75674 6.72386 7.53288 7 7.53288H11C11.2761 7.53288 11.5 7.75674 11.5 8.03288C11.5 8.30902 11.2761 8.53288 11 8.53288H7C6.72386 8.53288 6.5 8.30902 6.5 8.03288ZM5 7.53288C4.72386 7.53288 4.5 7.75674 4.5 8.03288C4.5 8.30902 4.72386 8.53288 5 8.53288C5.27614 8.53288 5.5 8.30902 5.5 8.03288C5.5 7.75674 5.27614 7.53288 5 7.53288ZM6.5 11.5204C6.5 11.2442 6.72386 11.0204 7 11.0204H11C11.2761 11.0204 11.5 11.2442 11.5 11.5204C11.5 11.7965 11.2761 12.0204 11 12.0204H7C6.72386 12.0204 6.5 11.7965 6.5 11.5204ZM5 11.0204C4.72386 11.0204 4.5 11.2442 4.5 11.5204C4.5 11.7965 4.72386 12.0204 5 12.0204C5.27614 12.0204 5.5 11.7965 5.5 11.5204C5.5 11.2442 5.27614 11.0204 5 11.0204Z" fill="#40404B"/>
<mask id="mask0_501_1732" style="mask-type:alpha" maskUnits="userSpaceOnUse" x="1" y="0" width="14" height="16">
<path id="Combined Shape_2" fill-rule="evenodd" clip-rule="evenodd" d="M12.5 0.501801C13.6046 0.501801 14.5 1.39723 14.5 2.5018V13.5039C14.5 14.6084 13.6046 15.5039 12.5 15.5039H3.5C2.39543 15.5039 1.5 14.6084 1.5 13.5039V2.5018C1.5 1.39723 2.39543 0.501801 3.5 0.501801H12.5ZM12.5 1.5018H3.5C2.98716 1.5018 2.56449 1.88784 2.50673 2.38518L2.5 2.5018V13.5039C2.5 14.0167 2.88604 14.4394 3.38338 14.4971L3.5 14.5039H12.5C13.0128 14.5039 13.4355 14.1178 13.4933 13.6205L13.5 13.5039V2.5018C13.5 1.98896 13.114 1.56629 12.6166 1.50853L12.5 1.5018ZM5 4.0018C4.72386 4.0018 4.5 4.22566 4.5 4.5018C4.5 4.77794 4.72386 5.0018 5 5.0018H11C11.2761 5.0018 11.5 4.77794 11.5 4.5018C11.5 4.22566 11.2761 4.0018 11 4.0018H5ZM6.5 8.03288C6.5 7.75674 6.72386 7.53288 7 7.53288H11C11.2761 7.53288 11.5 7.75674 11.5 8.03288C11.5 8.30902 11.2761 8.53288 11 8.53288H7C6.72386 8.53288 6.5 8.30902 6.5 8.03288ZM5 7.53288C4.72386 7.53288 4.5 7.75674 4.5 8.03288C4.5 8.30902 4.72386 8.53288 5 8.53288C5.27614 8.53288 5.5 8.30902 5.5 8.03288C5.5 7.75674 5.27614 7.53288 5 7.53288ZM6.5 11.5204C6.5 11.2442 6.72386 11.0204 7 11.0204H11C11.2761 11.0204 11.5 11.2442 11.5 11.5204C11.5 11.7965 11.2761 12.0204 11 12.0204H7C6.72386 12.0204 6.5 11.7965 6.5 11.5204ZM5 11.0204C4.72386 11.0204 4.5 11.2442 4.5 11.5204C4.5 11.7965 4.72386 12.0204 5 12.0204C5.27614 12.0204 5.5 11.7965 5.5 11.5204C5.5 11.2442 5.27614 11.0204 5 11.0204Z" fill="white"/>
</mask>
<g mask="url(#mask0_501_1732)">
</g>
</g>
</g>
</svg>
