<?xml version="1.0" encoding="utf-8"?>
<!-- 
  Copyright (c) 2021, WSO2 Inc. (http://www.wso2.com). All Rights Reserved.
 
 - This software is the property of WSO2 Inc. and its suppliers, if any.
 - Dissemination of any information or reproduction of any material contained
 - herein is strictly forbidden, unless permitted by WSO2 in accordance with
 - the WSO2 Commercial License available at http://wso2.com/licenses.
 - For specific language governing the permissions and limitations under
 - this license, please see the license as well as any agreement you’ve
 - entered into with WSO2 governing the purchase of this software and any
 - associated services.
 -->
<svg version="1.1" id="download" x="0px" y="0px" viewBox="0 0 14 14">
<path id="Combined_Shape" d="M1.5806456,14c-0.6978521-0.0000334-1.2815223-0.5301456-1.3485161-1.2247744l-0.0063226-0.130064
	c-0.0004592-0.2494192,0.2013622-0.4519844,0.4507807-0.4524441c0.2186972-0.0004025,0.4062563,0.1559544,0.4452193,0.3711529
	l0.0072258,0.0812912c0.000363,0.2177811,0.1560979,0.4042826,0.3703226,0.4434834l0.0812904,0.0072269h10.8387098
	c0.2181215,0.0000715,0.4051247-0.1557636,0.4443865-0.3703232l0.007226-0.0803871
	c-0.0004578-0.2494192,0.2013645-0.4519835,0.4507828-0.4524422c0.2186956-0.0004025,0.4062538,0.1559534,0.4452171,0.371151
	l0.007226,0.0812912c0.0000114,0.6975374-0.5295992,1.2810869-1.2238703,1.3485155L12.4193554,14H1.5806456z M2.4838715,6.9611611
	C2.3105986,6.7817554,2.3155701,6.4958534,2.4949758,6.3225808c0.17501-0.1690278,0.4524665-0.1690278,0.6274762,0
	l3.4259355,3.4268384V0.4516129C6.5483875,0.202194,6.7505813,0,7.0000005,0s0.4516129,0.202194,0.4516129,0.4516129v9.2969036
	l3.4259357-3.4259353c0.1794071-0.1732712,0.4653091-0.1682968,0.6385803,0.0111103
	c0.1690235,0.1750093,0.1690235,0.4524612,0,0.62747l-4.516129,4.516129L2.4838715,6.9611611z"/>
</svg>
