<?xml version="1.0" encoding="utf-8"?>
<!-- 
  Copyright (c) 2021, WSO2 Inc. (http://www.wso2.com). All Rights Reserved.
 
 - This software is the property of WSO2 Inc. and its suppliers, if any.
 - Dissemination of any information or reproduction of any material contained
 - herein is strictly forbidden, unless permitted by WSO2 in accordance with
 - the WSO2 Commercial License available at http://wso2.com/licenses.
 - For specific language governing the permissions and limitations under
 - this license, please see the license as well as any agreement you’ve
 - entered into with WSO2 governing the purchase of this software and any
 - associated services.
 -->
<svg version="1.1" id="duplicate" x="0px" y="0px" viewBox="0 0 14 14">
<path id="Combined_Shape" d="M2.1874993,13.9999971C0.9793767,13.9999971,0,13.0206203,0,11.8124981V4.812501
	c0-1.2081227,0.9793767-2.1874993,2.1874993-2.1874993H2.624999V2.1875019
	C2.6247911,1.035272,3.5184057,0.0804248,4.6681232,0.0043777l0.1443748-0.004375h6.9999971
	c1.152545-0.0001774,2.1075172,0.8939363,2.1831245,2.0439992l0.0043745,0.1435001V9.187499
	c0.0025158,1.1539154-0.8917217,2.1113434-2.0431242,2.187499h-0.1443748h-0.4375v0.4375
	c0,1.2081223-0.9793768,2.187499-2.187499,2.187499H2.1874993z M0.8749996,4.812501v6.9999971
	c0,0.7248735,0.5876261,1.3125,1.3124996,1.3125h6.9999971c0.7248735,0,1.3125-0.5876265,1.3125-1.3125V4.812501
	c0-0.7248735-0.5876265-1.3124995-1.3125-1.3124995H2.1874993C1.4626257,3.5000014,0.8749996,4.0876274,0.8749996,4.812501z
	 M3.5061235,2.060627l-0.006125,0.1268749v0.4374998h5.6874976c1.2081223,0,2.187499,0.9793766,2.187499,2.1874993v5.6874981h0.4375
	c0.6757402,0.0000105,1.2410526-0.5130491,1.3063745-1.1856241l0.0061255-0.1268759V2.1875019
	c0.0000105-0.6757395-0.5130491-1.2410529-1.1856241-1.3063745l-0.1268759-0.006125H4.8124981
	C4.1367588,0.8749912,3.5714452,1.3880519,3.5061235,2.060627z M5.2499981,10.9374981V8.749999H3.0624988
	c-0.2416244,0-0.4374998-0.1958752-0.4374998-0.4375c0-0.2416239,0.1958754-0.4374995,0.4374998-0.4374995h2.1874993v-2.187499
	c0-0.2416248,0.1958752-0.4375,0.4374995-0.4375c0.2416248,0,0.4375,0.1958752,0.4375,0.4375v2.187499h2.1874995
	c0.2416239,0,0.4375,0.1958756,0.4375,0.4374995c0,0.2416248-0.1958761,0.4375-0.4375,0.4375H6.1249976v2.187499
	c0,0.2416248-0.1958752,0.4375-0.4375,0.4375C5.4458733,11.3749981,5.2499981,11.1791229,5.2499981,10.9374981z"/>
</svg>
