<?xml version="1.0" encoding="utf-8"?>
<!-- 
  Copyright (c) 2021, WSO2 Inc. (http://www.wso2.com). All Rights Reserved.
 
 - This software is the property of WSO2 Inc. and its suppliers, if any.
 - Dissemination of any information or reproduction of any material contained
 - herein is strictly forbidden, unless permitted by WSO2 in accordance with
 - the WSO2 Commercial License available at http://wso2.com/licenses.
 - For specific language governing the permissions and limitations under
 - this license, please see the license as well as any agreement you’ve
 - entered into with WSO2 governing the purchase of this software and any
 - associated services.
 -->
<svg version="1.1" id="edit" x="0px" y="0px" viewBox="0 0 14 14">
<path id="Combined_Shape" d="M0.0006,7c0-3.8656654,3.1337409-6.9994063,6.9994068-6.9994063
	c0.2761188,0,0.4999576,0.2238387,0.4999576,0.4999576S7.2761254,1.0005088,7.0000067,1.0005088
	C3.686579,1.0005088,1.0005152,3.6865723,1.0005152,7s2.6860638,5.9994917,5.9994917,5.9994917S12.9994974,10.313427,12.9994974,7
	c0-0.2761192,0.2238388-0.4999576,0.499958-0.4999576c0.2761183,0,0.4999571,0.2238383,0.4999571,0.4999576
	c0,3.8656654-3.1337404,6.9994068-6.9994059,6.9994068S0.0006,10.8656654,0.0006,7z M5.6231232,8.9088383L5.6231232,8.9088383
	l0.7159395-3.5396996l4.4256248-4.8125925c0.7266703-0.7353027,1.9118347-0.7423004,2.6471376-0.0156297
	c0.0002127,0.0002103,0.0004253,0.0004206,0.000638,0.000631c0.7602396,0.7456264,0.7868662,1.9615766,0.0599947,2.739768
	L9.0378342,8.0689096L5.6241231,8.9088383H5.6231232z M11.4816265,1.2534876L7.2449856,5.8600969L6.7750258,7.6599441
	l1.724853-0.4779592l4.2396402-4.5816116c0.3266916-0.3494997,0.3479652-0.8856053,0.0499964-1.2598932l-0.0789938-0.0889925
	c-0.1647024-0.1620623-0.3868856-0.2523012-0.6179466-0.2509786C11.8631039,0.998795,11.6427145,1.0900531,11.4816265,1.2534876z"/>
</svg>
