<?xml version="1.0" encoding="utf-8"?>
<!-- 
  Copyright (c) 2021, WSO2 Inc. (http://www.wso2.com). All Rights Reserved.
 
 - This software is the property of WSO2 Inc. and its suppliers, if any.
 - Dissemination of any information or reproduction of any material contained
 - herein is strictly forbidden, unless permitted by WSO2 in accordance with
 - the WSO2 Commercial License available at http://wso2.com/licenses.
 - For specific language governing the permissions and limitations under
 - this license, please see the license as well as any agreement you’ve
 - entered into with WSO2 governing the purchase of this software and any
 - associated services.
 -->
<svg version="1.1" id="expression_00000168804789882977048110000003837580028608489888_"
	 x="0px" y="0px" viewBox="0 0 14 14"
	  >
<path id="expression" d="M0,10.9375C0,9.2461281,1.371128,7.875,3.0625,7.875C3.3041246,7.875,3.5,8.0708752,3.5,8.3125
	S3.3041246,8.75,3.0625,8.75c-1.2081228,0-2.1875,0.9793777-2.1875,2.1875s0.9793772,2.1875,2.1875,2.1875
	S5.25,12.1456223,5.25,10.9375c0-0.2416248,0.1958752-0.4375,0.4375-0.4375s0.4375,0.1958752,0.4375,0.4375
	C6.125,12.6288719,4.7538719,14,3.0625,14S0,12.6288719,0,10.9375z M2.7527499,11.2472496
	c-0.1495607-0.1493864-0.1709204-0.3843422-0.05075-0.5582504l0.05075-0.0603752L9.8822498,3.5H8.3125
	C8.1011944,3.5000701,7.9200354,3.3491044,7.8820004,3.1412499L7.875,3.0625
	C7.8749299,2.8511944,8.0258951,2.6700351,8.2337494,2.632L8.3125,2.625h3.0625v0.4173751c0,0.0134168,0,0.0268331,0,0.0402498
	V5.6875c0.0004444,0.2416244-0.1950712,0.4378591-0.4366951,0.438303C10.7264433,6.1261921,10.5447464,5.9747224,10.507,5.7662501
	L10.5,5.6875V4.1203752l-7.1277499,7.1268744c-0.1708438,0.1707926-0.4477813,0.1707926-0.6186249,0H2.7527499z M8.7010002,9.625
	C8.4593754,9.624958,8.2635345,9.4290495,8.2635765,9.1874237C8.2636127,8.9758959,8.4149818,8.7946892,8.6231251,8.757
	L8.7010002,8.75h3.8893747c0.2607288-0.0016088,0.4824018-0.1907692,0.5250006-0.448l0.007-0.0875006V1.4096249
	c-0.0016088-0.2607285-0.1907692-0.4824015-0.448-0.525L12.5903749,0.875H5.7846251
	C5.5236292,0.8758887,5.3015547,1.0653925,5.259625,1.3230001L5.25,1.4096249v3.8884997
	c0.0004454,0.2416244-0.1950693,0.43786-0.4366932,0.4383054C4.6014433,5.7368207,4.4197454,5.5853496,4.382,5.3768749
	L4.375,5.2981248V1.4096249C4.3747149,0.6804006,4.9306517,0.0713372,5.6568751,0.00525L5.7846251,0h6.8057499
	c0.7272406,0.0019318,1.3336439,0.5567909,1.4000006,1.281L14,1.4096249v6.8057499
	c-0.0019321,0.7272396-0.5567913,1.3336439-1.2810001,1.4000006L12.5903749,9.625H8.7010002z"/>
</svg>
