<?xml version="1.0" encoding="utf-8"?>
<!-- 
  Copyright (c) 2021, WSO2 Inc. (http://www.wso2.com). All Rights Reserved.
 
 - This software is the property of WSO2 Inc. and its suppliers, if any.
 - Dissemination of any information or reproduction of any material contained
 - herein is strictly forbidden, unless permitted by WSO2 in accordance with
 - the WSO2 Commercial License available at http://wso2.com/licenses.
 - For specific language governing the permissions and limitations under
 - this license, please see the license as well as any agreement you’ve
 - entered into with WSO2 governing the purchase of this software and any
 - associated services.
 -->
<svg version="1.1" id="feedback" x="0px" y="0px" viewBox="0 0 14 14">
<path id="Combined_Shape" d="M12.2263746,13.3673735c-0.0524998-0.0761251-0.112874-0.1618757-0.1854992-0.2624998
	l-1.7596245-2.3423748H3.0625029h-0.168C1.269074,10.6732006-0.0024476,9.327878,0.0000035,7.6999998v-4.374999l0.004375-0.168
	c0.089208-1.6237401,1.4319354-2.8946249,3.0581243-2.8944993h7.8749981l0.1680002,0.004375
	C12.7292414,0.3560847,14.0001249,1.6988119,14,3.3250008v8.8374977l-0.007,0.1478748
	c-0.0416679,0.4419374-0.2678919,0.8457737-0.6230001,1.1121244l-0.1189995,0.0813761L13.1285,13.5721235
	c-0.1449013,0.0887699-0.3072729,0.1451826-0.4759998,0.1653748C12.4853754,13.7374973,12.3987503,13.6141233,12.2263746,13.3673735
	z M8.750001,5.5125003c0-0.4832492,0.3917503-0.875,0.875-0.875s0.875,0.3917508,0.875,0.875s-0.3917503,0.8749995-0.875,0.8749995
	S8.750001,5.995749,8.750001,5.5125003z M3.5000026,5.5125003c0-0.4832492,0.3917508-0.875,0.8749998-0.875
	s0.875,0.3917508,0.875,0.875s-0.3917508,0.8749995-0.875,0.8749995S3.5000026,5.995749,3.5000026,5.5125003z M13.1199951,3.1799927
	c-0.0800171-1.1499634-1.0299683-2.039978-2.1799927-2.039978H2.9199829
	c-1.1499634,0.0799561-2.0499878,1.0299683-2.039978,2.1900024v4.5100098
	C0.960022,8.9899902,1.9099731,9.8900146,3.0599976,9.8900146h7.6599731l2.0200195,2.6900024l0.0599976,0.0799561
	c0.0200195,0.0200195,0.0400391,0.0400391,0.0499878,0.0599976l0.0200195-0.0199585l0.0599976-0.0499878
	c0.1300049-0.1300049,0.2000122-0.3099976,0.2000122-0.4900513V3.3300171L13.1199951,3.1799927z"/>
</svg>
