<?xml version="1.0" encoding="utf-8"?>
<!-- 
  Copyright (c) 2021, WSO2 Inc. (http://www.wso2.com). All Rights Reserved.
 
 - This software is the property of WSO2 Inc. and its suppliers, if any.
 - Dissemination of any information or reproduction of any material contained
 - herein is strictly forbidden, unless permitted by WSO2 in accordance with
 - the WSO2 Commercial License available at http://wso2.com/licenses.
 - For specific language governing the permissions and limitations under
 - this license, please see the license as well as any agreement you’ve
 - entered into with WSO2 governing the purchase of this software and any
 - associated services.
 -->
<svg version="1.1" id="filters" x="0px" y="0px" viewBox="0 0 14 14">
<g id="Combined_Shape">
	<path d="M12.8917599,0.9999676L8.1100893,6.3941565L7.8584089,6.6780767V7.057497v4.3551397
		c-0.0000401,0.1310701-0.0666599,0.2504206-0.1399994,0.2968206L7.604579,11.7729073l-0.0681696,0.0380001l-0.06145,0.0481195
		l-1.3318901,1.042882v-5.846272V6.6759872L5.8911195,6.3919973L1.1075475,1.0000257L12.8917599,0.9999676 M13.0740461-0.0000124
		c-0.0028305,0-0.0057411,0.0000134-0.0085764,0.0000391H0.9360193C0.935095,0.0000238,0.934203,0.0000229,0.9332788,0.0000229
		C0.740088,0.0000296,0.551605,0.0600109,0.3939292,0.1717072l-0.09331,0.0727797
		c-0.34505,0.3132896-0.39855,0.8362598-0.12409,1.2129402l4.9665399,5.5982099v6.0199399
		c-0.0000901,0.1429405,0.0334702,0.2839003,0.09797,0.4114599v0.0037403
		c0.1647677,0.322979,0.4920611,0.5092297,0.8318343,0.5092297c0.1395898,0,0.281312-0.0314493,0.4146957-0.0977697
		l1.6038899-1.2558603l0.1138296-0.0634499c0.4058304-0.2503996,0.6529903-0.6931601,0.65312-1.1700201V7.057497
		l4.9674807-5.6037998c0.1122599-0.1553106,0.1726599-0.3420706,0.1726093-0.5337
		c-0.0000095-0.0012608-0.0000095-0.0025206-0.0000296-0.0037804C13.9938555,0.4084129,13.5808134-0.0000124,13.0740461-0.0000124
		L13.0740461-0.0000124z"/>
</g>
</svg>
