<?xml version="1.0" encoding="utf-8"?>
<!-- 
  Copyright (c) 2021, WSO2 Inc. (http://www.wso2.com). All Rights Reserved.
 
 - This software is the property of WSO2 Inc. and its suppliers, if any.
 - Dissemination of any information or reproduction of any material contained
 - herein is strictly forbidden, unless permitted by WSO2 in accordance with
 - the WSO2 Commercial License available at http://wso2.com/licenses.
 - For specific language governing the permissions and limitations under
 - this license, please see the license as well as any agreement you’ve
 - entered into with WSO2 governing the purchase of this software and any
 - associated services.
 -->
<svg version="1.1" id="flame" x="0px" y="0px" viewBox="0 0 14 14">
<path id="Combined_Shape" d="M13.132,13.6412497L13.124999,13.5625v-9.625
	c-0.0004435-0.2416244,0.1950712-0.4378588,0.4366961-0.4383028c0.2118616-0.0003893,0.3935575,0.1510804,0.431304,0.3595526
	l0.007,0.0787501v9.625c0.0004444,0.2416239-0.1950712,0.4378586-0.4366951,0.438302
	C13.3514423,14.0011911,13.1697454,13.8497219,13.132,13.6412497z M8.757,13.6412497L8.75,13.5625V0.437501
	C8.7495556,0.1958768,8.9450712-0.000358,9.1866951-0.0008018c0.2118616-0.0003891,0.3935585,0.1510805,0.431304,0.3595528
	L9.625,0.437501V13.5625c0.0004435,0.2416239-0.1950712,0.4378586-0.4366961,0.438302
	C8.9764423,14.0011911,8.7947464,13.8497219,8.757,13.6412497z M4.3820004,13.6412497l-0.007-0.0787497V6.5625005
	c-0.0004454-0.2416244,0.1950688-0.43786,0.4366927-0.4383054C5.0235567,6.1238046,5.205255,6.2752757,5.2430005,6.4837503
	L5.25,6.5625005V13.5625c0.0004454,0.2416239-0.1950688,0.4378595-0.4366927,0.4383059
	C4.6014438,14.001194,4.4197454,13.8497238,4.3820004,13.6412497z M0.0070011,13.6412497L0.0000008,13.5625v-3.5
	c-0.0004448-0.2416248,0.1950696-0.4378595,0.4366938-0.4383049C0.6485574,9.623805,0.8302553,9.7752762,0.8680006,9.9837494
	l0.007,0.0787506v3.5c0.0004449,0.2416239-0.1950696,0.4378595-0.4366938,0.4383039
	C0.2264439,14.001194,0.0447462,13.8497229,0.0070011,13.6412497z"/>
</svg>
