<svg width="16" height="16" viewBox="0 0 16 16" fill="none" xmlns="http://www.w3.org/2000/svg">
<rect width="16" height="16" fill="#E5E5E5"/>
<g id="Icon/Add/Flush" clip-path="url(#clip0_501_1732)">
<path id="Combined-Shape" d="M11.6669 0.719C11.8221 1.10305 11.6365 1.54018 11.2525 1.69534C9.33869 2.46856 8.22385 4.37662 8.37027 6.33038L8.39757 6.29532C9.94734 4.32203 12.6569 3.49591 15.1219 4.44216C15.3797 4.54112 15.5085 4.83033 15.4095 5.08813C15.3435 5.26 15.193 5.37452 15.0236 5.40244L14.9376 5.40906C14.8797 5.40847 14.8208 5.39773 14.7635 5.37574C14.2749 5.18817 13.7747 5.08454 13.2788 5.05775L13.0666 5.05096L12.8552 5.05345C11.4279 5.10146 10.0751 5.77892 9.1841 6.91331C11.8993 6.54072 14.6226 8.03459 15.6956 10.6903C15.8508 11.0744 15.6652 11.5115 15.2812 11.6667C14.8971 11.8218 14.46 11.6363 14.3048 11.2522C13.539 9.35667 11.6598 8.24491 9.72558 8.36618L9.67129 8.37118C11.6687 9.91648 12.5096 12.6427 11.558 15.1217C11.492 15.2935 11.3415 15.408 11.1721 15.436L11.0861 15.4426C11.0282 15.442 10.9693 15.4313 10.912 15.4093C10.6542 15.3103 10.5255 15.0211 10.6244 14.7633C11.4097 12.7175 10.7238 10.4689 9.08585 9.18307C9.4598 11.8984 7.96589 14.6222 5.30983 15.6953C4.92578 15.8505 4.48865 15.665 4.33349 15.2809C4.17832 14.8969 4.36387 14.4597 4.74792 14.3046C6.6618 13.5313 7.77665 11.6231 7.63011 9.66926L7.60283 9.70459C6.54013 11.0577 4.93211 11.8714 3.23153 11.9441L3.01851 11.9494C2.30705 11.9538 1.58279 11.8281 0.878495 11.5578C0.620694 11.4588 0.491928 11.1696 0.590889 10.9118C0.667858 10.7113 0.859918 10.5888 1.06277 10.5909L1.15007 10.5995C1.17919 10.605 1.20822 10.6132 1.23686 10.6242C1.79528 10.8385 2.36882 10.9433 2.93377 10.949L3.14517 10.9465C4.57288 10.8984 5.92613 10.2206 6.81708 9.08561C4.10229 9.45983 1.37803 7.96589 0.304811 5.30959C0.149644 4.92553 0.335192 4.48841 0.719244 4.33324C1.1033 4.17808 1.54042 4.36362 1.69559 4.74768C2.46144 6.64324 4.34062 7.755 6.27482 7.63373L6.32911 7.62873C4.33167 6.08342 3.49081 3.35722 4.4424 0.878251C4.51937 0.677739 4.71143 0.555285 4.91429 0.557325L5.00158 0.565957C5.0307 0.571465 5.05973 0.579649 5.08837 0.590645C5.34618 0.689605 5.47494 0.978818 5.37598 1.23662C4.59085 3.28195 5.27628 5.53012 6.91355 6.81606C6.54069 4.10137 8.03458 1.37765 10.6906 0.304567C11.0746 0.1494 11.5117 0.334947 11.6669 0.719Z" fill="#40404B"/>
</g>
<defs>
<clipPath id="clip0_501_1732">
<rect width="16" height="16" fill="white"/>
</clipPath>
</defs>
</svg>
