<svg width="16" height="16" viewBox="0 0 16 16" fill="none" xmlns="http://www.w3.org/2000/svg">
<rect width="16" height="16" fill="#E5E5E5"/>
<g id="Icon/Add/ForEach" clip-path="url(#clip0_501_1732)">
<path id="Combined-Shape" d="M6.02502 5.25C6.43923 5.25 6.77502 5.58579 6.77502 6C6.77502 6.3797 6.49286 6.69349 6.12679 6.74315L6.02502 6.75H4.5C2.98122 6.75 1.75 7.98122 1.75 9.5C1.75 10.9625 2.8917 12.1584 4.33248 12.245L4.5 12.25L7.248 12.249L6.46967 11.4717C6.2034 11.2054 6.1792 10.7888 6.39705 10.4952L6.46967 10.411C6.73594 10.1448 7.1526 10.1206 7.44621 10.3384L7.53033 10.411L10.1193 13L7.53033 15.589C7.23744 15.8819 6.76256 15.8819 6.46967 15.589C6.2034 15.3227 6.1792 14.906 6.39705 14.6124L6.46967 14.5283L7.248 13.749L4.5 13.75C2.15279 13.75 0.25 11.8472 0.25 9.5C0.25 7.22183 2.04251 5.36231 4.29408 5.2549L4.5 5.25H6.02502ZM9.6193 4.76372C9.79286 4.93729 9.81215 5.20671 9.67715 5.40158L9.6193 5.47083C9.44573 5.64439 9.17631 5.66368 8.98144 5.52868L8.91219 5.47083L6.5 3.05864L8.91219 0.646447C9.10745 0.451184 9.42404 0.451184 9.6193 0.646447C9.79286 0.820013 9.81215 1.08944 9.67715 1.28431L9.6193 1.35355L8.415 2.558L11.5586 2.55864C13.7678 2.55864 15.5586 4.3495 15.5586 6.55864C15.5586 8.70083 13.8747 10.4497 11.7583 10.5537L11.5586 10.5586H10.0174C9.74127 10.5586 9.51741 10.3348 9.51741 10.0586C9.51741 9.81318 9.69428 9.60903 9.92753 9.56669L10.0174 9.55864H11.5586C13.2155 9.55864 14.5586 8.21549 14.5586 6.55864C14.5586 4.96096 13.3097 3.65498 11.7349 3.56373L11.5586 3.55864L8.413 3.558L9.6193 4.76372Z" fill="#40404B"/>
</g>
<defs>
<clipPath id="clip0_501_1732">
<rect width="16" height="16" fill="white"/>
</clipPath>
</defs>
</svg>
