<?xml version="1.0" encoding="utf-8"?>
<!-- 
  Copyright (c) 2021, WSO2 Inc. (http://www.wso2.com). All Rights Reserved.
 
 - This software is the property of WSO2 Inc. and its suppliers, if any.
 - Dissemination of any information or reproduction of any material contained
 - herein is strictly forbidden, unless permitted by WSO2 in accordance with
 - the WSO2 Commercial License available at http://wso2.com/licenses.
 - For specific language governing the permissions and limitations under
 - this license, please see the license as well as any agreement you’ve
 - entered into with WSO2 governing the purchase of this software and any
 - associated services.
 -->
<svg version="1.1" id="forum" x="0px" y="0px" viewBox="0 0 14 14">
<path id="Combined_Shape" d="M13.673625,13.8156614l-0.0463753-0.0349998L11.375,11.5284109H6.5625
	c-1.0975866-0.0013304-2.0249705-0.8142872-2.1700001-1.9022503L4.379375,9.4852858L4.375,9.3409109V7.6031609H3.0843751
	L1.098125,9.5902853L1.0255001,9.6524105C0.73991,9.8635902,0.3371984,9.8032694,0.1260185,9.5176802
	C0.0441677,9.4069881-0.0000039,9.272953,0,9.1352863V2.6462858V2.5001607
	c0.0774708-1.3194026,1.1712018-2.3490222,2.4928751-2.3467498h4.930625h0.1452503
	C8.8861217,0.2312291,9.9146051,1.322244,9.9146252,2.6419108v1.8865001H11.8125
	c1.1525459-0.0001774,2.1075182,0.8939366,2.1831245,2.0439997L14,6.7159109v6.9124994
	c-0.0003128,0.1208124-0.0985041,0.2184954-0.2193165,0.2181816c-0.0375233-0.0000963-0.0743914-0.0098448-0.1070585-0.028306
	V13.8156614z M5.257,6.589911L5.25,6.7159109v2.5961246v0.1163759c0.0456204,0.6419563,0.5477066,1.1573524,1.1882501,1.2197495
	l0.1242499,0.00525h5.1747494L13.125,12.0411615V6.7159109c0.0028973-0.6768503-0.5116644-1.2438183-1.1856241-1.306375
	L11.8125,5.4034109h-5.25C5.8856783,5.4010086,5.3191023,5.9159403,5.257,6.589911z M2.3625,1.0327858
	c-0.8405713,0.0679576-1.4879621,0.7701861-1.4875,1.6135v5.9289999l1.8462498-1.8471251H4.375V6.7159109
	c0.0002832-1.1522088,0.8942733-2.1066651,2.0440001-2.18225L6.5625,4.5284109h2.4771252V2.6462858l-0.0035-0.1303749
	C8.9686003,1.675477,8.2666416,1.027984,7.4235001,1.0284108h-4.930625L2.3625,1.0327858z"/>
</svg>
