<?xml version="1.0" encoding="utf-8"?>

<!--
 ~   Copyright 2018, WSO2 Inc. (http://www.wso2.com)
 ~
 ~   Licensed under the Apache License, Version 2.0 (the "License");
 ~   you may not use this file except in compliance with the License.
 ~   You may obtain a copy of the License at
 ~
 ~        http://www.apache.org/licenses/LICENSE-2.0
 ~
 ~   Unless required by applicable law or agreed to in writing, software
 ~   distributed under the License is distributed on an "AS IS" BASIS,
 ~   WITHOUT WARRANTIES OR CONDITIONS OF ANY KIND, either express or implied.
 ~   See the License for the specific language governing permissions and
 ~   limitations under the License.
-->

<svg version="1.1" id="github" x="0px" y="0px" viewBox="0 0 14 14">
<path d="M7,0.2c-3.9,0-7,3.1-7,7c0,3.1,2,5.7,4.8,6.6c0.3,0.1,0.5-0.2,0.5-0.3c0-0.2,0-0.6,0-1.2
	c-1.9,0.4-2.4-0.9-2.4-0.9c-0.3-0.8-0.8-1-0.8-1c-0.6-0.4,0-0.4,0-0.4c0.7,0,1.1,0.7,1.1,0.7c0.6,1.1,1.6,0.8,2,0.6
	c0.1-0.5,0.2-0.8,0.4-0.9c-1.6-0.2-3.2-0.8-3.2-3.5c0-0.8,0.3-1.4,0.7-1.9C3.2,4.8,2.9,4,3.3,3.1c0,0,0.6-0.2,1.9,0.7
	C5.8,3.6,6.4,3.6,7,3.6c0.6,0,1.2,0.1,1.8,0.2c1.3-0.9,1.9-0.7,1.9-0.7c0.4,1,0.1,1.7,0.1,1.9c0.4,0.5,0.7,1.1,0.7,1.9
	c0,2.7-1.6,3.3-3.2,3.5c0.3,0.2,0.5,0.6,0.5,1.3c0,0.9,0,1.7,0,1.9c0,0.2,0.1,0.4,0.5,0.3C12,12.9,14,10.3,14,7.2
	C14,3.3,10.9,0.2,7,0.2z"/>
</svg>
