<svg width="16" height="16" viewBox="0 0 16 16" fill="none" xmlns="http://www.w3.org/2000/svg">
<rect width="16" height="16" fill="#E5E5E5"/>
<g id="Icon/Go">
<g id="Icon/Go_2">
<path id="Combined Shape" fill-rule="evenodd" clip-rule="evenodd" d="M6.5 0C6.77614 0 7 0.223858 7 0.5C7 0.74546 6.82312 0.949608 6.58988 0.991944L6.5 1H3.5C2.17452 1 1.08996 2.03154 1.00532 3.33562L1 3.5V12.5C1 13.8255 2.03154 14.91 3.33562 14.9947L3.5 15H12.5C13.8255 15 14.91 13.9685 14.9947 12.6644L15 12.5V9.5C15 9.22386 15.2239 9 15.5 9C15.7455 9 15.9496 9.17688 15.9919 9.41012L16 9.5V12.5C16 14.3686 14.5357 15.8951 12.692 15.9948L12.5 16H3.5C1.63144 16 0.104874 14.5357 0.00517886 12.692L0 12.5V3.5C0 1.63144 1.46428 0.104874 3.30796 0.00517886L3.5 0H6.5ZM16 0.500728V5.5C16 5.77614 15.7761 6 15.5 6C15.2545 6 15.0504 5.82312 15.0081 5.58988L15 5.5V1.70711L8.35355 8.35355C8.15829 8.54882 7.84171 8.54882 7.64645 8.35355C7.47288 8.17999 7.4536 7.91056 7.58859 7.71569L7.64645 7.64645L14.2929 1H10.5C10.2545 1 10.0504 0.823125 10.0081 0.589876L10 0.5C10 0.25454 10.1769 0.0503916 10.4101 0.00805567L10.5 0H15.5H16V0.49925C16 0.499742 16 0.500235 16 0.500728Z" fill="#40404B"/>
</g>
</g>
</svg>
