<?xml version="1.0" encoding="utf-8"?>
<!-- 
  Copyright (c) 2021, WSO2 Inc. (http://www.wso2.com). All Rights Reserved.
 
 - This software is the property of WSO2 Inc. and its suppliers, if any.
 - Dissemination of any information or reproduction of any material contained
 - herein is strictly forbidden, unless permitted by WSO2 in accordance with
 - the WSO2 Commercial License available at http://wso2.com/licenses.
 - For specific language governing the permissions and limitations under
 - this license, please see the license as well as any agreement you’ve
 - entered into with WSO2 governing the purchase of this software and any
 - associated services.
 -->
<svg version="1.1" id="go" x="0px" y="0px" viewBox="0 0 14 14">
<path id="Combined_Shape" d="M3.0624998,14c-1.626189,0.0001249-2.9689164-1.2707596-3.0581248-2.8944998L0,10.9375V3.0625005
	c-0.0001256-1.626189,1.2707595-2.9689167,2.8945-3.0581248l0.1679997-0.004375h2.6249998
	c0.2416244-0.0004448,0.43786,0.1950696,0.4383049,0.4366938c0.0003901,0.211863-0.1510806,0.3935607-0.3595548,0.4313062
	l-0.0787501,0.007H3.0624998c-1.15223-0.0002078-2.1070776,0.893407-2.1831248,2.0431249l-0.004375,0.1443748V10.9375
	c-0.0001774,1.1525459,0.8939367,2.1075182,2.0439999,2.1831245L3.0624998,13.125h7.874999
	c1.1522303,0.0002079,2.1070776-0.8934078,2.1831255-2.0431252L13.124999,10.9375v-2.625
	c-0.0004435-0.2416239,0.1950712-0.4378586,0.4366961-0.4383025c0.2118616-0.0003896,0.3935575,0.1510797,0.431304,0.3595529
	l0.007,0.0787497v2.625c0.0001249,1.6261892-1.2707596,2.9689169-2.8944998,3.0581245L10.937499,14H3.0624998z M6.6902494,7.3097506
	c-0.14956-0.1493869-0.1709199-0.3843427-0.0507498-0.55825l0.0507498-0.0603747l5.8161249-5.8161249H9.187499
	C8.9761934,0.875071,8.7950344,0.7241051,8.757,0.5162507l-0.007-0.07875
	c-0.0000706-0.2113057,0.1508951-0.3924649,0.3587494-0.4305l0.0787497-0.007h4.8125v4.8124995
	c0.0004444,0.2416244-0.1950712,0.4378591-0.4366951,0.438303C13.3514423,5.2511926,13.1697454,5.0997229,13.132,4.8912506
	L13.124999,4.8125005V1.4936256L7.3097496,7.3097506c-0.1708431,0.1707916-0.4477811,0.1707916-0.6186247,0H6.6902494z"/>
</svg>
