<?xml version="1.0" encoding="utf-8"?>
<!-- 
  Copyright (c) 2021, WSO2 Inc. (http://www.wso2.com). All Rights Reserved.
 
 - This software is the property of WSO2 Inc. and its suppliers, if any.
 - Dissemination of any information or reproduction of any material contained
 - herein is strictly forbidden, unless permitted by WSO2 in accordance with
 - the WSO2 Commercial License available at http://wso2.com/licenses.
 - For specific language governing the permissions and limitations under
 - this license, please see the license as well as any agreement you’ve
 - entered into with WSO2 governing the purchase of this software and any
 - associated services.
 -->
<svg version="1.1" id="grant-access" x="0px"
	 y="0px" viewBox="0 0 14 14"  >
<path id="Combined_Shape" d="M4.8125,13.8171253c-0.724874,0-1.3125-0.5876265-1.3125-1.3125V5.5046248
	c0-0.724874,0.587626-1.3125,1.3125-1.3125h1.3273754V3.2453752c0.0002074-1.1522303-0.8934073-2.1070778-2.0431252-2.183125
	l-0.1443751-0.004375H3.0625c-1.1522301-0.0002079-2.1070778,0.893407-2.183125,2.0431249L0.875,3.2453752v1.3842497
	c0.0004449,0.2416244-0.1950697,0.43786-0.4366938,0.4383049C0.2264432,5.0683198,0.0447454,4.9168491,0.007,4.708375L0,4.6296248
	V3.2453752c-0.0001256-1.6261892,1.2707596-2.9689169,2.8945-3.058125l0.168-0.004375h0.8898752
	c1.626189-0.0001255,2.9689167,1.2707595,3.0581248,2.8945l0.0043755,0.168v0.9467497H12.6875
	c0.7248735,0,1.3125,0.587626,1.3125,1.3125v7.0000005c0,0.7248735-0.5876265,1.3125-1.3125,1.3125H4.8125z M4.375,5.5046248
	v7.0000005c0,0.2416239,0.1958752,0.4375,0.4375,0.4375h7.875c0.2416248,0,0.4375-0.1958761,0.4375-0.4375V5.5046248
	c0-0.2416248-0.1958752-0.4375-0.4375-0.4375h-7.875C4.5708752,5.0671248,4.375,5.263,4.375,5.5046248z M6.6902499,8.8768749
	c-0.171237-0.1704712-0.1718578-0.4474802-0.0013866-0.6187162c0.1496148-0.1502876,0.3854675-0.1716366,0.5596371-0.0506592
	l0.0603752,0.0507498l1.3930001,1.3938751l1.9503746-2.644249c0.1450062-0.1932755,0.419239-0.2324052,0.6125145-0.0873981
	c0.1692038,0.1269464,0.2233477,0.3567681,0.1286106,0.545898l-0.0420008,0.0665002l-2.5550003,3.4518752L6.6902499,8.8768749z"/>
</svg>
