<svg width="16" height="16" viewBox="0 0 16 16" fill="none" xmlns="http://www.w3.org/2000/svg">
<rect width="16" height="16" fill="#E5E5E5"/>
<g id="Icon/History" clip-path="url(#clip0_501_1732)">
<path id="Union" fill-rule="evenodd" clip-rule="evenodd" d="M1.07313 12.0013C-1.13601 8.175 0.174993 3.28228 4.00133 1.07314C7.76325 -1.0988 12.5559 0.131847 14.8157 3.8102V1.68946C14.8157 1.4292 15.0068 1.21274 15.2589 1.16785L15.356 1.15931C15.6213 1.15931 15.8419 1.34685 15.8877 1.59417L15.8964 1.68946V5.40055H12.1139C11.8155 5.40055 11.5736 5.16319 11.5736 4.8704C11.5736 4.61013 11.7647 4.39367 12.0168 4.34878L12.1139 4.34024L13.8898 4.34094C11.9242 1.17486 7.7854 0.120085 4.53467 1.9969C1.21851 3.91148 0.0823045 8.15184 1.99689 11.468C3.91148 14.7842 8.15184 15.9204 11.468 14.0058C13.2522 12.9757 14.4566 11.2374 14.8215 9.24976C14.8747 8.96005 15.1527 8.76831 15.4424 8.8215C15.7321 8.87468 15.9238 9.15266 15.8706 9.44237C15.4498 11.7344 14.0592 13.7414 12.0013 14.9295C8.17499 17.1387 3.28227 15.8277 1.07313 12.0013ZM8.39637 3.99998C8.39637 3.72383 8.17252 3.49998 7.89637 3.49998C7.62023 3.49998 7.39637 3.72383 7.39637 3.99998V9.99998V10.5H7.89637H10.8964C11.1725 10.5 11.3964 10.2761 11.3964 9.99998C11.3964 9.72383 11.1725 9.49998 10.8964 9.49998H8.39637V3.99998Z" fill="#40404B"/>
</g>
<defs>
<clipPath id="clip0_501_1732">
<rect width="16" height="16" fill="white"/>
</clipPath>
</defs>
</svg>
