<?xml version="1.0" encoding="utf-8"?>
<!-- 
  Copyright (c) 2021, WSO2 Inc. (http://www.wso2.com). All Rights Reserved.
 
 - This software is the property of WSO2 Inc. and its suppliers, if any.
 - Dissemination of any information or reproduction of any material contained
 - herein is strictly forbidden, unless permitted by WSO2 in accordance with
 - the WSO2 Commercial License available at http://wso2.com/licenses.
 - For specific language governing the permissions and limitations under
 - this license, please see the license as well as any agreement you’ve
 - entered into with WSO2 governing the purchase of this software and any
 - associated services.
 -->
<svg version="1.1" id="history" x="0px" y="0px" viewBox="0 0 14 14">
<path id="Combined_Shape" d="M0.9672985,10.4924231C-0.9552517,7.1317677,0.2105626,2.8488836,3.571218,0.9263335
	c3.2762403-1.8742585,7.4482856-0.8181218,9.4381371,2.3892272V1.4569374
	c0.0019197-0.2263604,0.165884-0.4187596,0.3890753-0.4565501l0.0876303-0.0078866
	c0.2268181-0.0011622,0.4223127,0.159357,0.465313,0.3820649L13.95926,1.4578137v3.2510571h-3.3176565
	c-0.2564669,0.0041947-0.4677744-0.2003131-0.4719687-0.45678c-0.0037365-0.2284651,0.1592617-0.4257069,0.3843393-0.4650831
	l0.0876293-0.0070102h1.5571785c-1.7718992-2.8498857-5.5185952-3.723767-8.3684807-1.9518688
	S0.1065338,7.346724,1.8784323,10.1966095s5.5185947,3.7237673,8.3684807,1.951869
	c1.4547091-0.9044571,2.4600792-2.3809204,2.7685766-4.0658693c0.0467024-0.2538385,0.2903395-0.4217567,0.544179-0.3750539
	c0.2538395,0.0467024,0.4217567,0.2903399,0.3750553,0.5441794c-0.6977158,3.8083324-4.3505898,6.3299847-8.1589222,5.6322689
	C3.7531161,13.5134315,1.9951313,12.2734728,0.9672985,10.4924231z M6.5992513,8.3016834V3.0439091
	c-0.0004444-0.241982,0.1953607-0.4385076,0.4373422-0.438952c0.2121754-0.0003896,0.3941407,0.1513042,0.4319429,0.3600855
	l0.0070109,0.0788665v4.3814788h2.2170281c0.2112885,0.0003519,0.3922291,0.151444,0.4302607,0.3592811l0.0078869,0.078867
	c0.0000706,0.2116184-0.1511192,0.3930454-0.3592815,0.4311371l-0.078866,0.0070105H6.5992513z"/>
</svg>
