<svg width="16" height="16" viewBox="0 0 16 16" fill="none" xmlns="http://www.w3.org/2000/svg">
<rect width="16" height="16" fill="#E5E5E5"/>
<g id="Icon/Add/If">
<path id="Combined-Shape" d="M10.4762 2.46998C10.1836 2.17712 9.70928 2.17717 9.41676 2.47009C9.15084 2.73639 9.12671 3.15305 9.34433 3.44664L9.41687 3.53075L13.8816 7.99895L9.42418 12.4616C9.15823 12.7279 9.13405 13.1446 9.35165 13.4382L9.42418 13.5223C9.69013 13.7885 10.1063 13.8128 10.3996 13.5949L10.4836 13.5223L16 7.99926L10.4762 2.46998ZM5.34724 2.64678C5.54229 2.45153 5.85849 2.45157 6.0535 2.64685C6.22684 2.82043 6.24608 3.08986 6.11122 3.28471L6.05343 3.35396L1.41271 7.99895L6.04611 12.6384C6.21947 12.812 6.23873 13.0814 6.10389 13.2763L6.04611 13.3455C5.87275 13.5191 5.60364 13.5384 5.40901 13.4034L5.33984 13.3455L0 7.99928L5.34724 2.64678Z" fill="#40404B"/>
</g>
</svg>
