<svg width="16" height="16" viewBox="0 0 16 16" fill="none" xmlns="http://www.w3.org/2000/svg">
<rect width="16" height="16" fill="#E5E5E5"/>
<g id="Icon/Loader">
<g id="Icon/Loader_2">
<path id="Combined Shape" fill-rule="evenodd" clip-rule="evenodd" d="M8.00035 4.86105C8.30158 4.86105 8.54581 4.61682 8.54581 4.3156V0.562666C8.54581 0.261441 8.30158 0.0172119 8.00035 0.0172119C7.69913 0.0172119 7.4549 0.261441 7.4549 0.562666V4.3156C7.4549 4.61682 7.69913 4.86105 8.00035 4.86105ZM4.31596 7.45453C4.61719 7.45453 4.86142 7.69876 4.86142 7.99999C4.86142 8.30121 4.61719 8.54544 4.31596 8.54544H0.563033C0.261807 8.54544 0.0175781 8.30121 0.0175781 7.99999C0.0175781 7.69876 0.261807 7.45453 0.563033 7.45453H4.31596ZM11.6847 8.54544C11.3835 8.54544 11.1393 8.30121 11.1393 7.99999C11.1393 7.69876 11.3835 7.45453 11.6847 7.45453H15.4377C15.7389 7.45453 15.9831 7.69876 15.9831 7.99999C15.9831 8.30121 15.7389 8.54544 15.4377 8.54544H11.6847ZM8.54581 15.4373C8.54581 15.7385 8.30158 15.9828 8.00035 15.9828C7.69913 15.9828 7.4549 15.7385 7.4549 15.4373V11.6844C7.4549 11.3832 7.69913 11.1389 8.00035 11.1389C8.30158 11.1389 8.54581 11.3832 8.54581 11.6844V15.4373ZM5.0095 10.2195L2.35573 12.8732C2.14267 13.0863 2.14267 13.4316 2.35565 13.6446C2.46218 13.7511 2.60174 13.8044 2.74139 13.8044C2.88095 13.8044 3.02059 13.7511 3.12704 13.6447L5.7808 10.991C5.99387 10.778 5.99387 10.4326 5.78089 10.2196C5.56791 10.0066 5.22248 10.0066 5.0095 10.2195ZM10.9912 5.78044C10.8848 5.88697 10.7451 5.94024 10.6056 5.94024C10.466 5.94024 10.3263 5.88697 10.2199 5.78044C10.0068 5.56746 10.0068 5.22211 10.2199 5.00913L12.8737 2.35537C13.0866 2.1423 13.4321 2.1423 13.645 2.35537C13.858 2.56835 13.858 2.9137 13.645 3.12668L10.9912 5.78044ZM5.0095 5.78044C5.11594 5.88697 5.25559 5.94024 5.39515 5.94024C5.53471 5.94024 5.67436 5.88697 5.7808 5.78044C5.99387 5.56746 5.99387 5.22211 5.7808 5.00913L3.12704 2.35537C2.91415 2.1423 2.56862 2.1423 2.35573 2.35537C2.14266 2.56835 2.14266 2.9137 2.35573 3.12668L5.0095 5.78044ZM13.2593 13.8044C13.1198 13.8044 12.9801 13.7511 12.8737 13.6447L10.2199 10.991C10.0068 10.778 10.0068 10.4326 10.2198 10.2196C10.4329 10.0066 10.7783 10.0066 10.9912 10.2195L13.645 12.8732C13.858 13.0863 13.858 13.4316 13.6451 13.6446C13.5385 13.7511 13.3989 13.8044 13.2593 13.8044Z" fill="#40404B"/>
</g>
</g>
</svg>
