<?xml version="1.0" encoding="utf-8"?>
<!-- 
  Copyright (c) 2021, WSO2 Inc. (http://www.wso2.com). All Rights Reserved.
 
 - This software is the property of WSO2 Inc. and its suppliers, if any.
 - Dissemination of any information or reproduction of any material contained
 - herein is strictly forbidden, unless permitted by WSO2 in accordance with
 - the WSO2 Commercial License available at http://wso2.com/licenses.
 - For specific language governing the permissions and limitations under
 - this license, please see the license as well as any agreement you’ve
 - entered into with WSO2 governing the purchase of this software and any
 - associated services.
 -->
<svg version="1.1" id="loader" x="0px" y="0px"
	 viewBox="0 0 14 14.0008783" style="enable-background:new 0 0 14 14.0008783;" >
<path id="Combined_Shape" d="M6.522109,13.52211v-3.2899904c0-0.2641745,0.2141552-0.4783287,0.4783292-0.4783287
	s0.4783287,0.2141542,0.4783287,0.4783287V13.52211c0,0.2641745-0.2141547,0.4783287-0.4783287,0.4783287
	S6.522109,13.7862844,6.522109,13.52211z M11.2738314,11.9507713L8.944005,9.6235762
	c-0.1866894-0.1866894-0.1866894-0.4893723,0-0.6760616s0.4893723-0.1866894,0.6760616,0l2.3271961,2.3263178
	c0.1792059,0.1944246,0.1668673,0.4973125-0.0275574,0.6765184c-0.1831474,0.1688108-0.4651375,0.1689949-0.6485043,0.0004206
	H11.2738314z M2.0509834,11.9507713c-0.1868768-0.1869545-0.1868768-0.4899845,0-0.676939l2.3263178-2.328949
	c0.1866894-0.1866894,0.4893723-0.1866894,0.6760616,0s0.1866894,0.4893723,0,0.6760616l-2.3263185,2.3298264
	C2.5401909,12.137064,2.2378359,12.137064,2.0509834,11.9507713z M10.2312422,7.4787679
	c-0.2641745,0-0.4783287-0.2141547-0.4783287-0.4783287S9.9670677,6.52211,10.2312422,6.52211h3.2899904
	c0.2641735,0,0.4783287,0.2141552,0.4783287,0.4783292s-0.2141552,0.4783287-0.4783287,0.4783287H10.2312422z M0.4787681,7.4787679
	c-0.2641738,0-0.478329-0.2141547-0.478329-0.4783287S0.2145942,6.52211,0.4787681,6.52211h3.2917438
	c0.2641737,0,0.4783289,0.2141552,0.4783289,0.4783292S4.0346856,7.4787679,3.7705119,7.4787679H0.4787681z M8.944005,5.0551176
	c-0.1866894-0.1865664-0.1867886-0.48915-0.0002222-0.6758389C8.9438572,4.3792043,8.9439306,4.3791304,8.944005,4.3790565
	l2.3271961-2.3271956c0.1866894-0.1866891,0.4893723-0.1866891,0.6760616,0c0.1866894,0.1866894,0.1866894,0.4893727,0,0.6760619
	L9.6226978,5.0551176c-0.1868534,0.1862931-0.4892082,0.1862931-0.6760616,0H8.944005z M4.3755474,5.0551176L2.050106,2.7279224
	c-0.1866895-0.1866894-0.1866895-0.4893725,0-0.6760619c0.1866891-0.1866893,0.4893723-0.1866893,0.6760616,0l0,0
	l2.3280721,2.326319c0.1866894,0.1866894,0.1866894,0.4893723,0,0.6760616s-0.4893723,0.1866894-0.6760616,0L4.3755474,5.0551176z
	 M6.522109,3.77139V0.4787681c0-0.2641738,0.2141552-0.478329,0.4783292-0.478329s0.4783287,0.2141552,0.4783287,0.478329V3.77139
	c0,0.264174-0.2141547,0.4783287-0.4783287,0.4783287S6.522109,4.0355639,6.522109,3.77139z"/>
</svg>
