<?xml version="1.0" encoding="utf-8"?>
<!-- 
  Copyright (c) 2021, WSO2 Inc. (http://www.wso2.com). All Rights Reserved.
 
 - This software is the property of WSO2 Inc. and its suppliers, if any.
 - Dissemination of any information or reproduction of any material contained
 - herein is strictly forbidden, unless permitted by WSO2 in accordance with
 - the WSO2 Commercial License available at http://wso2.com/licenses.
 - For specific language governing the permissions and limitations under
 - this license, please see the license as well as any agreement you’ve
 - entered into with WSO2 governing the purchase of this software and any
 - associated services.
 -->
<svg version="1.1" id="lock" x="0px" y="0px" viewBox="0 0 14 14">
<g id="Path_1">
	<path d="M11.1843519,14H2.8156478c-1.1958052,0-2.1684835-0.9726782-2.1684835-2.1684837V6.8101974
		c0-1.1958051,0.9726783-2.1684837,2.1684835-2.1684837H4.184835V2.8156478C4.184835,1.2629364,5.4477715,0,7,0
		s2.8156481,1.2629364,2.8156481,2.8156478v1.8260658h1.3687038c1.1958055,0,2.1684837,0.9726787,2.1684837,2.1684837v5.0213189
		C13.3528357,13.0273218,12.3801575,14,11.1843519,14z M2.8156478,5.6308126c-0.6505451,0-1.1793846,0.5288396-1.1793846,1.1793847
		v5.0213189c0,0.6500626,0.5288395,1.1793852,1.1793846,1.1793852h8.3687038c0.6500626,0,1.1793852-0.5293226,1.1793852-1.1793852
		V6.8101974c0-0.6505451-0.5293226-1.1793847-1.1793852-1.1793847H2.8156478z M5.173934,4.6417136h3.6526146V2.8156478
		C8.8265486,1.8086795,8.0074511,0.989099,7,0.989099c-1.0069685,0-1.826066,0.8195805-1.826066,1.8265488V4.6417136z M7,10.652132
		c-0.734097,0-1.3315163-0.5969372-1.3315163-1.3310337S6.265903,7.989099,7,7.989099s1.3310337,0.5979028,1.3310337,1.3319993
		S7.734097,10.652132,7,10.652132z M7,8.9781981c-0.1888366,0-0.3424177,0.1535807-0.3424177,0.3429003
		c0,0.1883535,0.1535811,0.3419342,0.3424177,0.3419342c0.188354,0,0.3419347-0.1535807,0.3419347-0.3419342
		C7.3419347,9.1317787,7.188354,8.9781981,7,8.9781981z"/>
</g>
</svg>
