<svg width="16" height="16" viewBox="0 0 16 16" fill="none" xmlns="http://www.w3.org/2000/svg">
<rect width="16" height="16" fill="#E5E5E5"/>
<g id="Icon/ManageAPI">
<g id="Icon/ManageAPI_2">
<path id="Combined Shape" fill-rule="evenodd" clip-rule="evenodd" d="M5.78548 0.318776C5.03751 0.599461 4.61373 1.42059 4.82898 2.22393L4.88116 2.41888C3.8873 2.98634 3.07194 3.82093 2.51668 4.82699L2.32371 4.77353L2.17455 4.74048C1.35927 4.61337 0.609308 5.10916 0.406415 5.89361L0.375419 6.04516L0.360627 6.19967C0.321681 6.96745 0.801846 7.65523 1.52647 7.85624L1.71792 7.90937C1.7159 8.48267 1.79023 9.05807 1.94169 9.62334C2.0932 10.1888 2.31659 10.7243 2.60488 11.2196L2.4656 11.3614C1.8556 11.9822 1.86066 12.9939 2.47697 13.621L2.58949 13.7252C3.2089 14.2466 4.12332 14.2167 4.69749 13.6323L4.83774 13.4896C5.82135 14.083 6.94484 14.3984 8.08958 14.3929L8.14188 14.5878C8.37058 15.4413 9.23408 15.9516 10.0706 15.7274L10.2145 15.6813C10.9625 15.4006 11.3863 14.5795 11.171 13.7761L11.1187 13.5812C12.1129 13.0136 12.9282 12.1789 13.4834 11.173L13.6762 11.2265L13.8255 11.2596C14.6407 11.3867 15.3907 10.8909 15.5936 10.1064L15.6246 9.95488L15.6394 9.80038C15.6783 9.03259 15.1982 8.34482 14.4735 8.14381L14.2821 8.09066C14.2841 7.51795 14.2099 6.94244 14.0583 6.3767C13.9068 5.81122 13.6834 5.2757 13.3951 4.7804L13.5343 4.63878C14.1444 4.01786 14.1393 3.00615 13.523 2.37903L13.4105 2.27481C12.7911 1.75347 11.8767 1.78336 11.3025 2.36771L11.1621 2.51038C10.1794 1.91746 9.05584 1.60166 7.91031 1.60718L7.85815 1.41231C7.62943 0.558722 6.76593 0.048483 5.92945 0.272617L5.78548 0.318776ZM3.56957 5.11866C3.97706 4.46303 4.52185 3.90622 5.1679 3.49023L5.16792 3.49031C5.46393 3.29973 5.78267 3.13778 6.12152 3.00916L5.83871 1.95341C5.76247 1.66886 5.9267 1.37765 6.20553 1.30294C6.48435 1.22823 6.77219 1.39831 6.84842 1.68282L7.13123 2.73859C7.26199 2.71738 7.39266 2.70136 7.523 2.6904L7.77335 2.67554C7.91523 2.67061 8.05655 2.67163 8.19701 2.67841L8.19699 2.67834C8.96519 2.7155 9.71564 2.92559 10.3958 3.28928L10.3958 3.28935C10.713 3.45893 11.0134 3.66101 11.2917 3.89253L12.0464 3.12481C12.2498 2.91776 12.5812 2.91945 12.7866 3.12849C12.9921 3.33753 12.9938 3.67477 12.7904 3.88173L12.0364 4.64895C12.1189 4.75138 12.198 4.8572 12.2733 4.96628L12.4359 5.21628C12.5041 5.32776 12.5685 5.44227 12.629 5.55966L12.6291 5.55957C12.8058 5.90257 12.9466 6.26652 13.0486 6.64726C13.1506 7.02787 13.2106 7.41328 13.2291 7.79827L13.229 7.79824C13.2467 8.16561 13.2265 8.52901 13.1712 8.88352L14.2076 9.17133C14.4653 9.2428 14.6304 9.49915 14.5933 9.76407L14.5743 9.8554C14.5135 10.0869 14.2633 10.2524 14.0026 10.212L13.9126 10.1917L12.9043 9.91184C12.7791 10.2511 12.6202 10.5759 12.4305 10.8811L12.4306 10.8811C12.023 11.537 11.478 12.0941 10.8314 12.5102L10.8314 12.5102C10.5356 12.7006 10.217 12.8624 9.87834 12.9909L10.1613 14.0467C10.2375 14.3312 10.0733 14.6224 9.79448 14.6971C9.51566 14.7718 9.22782 14.6017 9.15159 14.3172L8.86862 13.2615C8.7376 13.2827 8.60668 13.2988 8.47609 13.3097L8.21798 13.3248C8.07875 13.3294 7.94006 13.3283 7.80221 13.3216L7.80223 13.3217C7.03438 13.2844 6.28393 13.0744 5.60321 12.7102L5.60327 12.7102C5.28629 12.5407 4.98617 12.3387 4.70809 12.1073L3.95353 12.8753C3.7502 13.0823 3.41881 13.0806 3.21337 12.8716C3.00794 12.6625 3.00625 12.3253 3.2096 12.1183L3.96345 11.3509C3.87753 11.2442 3.79539 11.1339 3.71729 11.0201L3.55689 10.772C3.49127 10.6641 3.42915 10.5533 3.37074 10.4399L3.37065 10.44C3.19412 10.0971 3.05338 9.73333 2.95141 9.35279C2.84946 8.97231 2.78944 8.58692 2.77089 8.20163L2.771 8.20166C2.75334 7.83429 2.77354 7.47089 2.82882 7.11639L1.79232 6.8287C1.53474 6.75725 1.36964 6.5009 1.40666 6.23598L1.42571 6.14465C1.48649 5.91313 1.73674 5.74769 1.99745 5.78805L2.0874 5.80835L3.0958 6.08808C3.13727 5.97566 3.18245 5.86482 3.23123 5.75575L3.34812 5.51127C3.41644 5.37723 3.49036 5.24624 3.56966 5.11869L3.56957 5.11866ZM7.03375 4.3939C5.08196 4.91688 3.93234 6.95535 4.46599 8.94696C4.99964 10.9386 7.01448 12.1291 8.96626 11.6061C10.918 11.0832 12.0677 9.04469 11.534 7.05309C11.0004 5.06148 8.98553 3.87092 7.03375 4.3939ZM7.30982 5.42422C8.70395 5.05067 10.1431 5.90106 10.5243 7.32364C10.9055 8.74622 10.0843 10.2023 8.69019 10.5758C7.29606 10.9494 5.85689 10.099 5.47571 8.67641C5.09453 7.25383 5.91569 5.79778 7.30982 5.42422Z" fill="#40404B"/>
</g>
</g>
</svg>
