<?xml version="1.0" encoding="utf-8"?>
<!-- 
  Copyright (c) 2021, WSO2 Inc. (http://www.wso2.com). All Rights Reserved.
 
 - This software is the property of WSO2 Inc. and its suppliers, if any.
 - Dissemination of any information or reproduction of any material contained
 - herein is strictly forbidden, unless permitted by WSO2 in accordance with
 - the WSO2 Commercial License available at http://wso2.com/licenses.
 - For specific language governing the permissions and limitations under
 - this license, please see the license as well as any agreement you’ve
 - entered into with WSO2 governing the purchase of this software and any
 - associated services.
 -->
<svg version="1.1" id="manage-api" x="0px" y="0px" viewBox="0 0 14 14">
<path id="Combined_Shape" d="M7.1300759,12.9295349L7.083457,12.7556581
	c-1.0316014,0.0019083-2.0440302-0.2787104-2.9274535-0.81141l-0.1262236,0.1270304
	c-0.1735375,0.1770592-0.3913865,0.3043337-0.6308436,0.3685608c-0.4433053,0.117733-0.9161682,0.0113802-1.2663739-0.2848234
	L2.0316069,12.060008c-0.5541452-0.5629892-0.5591956-1.4648705-0.0113902-2.0340309l0.1253545-0.1267977
	C1.6203735,8.9942293,1.3447206,7.9661183,1.3467546,6.9198089L1.1739115,6.872963
	c-0.6577111-0.1861391-1.09592-0.8065629-1.0514476-1.4886584l0.0129148-0.1395168l0.0314679-0.1398315
	c0.1241711-0.4911318,0.502957-0.8774862,0.991536-1.0113492c0.1951942-0.0520406,0.399178-0.062274,0.5986007-0.0300312
	l0.1347855,0.0300255l0.1737125,0.0466123c0.4970818-0.9035611,1.2335231-1.6526842,2.1284666-2.1651192L4.1473289,1.801218
	c-0.200197-0.7079858,0.172668-1.4517815,0.8597236-1.7149874l0.1296449-0.041283
	c0.7624669-0.1952135,1.5390849,0.2635257,1.7361426,1.0255175l0.0466189,0.1738764
	C7.9510427,1.2421926,8.9634256,1.52324,9.8462763,2.056854l0.1270943-0.1272637
	c0.1733227-0.1768408,0.3908529-0.3040242,0.6299734-0.3683279c0.4435482-0.1174686,0.9165144-0.0112529,1.2672434,0.2845902
	l0.1015911,0.0939057c0.5535793,0.5634497,0.5582428,1.4651192,0.01052,2.0342646l-0.1253538,0.126797
	c0.5253181,0.9049006,0.8009796,1.933044,0.7988167,2.9793701l0.1719732,0.0470796
	c0.6575003,0.1864362,1.0955696,0.8066616,1.0514479,1.488658l-0.0129147,0.1395168l-0.0297289,0.1393661
	c-0.1241713,0.4911318-0.5029573,0.8774862-0.9915361,1.0113497c-0.1951942,0.0520401-0.3991785,0.062274-0.5986013,0.0300312
	l-0.134552-0.0291557l-0.1737127-0.0466127c-0.4985437,0.9023247-1.2347555,1.6508303-2.1286993,2.1642494l0.0466185,0.1738758
	c0.1993284,0.7082109-0.1736917,1.4516649-0.8605928,1.7152214l-0.1296444,0.0412827
	C8.1037521,14.1502657,7.3271332,13.6915264,7.1300759,12.9295349z M7.7838068,11.7357159l0.2547731,0.9502344
	c0.0673285,0.2511168,0.3254786,0.4001055,0.5765953,0.332778c0.2511158-0.0673285,0.4001064-0.3254786,0.332778-0.5765953
	l-0.2547731-0.9502335c0.300127-0.1142702,0.5875673-0.2594194,0.8576889-0.4331102l0,0
	c0.5824938-0.3761015,1.0739794-0.8771296,1.4388132-1.4667473l0,0c0.171134-0.2759342,0.3140717-0.568388,0.426652-0.872941
	l0.9062166,0.2518568l0.0813122,0.0182695c0.0643387,0.0094919,0.1299324,0.0058527,0.1928263-0.0106974
	c0.1547909-0.0388985,0.2774029-0.1568708,0.3222389-0.3100481l0.0169334-0.0828171
	c0.0334482-0.2396135-0.1150856-0.4671478-0.3479042-0.5329437l-0.9323168-0.2588367
	c0.0494175-0.3228021,0.0660324-0.6497769,0.0495872-0.9759254l0,0c-0.0348978-0.7024984-0.2190924-1.3894954-0.5403137-2.0152264
	l0,0c-0.0560017-0.1092353-0.1155176-0.215354-0.178545-0.3183575L10.851634,4.2772794
	c-0.0694036-0.1012931-0.1426105-0.1993928-0.2196198-0.2942982l0.6788797-0.6898921
	c0.1826859-0.1897631,0.1813536-0.4903963-0.003005-0.6785336c-0.1749096-0.1862602-0.4676962-0.1954615-0.6539555-0.0205517
	c-0.0045557,0.0042775-0.0090237,0.0086467-0.013401,0.0131052L9.9610167,3.2981036
	c-0.0487185-0.0403657-0.098074-0.0796282-0.1480665-0.1177888l0,0C9.053072,2.597141,8.1339359,2.2586138,7.1773262,2.2095873l0,0
	C7.0475187,2.2027667,6.9173717,2.2016289,6.7868853,2.2061729L6.5683799,2.2218916l0,0
	C6.4516602,2.2314422,6.3353143,2.2458627,6.2193418,2.2651529L5.9643359,1.3140495
	C5.8970075,1.062933,5.6388569,0.9139434,5.3877406,0.9812717s-0.400106,0.3254787-0.332778,0.5765952l0,0L5.3097358,2.508101
	c-0.090827,0.0342922-0.1802201,0.0716169-0.2681794,0.1119738l0,0c-0.9629188,0.4409363-1.7478299,1.19541-2.2264855,2.1401467
	l-0.105397,0.2220888l0,0C2.6656253,5.0798531,2.6251738,5.1792274,2.5883195,5.2804322L1.6821027,5.0285764L1.5988185,5.0099039
	C1.3707811,4.975666,1.1520613,5.113595,1.0846865,5.334126L1.0686219,5.4167113
	C1.034963,5.6561527,1.1830876,5.8837285,1.4156562,5.9498878L2.3479733,6.208724
	C2.2988439,6.5300956,2.2818427,6.8555608,2.2972219,7.1803021l0,0c0.0369275,0.7577372,0.2481415,1.4967446,0.6172166,2.1595502
	l0,0l0.0126123,0.0227108c0.0261152,0.0464268,0.0533118,0.0922518,0.0815897,0.137476l0.1425786,0.2189713l0,0
	c0.0690925,0.1001329,0.141932,0.1980219,0.2185173,0.2936621l-0.6777773,0.6905289
	c-0.1822939,0.1899672-0.1805775,0.490428,0.0038745,0.6782999c0.1181617,0.1210308,0.2923453,0.1690502,0.455833,0.1256638
	c0.0798728-0.0211773,0.1525486-0.0635214,0.2103589-0.1225643L4.0406723,10.69384
	c0.080802,0.0696602,0.1662765,0.1358919,0.2564235,0.1986971l0,0c0.7928324,0.5744219,1.7444844,0.8884544,2.7234826,0.8987141
	c0.0623093,0.0006886,0.1269174-0.0004807,0.1938219-0.0035095l0.1925931-0.0115662
	C7.5324907,11.7692404,7.6580944,11.7557535,7.7838068,11.7357159z M3.8212602,7.8526616
	C3.3298125,6.0833883,4.3631897,4.250165,6.1313143,3.7545989c1.8035107-0.4390736,3.6214848,0.667021,4.0605583,2.4705322
	c0.4247694,1.7447553-0.5970411,3.5152168-2.320271,4.0202703C6.09272,10.7008448,4.2808437,9.6304779,3.8212602,7.8526616z
	 M4.729764,7.6090775C5.0916557,8.8570986,6.3967471,9.575449,7.6447687,9.2135572S9.6111393,7.5465736,9.2492485,6.298553
	C8.8924904,5.0682325,7.6170359,4.3494005,6.3797936,4.6813598C5.116632,5.0353928,4.3784661,6.3451524,4.729764,7.6090775z"/>
</svg>
