<svg width="16" height="16" viewBox="0 0 16 16" fill="none" xmlns="http://www.w3.org/2000/svg">
<rect width="16" height="16" fill="#E5E5E5"/>
<g id="Icon/Minus">
<g id="Icon/Minus_2">
<path id="Combined Shape" d="M1.16602 8.00003C1.16602 7.68399 1.42221 7.4278 1.73825 7.4278L14.2619 7.4278C14.5779 7.4278 14.8341 7.68399 14.8341 8.00003V8.00003C14.8341 8.31606 14.5779 8.57226 14.2619 8.57226L1.73825 8.57226C1.42221 8.57226 1.16602 8.31606 1.16602 8.00003V8.00003Z" fill="#40404B"/>
<mask id="mask0_501_1732" style="mask-type:alpha" maskUnits="userSpaceOnUse" x="1" y="7" width="14" height="2">
<path id="Combined Shape_2" d="M1.16602 8.00003C1.16602 7.68399 1.42221 7.4278 1.73825 7.4278L14.2619 7.4278C14.5779 7.4278 14.8341 7.68399 14.8341 8.00003V8.00003C14.8341 8.31606 14.5779 8.57226 14.2619 8.57226L1.73825 8.57226C1.42221 8.57226 1.16602 8.31606 1.16602 8.00003V8.00003Z" fill="white"/>
</mask>
<g mask="url(#mask0_501_1732)">
</g>
</g>
</g>
</svg>
