<?xml version="1.0" encoding="utf-8"?>
<!-- 
  Copyright (c) 2021, WSO2 Inc. (http://www.wso2.com). All Rights Reserved.
 
 - This software is the property of WSO2 Inc. and its suppliers, if any.
 - Dissemination of any information or reproduction of any material contained
 - herein is strictly forbidden, unless permitted by WSO2 in accordance with
 - the WSO2 Commercial License available at http://wso2.com/licenses.
 - For specific language governing the permissions and limitations under
 - this license, please see the license as well as any agreement you’ve
 - entered into with WSO2 governing the purchase of this software and any
 - associated services.
 -->
<svg version="1.1" id="observe" x="0px" y="0px" viewBox="0 0 14 14">
<path d="M10.8888884,2.3333333c0.7398233,0,1.3590193,0.5164716,1.5167046,1.208534l1.1116924,3.3484502
	C13.8229713,7.3718023,14,7.9430056,14,8.5555553c0,1.7182198-1.3928928,3.1111116-3.1111116,3.1111116
	c-1.1418381,0-2.1400051-0.6151352-2.6811905-1.532095H5.7923021c-0.5411849,0.9169598-1.5393519,1.532095-2.681191,1.532095
	C1.3928919,11.666667,0,10.2737751,0,8.5555553c0-0.5727396,0.1547658-1.1093321,0.4247579-1.5702372l1.1934797-3.5349998
	c0.189345-0.6455693,0.7860568-1.1169851,1.4928737-1.1169851c0.5138526,0,0.9695125,0.2491539,1.2527609,0.6332436
	l0.3027945-0.0499101h1.166667C6.0132513,2.5277777,6.4021401,2.3333333,7,2.3333333s0.9867487,0.1944444,1.166667,0.5833335
	h1.166666l0.3027945,0.0499101C9.9193773,2.5824871,10.3750362,2.3333333,10.8888884,2.3333333z M3.1111112,6.2222223
	c-1.2886645,0-2.3333335,1.0446692-2.3333335,2.333333s1.0446689,2.333334,2.3333335,2.333334s2.333333-1.0446692,2.333333-2.333334
	S4.3997755,6.2222223,3.1111112,6.2222223z M10.8888884,6.2222223c-1.2886639,0-2.333333,1.0446692-2.333333,2.333333
	s1.0446692,2.333334,2.333333,2.333334s2.333333-1.0446692,2.333333-2.333334S12.1775532,6.2222223,10.8888884,6.2222223z
	 M7.8758745,7.7774553h-1.751749c0.0640373,0.2486906,0.0980968,0.5094175,0.0980968,0.7781
	c0,0.2771053-0.0362287,0.5457487-0.1042075,0.8014526h1.7639704C7.8140063,9.1013041,7.7777777,8.8326607,7.7777777,8.5555553
	C7.7777777,8.2868729,7.8118372,8.0261459,7.8758745,7.7774553z M7.3888893,4.6669278H6.6111107L6.5412078,4.6731935
	c-0.181416,0.032928-0.3189855,0.19171-0.3189855,0.3826232c0,0.2147775,0.1741114,0.3888888,0.3888884,0.3888888l0,0h0.7777786
	l0.0699029-0.0062656c0.181416-0.032928,0.3189855-0.19171,0.3189855-0.3826232
	C7.7777777,4.8410392,7.6036663,4.6669278,7.3888893,4.6669278L7.3888893,4.6669278z"/>
</svg>
