<svg width="16" height="16" viewBox="0 0 16 16" fill="none" xmlns="http://www.w3.org/2000/svg">
<rect width="16" height="16" fill="#E5E5E5"/>
<g id="Icon/Add/Other" clip-path="url(#clip0_501_1732)">
<path id="Combined-Shape" d="M8.96425 0.25C9.37847 0.25 9.71425 0.585786 9.71425 1C9.71425 1.3797 9.4321 1.69349 9.06602 1.74315L8.96425 1.75H3.5C2.85279 1.75 2.32047 2.24187 2.25645 2.87219L2.25 3V13C2.25 13.6472 2.74187 14.1795 3.37219 14.2435L3.5 14.25L9.666 14.249L13.75 9.711V7.0414C13.75 6.6617 14.0322 6.34791 14.3982 6.29824L14.5 6.2914C14.8797 6.2914 15.1935 6.57355 15.2432 6.93963L15.25 7.0414V10.2878L10.334 15.75H3.5C2.03747 15.75 0.841596 14.6083 0.755019 13.1675L0.75 13V3C0.75 1.53747 1.8917 0.341596 3.33248 0.255019L3.5 0.25H8.96425ZM14.4122 1.54077C15.1263 2.2466 15.1898 3.36723 14.5861 4.14663L14.4727 4.28047L10.0375 9.06944L6.62291 9.90938L7.33957 6.36762L11.7645 1.55603C12.4914 0.820659 13.6769 0.813827 14.4122 1.54077ZM12.5837 2.16036L12.5006 2.23294L8.264 6.839L7.915 8.561L9.506 8.17L13.7099 3.63385L13.7955 3.53429C14.0689 3.1813 14.0622 2.68815 13.79 2.34237L13.7092 2.25194C13.3952 1.94149 12.9049 1.91829 12.5837 2.16036Z" fill="#40404B"/>
</g>
<defs>
<clipPath id="clip0_501_1732">
<rect width="16" height="16" fill="white"/>
</clipPath>
</defs>
</svg>
