<?xml version="1.0" encoding="utf-8"?>
<!-- 
  Copyright (c) 2021, WSO2 Inc. (http://www.wso2.com). All Rights Reserved.
 
 - This software is the property of WSO2 Inc. and its suppliers, if any.
 - Dissemination of any information or reproduction of any material contained
 - herein is strictly forbidden, unless permitted by WSO2 in accordance with
 - the WSO2 Commercial License available at http://wso2.com/licenses.
 - For specific language governing the permissions and limitations under
 - this license, please see the license as well as any agreement you’ve
 - entered into with WSO2 governing the purchase of this software and any
 - associated services.
 -->
<svg version="1.1" id="package" x="0px" y="0px" viewBox="0 0 14 14">
<path id="Combined_Shape" d="M6.666625,13.8626251l-6.125-2.522625c-0.3275782-0.1349888-0.5414211-0.4541988-0.541625-0.8085003
	V3.4685004c-0.0001507-0.3546202,0.2137521-0.6742647,0.541625-0.809375l6.125-2.52175
	c0.213284-0.0877556,0.4525909-0.0877556,0.665875,0l6.1250005,2.52175C13.7857161,2.7939622,14.0000048,3.1136668,14,3.4685004
	v7.0629997c-0.0002041,0.3543015-0.2140465,0.6735115-0.541625,0.8085003l-6.1250005,2.522624
	c-0.213284,0.0877562-0.4525909,0.0877562-0.665875,0L6.666625,13.8626251z M7.4366245,12.8738756L13.125,10.5314999V4.2848754
	L7.4996252,6.6010003L7.4375,6.6246252L7.4366245,12.8738756z M0.8750001,10.5314999l5.6875,2.3423758V6.6228752
	L6.5003748,6.6010003L0.8750001,4.2848754V10.5314999z M6.8328753,5.7925005
	C6.9123607,5.8251519,6.999702,5.833673,7.0839996,5.8170004l0.0822501-0.0244999l5.80125-2.3887501L7,0.9458754l-5.9674997,2.457
	L6.8328753,5.7925005z"/>
</svg>
