<svg width="16" height="16" viewBox="0 0 16 16" fill="none" xmlns="http://www.w3.org/2000/svg">
<rect width="16" height="16" fill="#E5E5E5"/>
<g id="Icon/VSC/Pathsegment">
<path id="Combined-Shape" d="M3 8C4.10457 8 5 8.89543 5 10C5 10.7116 4.62834 11.3364 4.06854 11.6909C4.84999 13.0934 6.34049 14 8 14C10.2723 14 12.1511 12.3159 12.4565 10.1277L12.472 10H7V9H13.5V9.5C13.5 12.5376 11.0376 15 8 15C5.90136 15 4.02386 13.8136 3.09814 11.9971L3 12C1.89543 12 1 11.1046 1 10C1 8.89543 1.89543 8 3 8ZM3 9C2.44771 9 2 9.44771 2 10C2 10.5523 2.44771 11 3 11C3.55229 11 4 10.5523 4 10C4 9.44771 3.55229 9 3 9ZM8 1C10.0986 1 11.9761 2.18637 12.9019 4.00293L13 4C14.1046 4 15 4.89543 15 6C15 7.10457 14.1046 8 13 8C11.8954 8 11 7.10457 11 6C11 5.28838 11.3717 4.66358 11.9315 4.30908C11.15 2.9066 9.65951 2 8 2C5.72774 2 3.84886 3.68412 3.54346 5.87225L3.52802 6H9V7H2.5V6.5C2.5 3.46243 4.96243 1 8 1ZM13 5C12.4477 5 12 5.44771 12 6C12 6.55229 12.4477 7 13 7C13.5523 7 14 6.55229 14 6C14 5.44771 13.5523 5 13 5Z" fill="#40404B"/>
</g>
</svg>
