<svg width="16" height="16" viewBox="0 0 16 16" fill="none" xmlns="http://www.w3.org/2000/svg">
<rect width="16" height="16" fill="#E5E5E5"/>
<g id="Icon/VSC/Path Param">
<path id="Combined-Shape" d="M4.93672 3.50104C4.71434 4.36313 3.93155 5 3 5C1.89543 5 1 4.10457 1 3C1 1.89543 1.89543 1 3 1C3.93191 1 4.71495 1.6374 4.93698 2.5H11C12.6569 2.5 14 3.84315 14 5.5C14 7.09768 12.7511 8.40369 11.1763 8.49493L11 8.5H5C3.89543 8.5 3 9.39543 3 10.5C3 11.5544 3.81588 12.4182 4.85074 12.4945L5 12.5H11.063C11.285 11.6374 12.0681 11 13 11C14.1046 11 15 11.8954 15 13C15 14.1046 14.1046 15 13 15C12.0684 15 11.2857 14.3631 11.0633 13.501L5 13.5C3.34315 13.5 2 12.1569 2 10.5C2 8.90232 3.24892 7.59631 4.82373 7.50507L5 7.5H11C12.1046 7.5 13 6.60457 13 5.5C13 4.44564 12.1841 3.58184 11.1493 3.50549L11 3.5L4.93672 3.50104ZM13 12C12.4477 12 12 12.4477 12 13C12 13.5523 12.4477 14 13 14C13.5523 14 14 13.5523 14 13C14 12.4477 13.5523 12 13 12ZM3 2C2.44771 2 2 2.44771 2 3C2 3.55229 2.44771 4 3 4C3.55229 4 4 3.55229 4 3C4 2.44771 3.55229 2 3 2Z" fill="#40404B"/>
</g>
</svg>
