<svg width="16" height="16" viewBox="0 0 16 16" fill="none" xmlns="http://www.w3.org/2000/svg">
<rect width="16" height="16" fill="#E5E5E5"/>
<g id="Icon/VSC/Payload">
<g id="VSC">
<g id="VSC-icons">
<path id="Combined-Shape" d="M1.99158 9.76601L2.66125 10.5087C2.24281 10.886 2 11.4201 2 11.9945C2 13.0991 2.89543 13.9945 4 13.9945C5.05436 13.9945 5.91816 13.1787 5.99451 12.1438L6 11.9945V11.4945H12V12.4945H6.95801L6.95502 12.515C6.71845 13.8674 5.5761 14.9084 4.17627 14.9895L4 14.9945C2.34315 14.9945 1 13.6514 1 11.9945C1 11.2001 1.31098 10.4549 1.85165 9.90053L1.99158 9.76601ZM8.42807 3.71871L10.968 9.16103L11.1103 9.11379C12.3592 8.73679 13.7424 9.21414 14.4805 10.3371L14.5731 10.4872C15.4015 11.9221 14.9099 13.7569 13.475 14.5853C12.8176 14.9648 12.0566 15.0764 11.3339 14.9179L11.1378 14.868L11.4168 13.9077C11.9373 14.0589 12.4963 13.9956 12.975 13.7193C13.9316 13.167 14.2593 11.9438 13.707 10.9872C13.1799 10.0741 12.0414 9.73395 11.107 10.1853L10.975 10.2551L10.5026 10.5279L7.52188 4.14162L8.42807 3.71871ZM9.3754 1.40242C10.0142 1.77121 10.4831 2.35142 10.7148 3.03212L10.7721 3.22017L9.80655 3.48024C9.66959 2.97183 9.34059 2.53703 8.8754 2.26845C7.91881 1.71617 6.69563 2.04392 6.14334 3.00051C5.61616 3.91361 5.89083 5.06967 6.74887 5.65322L6.8754 5.73256L7.27429 5.96285L4.31915 12.2142L3.41507 11.7868L5.99219 6.33406L5.94714 6.2994C4.89421 5.41831 4.56393 3.90856 5.1936 2.65572L5.27731 2.50051C6.10574 1.06563 7.94052 0.573996 9.3754 1.40242Z" fill="#40404B"/>
</g>
</g>
</g>
</svg>
