<?xml version="1.0" encoding="utf-8"?>
<!-- 
  Copyright (c) 2021, WSO2 Inc. (http://www.wso2.com). All Rights Reserved.
 
 - This software is the property of WSO2 Inc. and its suppliers, if any.
 - Dissemination of any information or reproduction of any material contained
 - herein is strictly forbidden, unless permitted by WSO2 in accordance with
 - the WSO2 Commercial License available at http://wso2.com/licenses.
 - For specific language governing the permissions and limitations under
 - this license, please see the license as well as any agreement you’ve
 - entered into with WSO2 governing the purchase of this software and any
 - associated services.
 -->
<svg version="1.1" id="period" x="0px" y="0px" viewBox="0 0 14 14">
<path id="Combined_Shape" d="M6.5625,13.5660009v-0.875c0-0.2416248,0.1958752-0.4375,0.4375-0.4375
	c0.2416244,0,0.4375,0.1958752,0.4375,0.4375v0.875C7.4375,13.8076248,7.2416244,14.0035,7,14.0035
	C6.7583752,14.0035,6.5625,13.8076248,6.5625,13.5660009z M9.9023743,12.9053755l-0.4375-0.7577505
	c-0.1194296-0.2100449-0.04597-0.4771366,0.1640759-0.5965662c0.2080851-0.1183138,0.47262-0.0474358,0.5936747,0.1590662
	l0.4375,0.7577505c0.1211729,0.2090445,0.0499382,0.476738-0.1591063,0.5979109
	C10.500679,13.0659828,10.5003395,13.0661793,10.5,13.0663757c-0.0657997,0.0385714-0.140729,0.058815-0.217,0.0586252
	C10.1258945,13.1254444,9.9806128,13.0416145,9.9023743,12.9053755z M3.5,13.0655003
	c-0.2092421-0.1208153-0.2809315-0.3883772-0.160125-0.5976248l0.4375-0.758625
	c0.1194289-0.2100458,0.3865206-0.2835045,0.5965664-0.1640759c0.2100458,0.1194296,0.283505,0.3865213,0.1640759,0.5965672
	c-0.0009527,0.0016766-0.0019169,0.0033464-0.002892,0.0050087l-0.4375,0.7577505
	c-0.0783057,0.1356306-0.2231379,0.219059-0.3797503,0.21875C3.6414046,13.1237345,3.566191,13.1037979,3.5,13.0655003z
	 M12.46525,10.6627502l-0.7577496-0.4375c-0.2100458-0.1194296-0.2835045-0.3865213-0.1640759-0.5965672
	s0.3865204-0.2835045,0.5965662-0.1640759c0.0016766,0.0009537,0.0033464,0.0019178,0.0050097,0.0028925l0.7577496,0.4375
	c0.2092476,0.1208229,0.2809277,0.3883972,0.1601048,0.5976448c-0.0781507,0.1353455-0.2225657,0.2187233-0.3788548,0.21873
	c-0.0770149,0.0004168-0.1527758-0.0195045-0.2196255-0.0577488L12.46525,10.6627502z M0.938,10.5035009
	c-0.1208063-0.2092485-0.0491171-0.4768095,0.160125-0.5976248l0.75775-0.4375
	C2.0643234,9.34618,2.3323631,9.4161024,2.4545586,9.6245499c0.1221955,0.2084484,0.0522738,0.4764881-0.1561744,0.5986843
	c-0.0016634,0.0009747-0.0033331,0.0019388-0.0050092,0.0028915l-0.7577499,0.4375
	C1.3263776,10.7844324,1.058816,10.7127438,0.938,10.5035009z M14,7.4410005H6.5625v-7.4445l0.664125,0.0105
	C10.9919863,0.1289397,13.9854918,3.2090678,14,6.9763756c0,0.00875,0,0.0183749,0,0.0271249c0,0.0087504,0,0.0175004,0,0.0262499
	v0.4103751l0,0V7.4410005z M7.4375,6.5660005h5.6708746l-0.0148745-0.1881251
	c-0.0714798-0.7122469-0.2681656-1.4062777-0.5810003-2.0501251l-0.3657503,0.210875
	c-0.2100449,0.1194291-0.4771366,0.04597-0.5965662-0.1640759c-0.1183138-0.2080841-0.0474358-0.4726198,0.1590662-0.5936742
	l0.3648758-0.2108753c-0.4376144-0.6445286-0.9930649-1.2005725-1.637126-1.6388751l-0.2108746,0.36575
	c-0.1221962,0.2084484-0.3902349,0.2783701-0.5986843,0.1561744c-0.206502-0.1210546-0.27738-0.3855896-0.1590662-0.5936744
	l0.2108755-0.36575C9.0332603,1.1784981,8.336442,0.9805924,7.6212502,0.9091252L7.4375,0.8933752V6.5660005z M0.4375,7.4410005
	c-0.2416246,0-0.4375-0.1958756-0.4375-0.4375c0-0.2416248,0.1958754-0.4375,0.4375-0.4375h0.875
	c0.2416246,0,0.4375,0.1958752,0.4375,0.4375c0,0.2416244-0.1958754,0.4375-0.4375,0.4375H0.4375z M1.855875,4.5377502
	l-0.7586249-0.4375c-0.2100493-0.1194224-0.2835168-0.386512-0.1640943-0.5965614s0.3865123-0.2835166,0.5965616-0.164094
	c0.001684,0.0009573,0.0033615,0.0019259,0.0050327,0.0029056L2.2925,3.7800007
	C2.5017471,3.9008236,2.5734291,4.1683979,2.452606,4.377645C2.3744547,4.512991,2.2300391,4.5963688,2.07375,4.5963755
	C1.9972484,4.5962186,1.9221253,4.576005,1.855875,4.5377502z M3.7808752,2.2968752l-0.4375-0.75775
	c-0.1194291-0.2100456-0.04597-0.4771374,0.1640759-0.5965665c0.2080841-0.1183141,0.4726195-0.0474358,0.5936742,0.1590665
	l0.4375,0.75775C4.6586027,2.069108,4.5858412,2.336391,4.3761086,2.4563684
	C4.3757391,2.4565794,4.3753695,2.4567902,4.375,2.4570003C4.3089647,2.4958704,4.2337508,2.5164106,4.157125,2.5165005
	c-0.1567931,0.0001287-0.3016672-0.0836577-0.37975-0.2196252H3.7808752z"/>
</svg>
