<?xml version="1.0" encoding="utf-8"?>
<!-- 
  Copyright (c) 2021, WSO2 Inc. (http://www.wso2.com). All Rights Reserved.
 
 - This software is the property of WSO2 Inc. and its suppliers, if any.
 - Dissemination of any information or reproduction of any material contained
 - herein is strictly forbidden, unless permitted by WSO2 in accordance with
 - the WSO2 Commercial License available at http://wso2.com/licenses.
 - For specific language governing the permissions and limitations under
 - this license, please see the license as well as any agreement you’ve
 - entered into with WSO2 governing the purchase of this software and any
 - associated services.
 -->
<svg version="1.1" id="period-filled" x="0px"
	 y="0px" viewBox="0 0 14 14"  >
<path id="Combined_Shape" d="M6.562427,14L6.562427,14c-0.930829-0.0570135-1.8406882-0.3006353-2.6754661-0.7163773
	l0.648067-1.1218567c0.1204982-0.2096777,0.0482035-0.4773388-0.1614747-0.5978374
	c-0.0001807-0.000103-0.000361-0.0002069-0.0005417-0.0003099c-0.0663085-0.0382881-0.1414971-0.0585203-0.2180657-0.0586767
	c-0.156569-0.0004902-0.3014855,0.082653-0.3800828,0.2180653l-0.648067,1.1218567
	c-0.7777731-0.5153065-1.4444921-1.1811323-1.9608409-1.9582138l1.1236081-0.6480665
	c0.2102296-0.1195345,0.2837532-0.3868599,0.1642194-0.5970888C2.334249,9.4312649,2.0669231,9.3577414,1.8566936,9.4772749
	C1.8550161,9.4782286,1.8533449,9.4791946,1.8516802,9.4801693L0.728072,10.1291122
	C0.3101224,9.293725,0.0652639,8.3825054,0.0081922,7.4501433h1.2996372c0.2418362,0,0.4378831-0.1960468,0.4378831-0.4378829
	c0-0.2418365-0.1960469-0.4378834-0.4378831-0.4378834H0.0073164C0.0622984,5.6417537,0.3053823,4.7298913,0.7219417,3.893657
	L1.852556,4.5452271c0.2102294,0.1195335,0.4775555,0.04601,0.5970891-0.1642194
	C2.5680628,4.1727409,2.4971223,3.907974,2.2904391,3.7868133L1.1607007,3.1352432
	c0.5163897-0.7792726,1.1833664-1.4474404,1.9617165-1.9652195l0.6533215,1.1314902
	c0.0782182,0.135478,0.2227702,0.2189376,0.3792071,0.2189415c0.0762529,0.000911,0.1514211-0.0181077,0.2180657-0.0551734
	c0.209641-0.1205623,0.2818537-0.3882451,0.1612916-0.5978864C4.5342531,1.867308,4.5342026,1.8672208,4.5341525,1.8671335
	L3.8790791,0.7321404C4.7157173,0.3135163,5.6285658,0.0689182,6.562427,0.0131363v7.4300017h7.4352565
	c-0.0558214,0.9345198-0.300724,1.84799-0.7198811,2.6850996l-1.1244841-0.6498184
	c-0.0659399-0.0384092-0.1408796-0.0586548-0.2171898-0.0586767c-0.2418365,0.0003595-0.4375916,0.1966982-0.4372311,0.4385347
	c0.0002308,0.1555767,0.0829945,0.2993479,0.2174129,0.3776798l1.1236086,0.6489429
	c-0.516881,0.7771816-1.1838427,1.4432507-1.9617167,1.9590893l-0.647192-1.1227322
	c-0.0785961-0.1354122-0.2235136-0.2185555-0.3800821-0.2180653c-0.2418356,0.0004892-0.4374857,0.1969328-0.4369965,0.4387684
	c0.0001554,0.0765638,0.0203829,0.1517506,0.0586653,0.2180567l0.6480665,1.1218567
	c-0.836731,0.4172888-1.749135,0.661252-2.6824698,0.7172508v-1.2935066c0-0.2418365-0.1960473-0.4378834-0.4378834-0.4378834
	c-0.2418365,0-0.4378834,0.1960468-0.4378834,0.4378834v1.2935066V14z M13.9941807,6.5682468H7.4381938V0.0131363
	c0.9337993,0.0555086,1.8466449,0.2998078,2.6833482,0.7181284L9.4682198,1.8636304
	C9.346818,2.0727866,9.4179573,2.3407569,9.6271133,2.4621587c0.0666628,0.0386939,0.1423588,0.0591054,0.2194376,0.0591722
	c0.1567497,0.0003095,0.3017082-0.0831921,0.3800821-0.2189415l0.6524458-1.1314902
	c0.7789221,0.5173757,1.4462595,1.1856062,1.9625931,1.9652195L11.7110567,3.787689
	c-0.2099171,0.1200807-0.2827444,0.3875973-0.1626635,0.5975149c0.078414,0.1370773,0.2245626,0.221314,0.3824816,0.2204509
	c0.0766478-0.000423,0.1518421-0.0209579,0.2180653-0.0595517l1.1297388-0.6533217
	c0.4164295,0.8341551,0.659811,1.7439308,0.7155018,2.6745901V6.5682468z M7.2788038,0.007006H6.67978
	c0.0945826-0.0043788,0.2075562-0.0070061,0.3205304-0.0070061c0.0875769,0,0.1856623,0,0.2776184,0.0052546L7.2788038,0.007006z"/>
</svg>
