<svg width="16" height="16" viewBox="0 0 16 16" fill="none" xmlns="http://www.w3.org/2000/svg">
<rect width="16" height="16" fill="#E5E5E5"/>
<g id="Icon/Period filled" clip-path="url(#clip0_501_1732)">
<path id="Combined-Shape" d="M14.4998 8.50801H15.4998L15.5897 8.49996L15.9844 8.50003C15.9168 9.59625 15.6285 10.6327 15.1632 11.5656L13.879 10.825C13.6398 10.6869 13.334 10.7689 13.196 11.008C13.0732 11.2206 13.1243 11.4858 13.3052 11.6391L13.379 11.691L14.6608 12.4323C14.0707 13.3173 13.309 14.078 12.4231 14.6669L11.6828 13.3872C11.5447 13.148 11.2389 13.0661 10.9998 13.2042C10.7872 13.3269 10.6989 13.5821 10.7788 13.8053L10.8168 13.8872L11.5553 15.1685C10.6249 15.6308 9.59176 15.9174 8.49928 15.9847L8.4998 14.508C8.4998 14.2319 8.27594 14.008 7.9998 14.008C7.75434 14.008 7.55019 14.1849 7.50785 14.4181L7.4998 14.508L7.49932 15.9846C6.4072 15.9172 5.37438 15.6307 4.44427 15.1685L5.18281 13.8872L5.22077 13.8053C5.30073 13.5821 5.21237 13.3269 4.9998 13.2042C4.78722 13.0814 4.52199 13.1325 4.3687 13.3134L4.31679 13.3872L3.57648 14.6669C2.69065 14.078 1.92891 13.3173 1.33884 12.4323L2.62063 11.691L2.69444 11.6391C2.87527 11.4858 2.92638 11.2206 2.80365 11.008C2.68092 10.7954 2.42566 10.7071 2.2025 10.787L2.12063 10.825L0.83635 11.5656C0.37234 10.6351 0.0842661 9.6016 0.0156997 8.50853L1.4998 8.50801C1.77594 8.50801 1.9998 8.28415 1.9998 8.00801C1.9998 7.76255 1.82292 7.5584 1.58967 7.51607L1.4998 7.50801L0.0146484 7.50853C0.0809908 6.41388 0.367457 5.37863 0.830359 4.44649L2.12063 5.19102C2.35978 5.32909 2.66557 5.24716 2.80365 5.00801C2.92638 4.79544 2.87527 4.5302 2.69444 4.37691L2.62063 4.325L1.33087 3.57968C1.92071 2.69158 2.68322 1.92807 3.57049 1.33706L4.31679 2.62885C4.45486 2.86799 4.76065 2.94993 4.9998 2.81186C5.21237 2.68913 5.30073 2.43388 5.22077 2.21071L5.18281 2.12885L4.43725 0.835062C5.36931 0.370726 6.40475 0.0829091 7.4998 0.0153809L7.4998 0.497348V0.508011V1.50801V1.51735V8.50001L14.4099 8.49996L14.4998 8.50801ZM11.5623 0.835062L10.8168 2.12885L10.7788 2.21071C10.6989 2.43388 10.7872 2.68913 10.9998 2.81186C11.2124 2.93459 11.4776 2.88348 11.6309 2.70265L11.6828 2.62885L12.4291 1.33706C13.3164 1.92807 14.0789 2.69158 14.6687 3.57968L13.379 4.325L13.3052 4.37691C13.1243 4.5302 13.0732 4.79544 13.196 5.00801C13.3187 5.22059 13.5739 5.30895 13.7971 5.22898L13.879 5.19102L15.1692 4.44649C15.6309 5.37604 15.917 6.40812 15.9844 7.4994L8.4998 7.50001L8.5008 0.0154427C9.59548 0.0830847 10.6306 0.370868 11.5623 0.835062Z" fill="#40404B"/>
</g>
<defs>
<clipPath id="clip0_501_1732">
<rect width="16" height="16" fill="white"/>
</clipPath>
</defs>
</svg>
