<?xml version="1.0" encoding="utf-8"?>
<!-- 
  Copyright (c) 2021, WSO2 Inc. (http://www.wso2.com). All Rights Reserved.
 
 - This software is the property of WSO2 Inc. and its suppliers, if any.
 - Dissemination of any information or reproduction of any material contained
 - herein is strictly forbidden, unless permitted by WSO2 in accordance with
 - the WSO2 Commercial License available at http://wso2.com/licenses.
 - For specific language governing the permissions and limitations under
 - this license, please see the license as well as any agreement you’ve
 - entered into with WSO2 governing the purchase of this software and any
 - associated services.
 -->
<svg version="1.1" id="play" x="0px" y="0px" viewBox="0 0 14 14">
<g id="Rectangle">
	<path d="M2.2815478,0.9999952c0.0612102,0,0.1212902,0.0166597,0.1741202,0.0483999l9.436079,5.6635199
		c0.1594801,0.0956802,0.21138,0.3032804,0.1156702,0.4627905c-0.0283699,0.0472898-0.0683498,0.0872698-0.1156301,0.1156297
		l-9.4367399,5.6612401c-0.0534399,0.0321302-0.11148,0.04842-0.1725199,0.04842
		c-0.1201801,0-0.2287099-0.0611897-0.2903399-0.1637201c-0.0313501-0.0523596-0.04791-0.1122999-0.0478902-0.1737099V1.3375654
		c-0.00015-0.1859903,0.1510301-0.3374205,0.3362-0.3375702H2.2815478 M2.281544-0.0000048c-0.0003412,0-0.000705,0-0.0010462,0
		c-0.73856,0.0005999-1.3367999,0.5998096-1.3361999,1.3383799v11.3241901c-0.00009,0.2420902,0.06554,0.47966,0.18989,0.6873703
		c0.00032,0.0005302,0.0006399,0.00107,0.0009599,0.0016003c0.2508843,0.4173241,0.6935029,0.6484623,1.1473839,0.6484623
		c0.2345459,0,0.472101-0.0617237,0.6877561-0.1913729l9.4359398-5.6607599
		c0.1882401-0.1129303,0.3457794-0.2704701,0.4587097-0.4587102c0.3799801-0.6333199,0.1746101-1.4547601-0.4587097-1.8347402
		L2.9702878,0.1909752C2.7622802,0.0660009,2.5242-0.0000095,2.281544-0.0000048L2.281544-0.0000048z"/>
</g>
</svg>
