<?xml version="1.0" encoding="utf-8"?>
<!-- 
  Copyright (c) 2021, WSO2 Inc. (http://www.wso2.com). All Rights Reserved.
 
 - This software is the property of WSO2 Inc. and its suppliers, if any.
 - Dissemination of any information or reproduction of any material contained
 - herein is strictly forbidden, unless permitted by WSO2 in accordance with
 - the WSO2 Commercial License available at http://wso2.com/licenses.
 - For specific language governing the permissions and limitations under
 - this license, please see the license as well as any agreement you’ve
 - entered into with WSO2 governing the purchase of this software and any
 - associated services.
 -->
<svg version="1.1" id="plus" x="0px" y="0px" viewBox="0 0 14 14">
<path id="Combined_Shape-2" d="M13.4141016,7.5866227L7.5862603,7.5858979l0.0007243,5.8278413
	c0,0.3235826-0.2623153,0.5858984-0.5858979,0.5858984s-0.5858984-0.2623158-0.5858984-0.5858984c0,0,0,0,0,0L6.414464,7.5858979
	L0.5866226,7.5866222C0.2626399,7.5866222,0,7.3239827,0,7c0-0.3239827,0.2626399-0.5866227,0.5866226-0.5866227L6.414464,6.4141016
	L6.4137397,0.5862604c0-0.3235827,0.2623153-0.5858983,0.5858979-0.5858983c0.3235826,0,0.5858984,0.2623156,0.5858984,0.5858983
	l0.0007243,5.8278413l5.8278413-0.0007248C13.7376842,6.4133768,14,6.6756926,14,6.9992752
	s-0.2623158,0.5858984-0.5858984,0.5858984V7.5866227z"/>
</svg>
