<svg width="16" height="16" viewBox="0 0 16 16" fill="none" xmlns="http://www.w3.org/2000/svg">
<rect width="16" height="16" fill="#E5E5E5"/>
<g id="Icon/Plus">
<g id="Icon/Plus_2">
<path id="Combined Shape" fill-rule="evenodd" clip-rule="evenodd" d="M1.73797 7.42777C1.42193 7.42777 1.16574 7.68397 1.16574 8C1.16574 8.31603 1.42193 8.57223 1.73797 8.57223L7.42755 8.57223L7.42755 14.2618C7.42755 14.5778 7.68374 14.834 7.99978 14.834C8.31581 14.834 8.57201 14.5778 8.57201 14.2618V8.57223H14.2616C14.5776 8.57223 14.8338 8.31603 14.8338 8C14.8338 7.68397 14.5776 7.42777 14.2616 7.42777H8.57201L8.57201 1.73819C8.57201 1.42215 8.31581 1.16596 7.99978 1.16596C7.68374 1.16596 7.42755 1.42215 7.42755 1.73819L7.42755 7.42777L1.73797 7.42777Z" fill="#40404B"/>
<mask id="mask0_501_1732" style="mask-type:alpha" maskUnits="userSpaceOnUse" x="1" y="1" width="14" height="14">
<path id="Combined Shape_2" fill-rule="evenodd" clip-rule="evenodd" d="M1.73797 7.42777C1.42193 7.42777 1.16574 7.68397 1.16574 8C1.16574 8.31603 1.42193 8.57223 1.73797 8.57223L7.42755 8.57223L7.42755 14.2618C7.42755 14.5778 7.68374 14.834 7.99978 14.834C8.31581 14.834 8.57201 14.5778 8.57201 14.2618V8.57223H14.2616C14.5776 8.57223 14.8338 8.31603 14.8338 8C14.8338 7.68397 14.5776 7.42777 14.2616 7.42777H8.57201L8.57201 1.73819C8.57201 1.42215 8.31581 1.16596 7.99978 1.16596C7.68374 1.16596 7.42755 1.42215 7.42755 1.73819L7.42755 7.42777L1.73797 7.42777Z" fill="white"/>
</mask>
<g mask="url(#mask0_501_1732)">
</g>
</g>
</g>
</svg>
