<?xml version="1.0" encoding="utf-8"?>
<!-- 
  Copyright (c) 2021, WSO2 Inc. (http://www.wso2.com). All Rights Reserved.
 
 - This software is the property of WSO2 Inc. and its suppliers, if any.
 - Dissemination of any information or reproduction of any material contained
 - herein is strictly forbidden, unless permitted by WSO2 in accordance with
 - the WSO2 Commercial License available at http://wso2.com/licenses.
 - For specific language governing the permissions and limitations under
 - this license, please see the license as well as any agreement you’ve
 - entered into with WSO2 governing the purchase of this software and any
 - associated services.
 -->
<svg version="1.1" id="print" x="0px" y="0px" viewBox="0 0 14 14">
<path id="Combined_Shape" d="M4.2000003,14c-0.7731986,0-1.4000001-0.6268015-1.4000001-1.4000006l0,0v-1.3999996H1.4
	c-0.7731986,0-1.4-0.6268015-1.4-1.3999996c0,0,0,0,0,0V4.2000003C0,3.4268017,0.6268014,2.8,1.4,2.8l0,0h1.4V1.4
	C2.8,0.6268014,3.4268014,0,4.2000003,0c0,0,0,0,0,0h5.6000009c0.7731981,0,1.3999996,0.6268014,1.3999996,1.4
	c0,0.0000001,0-0.0000001,0,0v1.4h1.4000006C13.3731995,2.8000009,14,3.4268019,14,4.2000003v5.6000009
	c0,0.7731981-0.6268005,1.3999996-1.3999996,1.3999996c-0.000001,0-0.000001,0-0.000001,0h-1.3999996v1.4000006
	C11.1999989,13.3731995,10.5731983,14,9.8000002,14H4.2000003z M3.7318754,12.5999994
	c-0.0063508,0.2526598,0.1933217,0.4626293,0.4459815,0.4689798c0.00738,0.000186,0.0147629,0.0001926,0.0221434,0.000021h5.6000009
	c0.2531538,0.005867,0.4631329-0.1945992,0.4689999-0.4477539c0.000164-0.007082,0.000164-0.0141659,0-0.0212469V8.4000006
	H3.7327499L3.7318754,12.5999994z M10.7318754,7.4672494c0.2571783-0.0000072,0.4662018,0.2074547,0.4681244,0.4646254v2.3344998
	h1.4000006c0.2521877,0.0058565,0.4613752-0.1938343,0.4672318-0.446022
	c0.0001574-0.0067835,0.000164-0.0135689,0.0000191-0.0203524V4.2000003c0.005867-0.252188-0.1938152-0.4613829-0.4460039-0.4672501
	c-0.007081-0.0001647-0.0141659-0.0001647-0.0212469,0H1.4c-0.2521878-0.005867-0.4613827,0.193815-0.46725,0.4460027
	c-0.0001648,0.0070815-0.0001648,0.0141659,0,0.0212474v5.6000009c-0.0053837,0.2521982,0.1946993,0.46101,0.4468979,0.4663935
	c0.0067834,0.000145,0.013569,0.0001383,0.020352-0.0000191H2.8V7.9301248
	C2.8019197,7.673295,3.0104136,7.4659729,3.2672501,7.4654999L10.7318754,7.4672494z M3.7318754,1.4017494V2.8h6.5327501V1.4
	c0.005867-0.2521878-0.1938152-0.4613827-0.446003-0.46725c-0.007081-0.0001648-0.0141659-0.0001648-0.0212469,0H4.2000003
	C3.9478016,0.9273663,3.7389898,1.1274493,3.7336059,1.3796479C3.7334611,1.3864312,3.7334676,1.393217,3.7336252,1.4
	L3.7318754,1.4017494z M2.9365001,5.462625C2.7533486,5.2801485,2.7528019,4.9837484,2.9352784,4.8005977
	C3.1177549,4.6174464,3.4141548,4.6168995,3.5973063,4.799376C3.780457,4.9818521,3.781004,5.2782521,3.5985274,5.4614034
	c-0.0879686,0.088294-0.2075157,0.1378622-0.3321524,0.1377215C3.1426647,5.5991774,3.0240023,5.5500755,2.9365001,5.462625z"/>
</svg>
