<svg width="16" height="16" viewBox="0 0 16 16" fill="none" xmlns="http://www.w3.org/2000/svg">
<rect width="16" height="16" fill="#E5E5E5"/>
<g id="Icon/Project">
<path id="Union" fill-rule="evenodd" clip-rule="evenodd" d="M2.51179 4.28796L7.50009 1.43769V4.5C7.50009 4.77614 7.72394 5 8.00009 5C8.27623 5 8.50009 4.77614 8.50009 4.5V1.43724L13.4884 4.28792L8.00009 7.42412L2.51179 4.28796ZM8.00055 0L14.6923 3.82411C14.7307 3.84007 14.7673 3.86086 14.8009 3.88619L15.0001 4V4.27601C15.0002 4.28218 15.0002 4.28834 15.0001 4.2945V12L8.00055 16L1.00009 12V4.2945C0.999972 4.28834 0.999971 4.28218 1.00009 4.27601V4L1.19916 3.88625C1.2329 3.86086 1.26952 3.84003 1.30802 3.82405L8.00055 0ZM8.50009 8.29016L14.0001 5.1473V10.8525L11.7484 9.56587C11.5086 9.42887 11.2032 9.51218 11.0662 9.75194C10.9292 9.99171 11.0125 10.2971 11.2523 10.4341L13.4887 11.712L8.50009 14.5628V8.29016ZM7.50009 8.29016V14.5623L2.51198 11.7122L4.7484 10.4341C4.98815 10.2971 5.07144 9.99167 4.93443 9.75192C4.79742 9.51216 4.49199 9.42887 4.25223 9.56589L2.00009 10.8529V5.1473L7.50009 8.29016Z" fill="#40404B"/>
</g>
</svg>
