<?xml version="1.0" encoding="utf-8"?>
<!-- 
  Copyright (c) 2021, WSO2 Inc. (http://www.wso2.com). All Rights Reserved.
 
 - This software is the property of WSO2 Inc. and its suppliers, if any.
 - Dissemination of any information or reproduction of any material contained
 - herein is strictly forbidden, unless permitted by WSO2 in accordance with
 - the WSO2 Commercial License available at http://wso2.com/licenses.
 - For specific language governing the permissions and limitations under
 - this license, please see the license as well as any agreement you’ve
 - entered into with WSO2 governing the purchase of this software and any
 - associated services.
 -->
<svg version="1.1" id="promote" x="0px" y="0px" viewBox="0 0 14 14">
<path id="Combined_Shape" d="M8.1503258,1.151311c-0.1797528-0.1796982-0.4711323-0.1796982-0.6508846,0
	C7.342289,1.3081173,7.3194456,1.5547493,7.4451241,1.7377516l0.054317,0.0635234l4.7393961,4.7384758H0.9206287V5.1588078
	c0-0.2542248-0.2060897-0.4603143-0.4603143-0.4603143C0.2379896,4.6984191,0.0473835,4.8572574,0.007365,5.0759511L0,5.1588078
	v3.6825142c0,0.2542248,0.2060897,0.4603148,0.4603143,0.4603148c0.2219775-0.00037,0.4120729-0.1591053,0.4520287-0.3774576
	l0.0082856-0.0828571V7.4603796h11.3172884l-4.737555,4.7375546c-0.1576519,0.1569424-0.1805143,0.40417-0.054317,0.5873623
	l0.054317,0.0635233c0.1570401,0.1568594,0.4036531,0.1793137,0.5864406,0.0533962l0.0635233-0.0533962L14,7.0000648
	L8.1503258,1.151311z"/>
</svg>
