<svg width="16" height="16" viewBox="0 0 16 16" fill="none" xmlns="http://www.w3.org/2000/svg">
<rect width="16" height="16" fill="#E5E5E5"/>
<g id="Icon/Promote">
<g id="Icon/Promote_2">
<path id="Combined Shape" fill-rule="evenodd" clip-rule="evenodd" d="M0.896484 10.6036C0.620342 10.6036 0.396484 10.3797 0.396484 10.1036L0.396484 6.10358L0.40454 6.0137C0.446876 5.78045 0.651024 5.60358 0.896484 5.60358C1.17263 5.60358 1.39648 5.82743 1.39648 6.10358L1.39648 7.60358L13.6895 7.60358L8.54293 2.45713L8.48508 2.38788C8.35008 2.19301 8.36936 1.92359 8.54293 1.75002C8.73819 1.55476 9.05478 1.55476 9.25004 1.75002L15.6036 8.10358L9.25004 14.4571L9.18079 14.515C8.98592 14.65 8.7165 14.6307 8.54293 14.4571L8.48508 14.3879C8.35008 14.193 8.36936 13.9236 8.54293 13.75L13.6895 8.60358H1.39648V10.1036L1.38843 10.1935C1.34609 10.4267 1.14194 10.6036 0.896484 10.6036Z" fill="#40404B"/>
</g>
</g>
</svg>
