<?xml version="1.0" encoding="utf-8"?>
<!-- 
  Copyright (c) 2021, WSO2 Inc. (http://www.wso2.com). All Rights Reserved.
 
 - This software is the property of WSO2 Inc. and its suppliers, if any.
 - Dissemination of any information or reproduction of any material contained
 - herein is strictly forbidden, unless permitted by WSO2 in accordance with
 - the WSO2 Commercial License available at http://wso2.com/licenses.
 - For specific language governing the permissions and limitations under
 - this license, please see the license as well as any agreement you’ve
 - entered into with WSO2 governing the purchase of this software and any
 - associated services.
 -->
<svg version="1.1" id="rate" x="0px" y="0px" viewBox="0 0 14 14">
<g id="Star">
	<path d="M6.9991961,3.0980558L7.9331388,5.49687l0.2331409,0.5988197l0.6415491,0.0367298l2.5707712,0.1472025l-1.9934111,1.630218
		L8.8877392,8.3166504l0.1633606,0.6215l0.6542358,2.4890747L7.5402193,10.03549l-0.54072-0.34758l-0.54072,0.34758
		L4.293138,11.4275627l0.6539311-2.4895725l0.1632099-0.6213398L4.6130295,7.9099102L2.6194715,6.2792149l2.5709977-0.1476746
		l0.6412702-0.0368299L6.064909,5.4961996L6.9991961,3.0980558 M6.9994993,0.3425598L5.1331291,5.1331902l-5.1336298,0.2948694
		l3.9803801,3.2558804l-1.3063803,4.9735003l4.3260002-2.7807503l4.3260002,2.7807503l-1.30725-4.9735003l3.9812498-3.2558804
		L8.8649998,5.1340599L6.9994993,0.3425598L6.9994993,0.3425598z"/>
</g>
</svg>
