<svg width="16" height="16" viewBox="0 0 16 16" fill="none" xmlns="http://www.w3.org/2000/svg">
<rect width="16" height="16" fill="#E5E5E5"/>
<g id="Icon/Add/Receive">
<path id="Combined-Shape" d="M14.2471 1C13.8329 1 13.4971 1.33579 13.4971 1.75V14.25C13.4971 14.6642 13.8329 15 14.2471 15C14.6613 15 14.9971 14.6642 14.9971 14.25V1.75C14.9971 1.33579 14.6613 1 14.2471 1ZM6.71289 1.5885L6.64363 1.64633L0.289964 7.99598L6.6434 14.3534C6.83861 14.5488 7.15519 14.5489 7.35051 14.3537C7.52413 14.1802 7.5435 13.9107 7.40857 13.7158L7.35074 13.6466L2.20407 8.496L11.9544 8.5C12.2305 8.5001 12.4545 8.27631 12.4545 8.00017C12.4545 7.75471 12.2778 7.5505 12.0446 7.50809L11.9547 7.5L2.20407 7.496L7.35051 2.35367C7.52413 2.18015 7.5435 1.91074 7.40857 1.71582L7.35074 1.64656C7.19891 1.49464 6.97366 1.46082 6.78915 1.54513L6.71289 1.5885Z" fill="#40404B"/>
</g>
</svg>
