<svg width="16" height="16" viewBox="0 0 16 16" fill="none" xmlns="http://www.w3.org/2000/svg">
<rect width="16" height="16" fill="#E5E5E5"/>
<g id="Icon/Refresh" clip-path="url(#clip0_501_1732)">
<path id="Union" fill-rule="evenodd" clip-rule="evenodd" d="M14.9995 8C14.9995 11.866 11.8655 15 7.99953 15C4.13354 15 0.999529 11.866 0.99953 8C0.99953 4.13401 4.13354 0.999999 7.99953 0.999999C10.3147 1 12.3679 2.12374 13.6426 3.8572L12.1093 3.5122C11.8399 3.45158 11.5723 3.62084 11.5117 3.89024C11.4511 4.15965 11.6204 4.42719 11.8898 4.48781L14.7472 5.13073L15.235 5.24048L15.3448 4.75268L15.9877 1.89524C16.0483 1.62583 15.8791 1.35829 15.6096 1.29768C15.3402 1.23706 15.0727 1.40632 15.0121 1.67573L14.6049 3.48552C13.1643 1.38173 10.7436 -4.59533e-07 7.99953 -6.99423e-07C3.58125 -1.08568e-06 -0.000470029 3.58172 -0.000470416 8C-0.000470802 12.4183 3.58125 16 7.99953 16C12.4178 16 15.9995 12.4183 15.9995 8C15.9995 7.72386 15.7757 7.5 15.4995 7.5C15.2234 7.5 14.9995 7.72386 14.9995 8Z" fill="#40404B"/>
</g>
<defs>
<clipPath id="clip0_501_1732">
<rect width="16" height="16" fill="white"/>
</clipPath>
</defs>
</svg>
