<?xml version="1.0" encoding="utf-8"?>
<!-- 
  Copyright (c) 2021, WSO2 Inc. (http://www.wso2.com). All Rights Reserved.
 
 - This software is the property of WSO2 Inc. and its suppliers, if any.
 - Dissemination of any information or reproduction of any material contained
 - herein is strictly forbidden, unless permitted by WSO2 in accordance with
 - the WSO2 Commercial License available at http://wso2.com/licenses.
 - For specific language governing the permissions and limitations under
 - this license, please see the license as well as any agreement you’ve
 - entered into with WSO2 governing the purchase of this software and any
 - associated services.
 -->
<svg version="1.1" id="refersh" x="0px" y="0px" viewBox="0 0 14 14">
<path id="Combined_Shape" d="M1.3619001,9.9664488C0.2869724,6.8446321,1.9463034,3.4424989,5.06812,2.3675711
	c1.8146653-0.6264267,3.8198433-0.3422031,5.388938,0.7638538L9.7603321,0.5387469
	c-0.0543995-0.200313,0.0431252-0.4107307,0.2311344-0.4986922l0.0726757-0.0250242
	c0.1997271-0.054334,0.4096622,0.0423951,0.4981356,0.2295193l0.0250244,0.0726757l1.0495186,3.9136858l-3.9134336,1.047626
	c-0.2277765,0.0611262-0.461978-0.0739708-0.5231037-0.3017468C7.200171,4.9763722,7.2000594,4.9759536,7.1999483,4.9755349
	c-0.0533395-0.1990666,0.0431089-0.4078264,0.2292681-0.496243l0.073483-0.0253024l2.4207969-0.6528981
	C8.5841436,2.8762422,6.8846631,2.6438146,5.3461671,3.1750782C2.6703246,4.0964446,1.2480404,7.0125589,2.1694069,9.6884012
	s3.837481,4.0981264,6.5133238,3.1767597c1.244833-0.426568,2.2768021-1.3174591,2.8804884-2.4867039
	c0.2980509-0.574935,0.4848557-1.2009821,0.5505962-1.8452358c0.0234003-0.2346716,0.2326088-0.405942,0.4672813-0.3825407
	c0.0002604,0.0000257,0.0005217,0.0000525,0.000782,0.0000782c0.2343121,0.0239925,0.4049501,0.2331791,0.3813772,0.4675341
	c-0.0763254,0.7516537-0.2939939,1.4821167-0.641551,2.1529474c-0.7048254,1.3639011-1.9087543,2.4032316-3.3609276,2.9014282
	C5.8389606,14.7475958,2.4368279,13.0882654,1.3619001,9.9664488z"/>
</svg>
