<?xml version="1.0" encoding="utf-8"?>
<!-- 
  Copyright (c) 2021, WSO2 Inc. (http://www.wso2.com). All Rights Reserved.
 
 - This software is the property of WSO2 Inc. and its suppliers, if any.
 - Dissemination of any information or reproduction of any material contained
 - herein is strictly forbidden, unless permitted by WSO2 in accordance with
 - the WSO2 Commercial License available at http://wso2.com/licenses.
 - For specific language governing the permissions and limitations under
 - this license, please see the license as well as any agreement you’ve
 - entered into with WSO2 governing the purchase of this software and any
 - associated services.
 -->
<svg version="1.1" id="regenerate" x="0px" y="0px" viewBox="0 0 14 14">
<path id="Combined_Shape" d="M13.7,5C12.6,1.8,9,0.1,5.8,1.2C4,1.8,2.5,3.3,1.9,5.2L0.8,2.7C0.8,2.5,0.6,2.4,0.3,2.4l-0.1,0
	C0.1,2.5,0,2.7,0,2.9L0,3l1.6,3.8l3.8-1.6c0.2-0.1,0.3-0.4,0.2-0.6c0,0,0,0,0,0C5.7,4.4,5.5,4.3,5.2,4.4l-0.1,0l-2.4,1
	C3.3,3.8,4.5,2.5,6.1,2c2.8-1,5.8,0.5,6.7,3.3c1,2.8-0.5,5.8-3.3,6.7c-1.3,0.4-2.7,0.4-3.9-0.2C5,11.5,4.5,11.1,4,10.7
	c-0.2-0.2-0.4-0.2-0.6,0c0,0,0,0,0,0c-0.2,0.2-0.2,0.4,0,0.6c0.5,0.6,1.2,1,1.9,1.3c1.4,0.7,3.1,0.7,4.6,0.2
	C13.1,11.7,14.8,8.2,13.7,5z"/>
</svg>
