<?xml version="1.0" encoding="utf-8"?>
<!-- 
  Copyright (c) 2021, WSO2 Inc. (http://www.wso2.com). All Rights Reserved.
 
 - This software is the property of WSO2 Inc. and its suppliers, if any.
 - Dissemination of any information or reproduction of any material contained
 - herein is strictly forbidden, unless permitted by WSO2 in accordance with
 - the WSO2 Commercial License available at http://wso2.com/licenses.
 - For specific language governing the permissions and limitations under
 - this license, please see the license as well as any agreement you’ve
 - entered into with WSO2 governing the purchase of this software and any
 - associated services.
 -->
<svg version="1.1" id="reload" x="0px" y="0px" viewBox="0 0 14 14">
<path id="Combined_Shape" d="M4.1,12.6c-1.2-0.6-2.2-1.7-2.8-2.9l-0.4,2.6c0,0.2-0.2,0.4-0.4,0.4l-0.1,0c-0.2,0-0.4-0.2-0.4-0.4
	l0-0.1l0.7-4.2l4.2,0.7c0.2,0,0.4,0.2,0.4,0.5c0,0.2-0.2,0.4-0.5,0.4l-0.1,0L2,9c1.1,2.8,4.2,4.1,6.9,3c1.5-0.6,2.7-1.8,3.2-3.3
	c0.1-0.2,0.3-0.4,0.6-0.3C12.9,8.5,13,8.7,12.9,9c-1.1,3.3-4.6,5.1-7.9,4C4.7,12.9,4.4,12.7,4.1,12.6L4.1,12.6z M9.2,5.5
	C8.9,5.5,8.7,5.3,8.7,5c0-0.2,0.2-0.4,0.5-0.4l0.1,0L11.9,5c-1-2.5-3.7-3.9-6.3-3.2C3.8,2.3,2.4,3.7,1.9,5.4
	C1.8,5.6,1.5,5.8,1.3,5.7C1.1,5.6,0.9,5.4,1,5.1c0.6-2,2.3-3.6,4.4-4.1c3-0.8,6.1,0.7,7.3,3.5l0.4-2.7c0-0.2,0.2-0.4,0.4-0.4l0.1,0
	c0.2,0,0.4,0.2,0.4,0.4L14,2l-0.7,4.2L9.2,5.5z"/>
</svg>
