<svg width="16" height="16" viewBox="0 0 16 16" fill="none" xmlns="http://www.w3.org/2000/svg">
<rect width="16" height="16" fill="#E5E5E5"/>
<g id="Icon/Report">
<g id="Icon/Report_2">
<path id="Combined Shape" fill-rule="evenodd" clip-rule="evenodd" d="M11 0C12.1046 0 13 0.89543 13 2V5.34141C12.6784 5.22773 12.3442 5.1407 12 5.08296V2C12 1.48716 11.614 1.06449 11.1166 1.00673L11 1H2C1.48716 1 1.06449 1.38604 1.00673 1.88338L1 2V14C1 14.5128 1.38604 14.9355 1.88338 14.9933L2 15H6.52779C6.86799 15.3801 7.25594 15.7166 7.68221 16H2C0.89543 16 0 15.1046 0 14V2C0 0.89543 0.89543 0 2 0H11ZM3.5 4C3.22386 4 3 4.22386 3 4.5C3 4.77614 3.22386 5 3.5 5H7.5C7.77614 5 8 4.77614 8 4.5C8 4.22386 7.77614 4 7.5 4H3.5ZM3 7.5C3 7.22386 3.22386 7 3.5 7H4.5C4.77614 7 5 7.22386 5 7.5C5 7.77614 4.77614 8 4.5 8H3.5C3.22386 8 3 7.77614 3 7.5ZM3.5 10C3.22386 10 3 10.2239 3 10.5C3 10.7761 3.22386 11 3.5 11C3.77614 11 4 10.7761 4 10.5C4 10.2239 3.77614 10 3.5 10ZM11 6C8.23858 6 6 8.23858 6 11C6 13.7614 8.23858 16 11 16C13.7614 16 16 13.7614 16 11C16 8.23858 13.7614 6 11 6ZM11.4919 8.91012C11.4496 8.67688 11.2455 8.5 11 8.5C10.7239 8.5 10.5 8.72386 10.5 9V11.7888L9.71766 11L9.64841 10.9421C9.45354 10.8071 9.18412 10.8264 9.01055 11C8.81529 11.1953 8.81529 11.5118 9.01055 11.7071L10.6207 13.3258C10.6366 13.3443 10.6538 13.3616 10.6722 13.3775L11 13.7071L13.0122 11.7071L13.07 11.6379C13.205 11.443 13.1858 11.1736 13.0122 11L12.9429 10.9421C12.7481 10.8071 12.4787 10.8264 12.3051 11L11.5 11.7976V9L11.4919 8.91012Z" fill="#40404B"/>
<mask id="mask0_501_1732" style="mask-type:alpha" maskUnits="userSpaceOnUse" x="0" y="0" width="16" height="16">
<path id="Combined Shape_2" fill-rule="evenodd" clip-rule="evenodd" d="M11 0C12.1046 0 13 0.89543 13 2V5.34141C12.6784 5.22773 12.3442 5.1407 12 5.08296V2C12 1.48716 11.614 1.06449 11.1166 1.00673L11 1H2C1.48716 1 1.06449 1.38604 1.00673 1.88338L1 2V14C1 14.5128 1.38604 14.9355 1.88338 14.9933L2 15H6.52779C6.86799 15.3801 7.25594 15.7166 7.68221 16H2C0.89543 16 0 15.1046 0 14V2C0 0.89543 0.89543 0 2 0H11ZM3.5 4C3.22386 4 3 4.22386 3 4.5C3 4.77614 3.22386 5 3.5 5H7.5C7.77614 5 8 4.77614 8 4.5C8 4.22386 7.77614 4 7.5 4H3.5ZM3 7.5C3 7.22386 3.22386 7 3.5 7H4.5C4.77614 7 5 7.22386 5 7.5C5 7.77614 4.77614 8 4.5 8H3.5C3.22386 8 3 7.77614 3 7.5ZM3.5 10C3.22386 10 3 10.2239 3 10.5C3 10.7761 3.22386 11 3.5 11C3.77614 11 4 10.7761 4 10.5C4 10.2239 3.77614 10 3.5 10ZM11 6C8.23858 6 6 8.23858 6 11C6 13.7614 8.23858 16 11 16C13.7614 16 16 13.7614 16 11C16 8.23858 13.7614 6 11 6ZM11.4919 8.91012C11.4496 8.67688 11.2455 8.5 11 8.5C10.7239 8.5 10.5 8.72386 10.5 9V11.7888L9.71766 11L9.64841 10.9421C9.45354 10.8071 9.18412 10.8264 9.01055 11C8.81529 11.1953 8.81529 11.5118 9.01055 11.7071L10.6207 13.3258C10.6366 13.3443 10.6538 13.3616 10.6722 13.3775L11 13.7071L13.0122 11.7071L13.07 11.6379C13.205 11.443 13.1858 11.1736 13.0122 11L12.9429 10.9421C12.7481 10.8071 12.4787 10.8264 12.3051 11L11.5 11.7976V9L11.4919 8.91012Z" fill="white"/>
</mask>
<g mask="url(#mask0_501_1732)">
</g>
</g>
</g>
</svg>
