<?xml version="1.0" encoding="utf-8"?>
<!-- 
  Copyright (c) 2021, WSO2 Inc. (http://www.wso2.com). All Rights Reserved.
 
 - This software is the property of WSO2 Inc. and its suppliers, if any.
 - Dissemination of any information or reproduction of any material contained
 - herein is strictly forbidden, unless permitted by WSO2 in accordance with
 - the WSO2 Commercial License available at http://wso2.com/licenses.
 - For specific language governing the permissions and limitations under
 - this license, please see the license as well as any agreement you’ve
 - entered into with WSO2 governing the purchase of this software and any
 - associated services.
 -->
<svg version="1.1" id="report" x="0px" y="0px" viewBox="0 0 14 14">
<path id="Combined_Shape-2" d="M5.25,9.625c0-2.4162459,1.9587541-4.375,4.375-4.375S14,7.2087541,14,9.625S12.0412464,14,9.625,14
	C7.2099538,13.9971066,5.2528925,12.0400457,5.25,9.625z M7.8846245,9.625c-0.1707916,0.1708431-0.1707916,0.4477816,0,0.6186247
	l1.4104996,1.418375c0.0132771,0.0155449,0.0276022,0.0301619,0.0428753,0.0437508l0.2878752,0.2887497l1.7605-1.75
	l0.0507498-0.0594997C11.5580578,10.0105305,11.5362911,9.7744207,11.3855,9.625l-0.0603752-0.0507498
	c-0.1747961-0.122654-0.4125986-0.101203-0.5626249,0.0507498L10.0625,10.3249998V7.875l-0.007-0.0787501
	C10.0124512,7.5584908,9.784812,7.4006476,9.5470524,7.443696C9.3385811,7.481442,9.1871109,7.6631384,9.1875,7.875v2.4394999
	L8.5023746,9.625L8.4419994,9.5742502C8.2682714,9.4545727,8.0338812,9.475914,7.8846245,9.625z M6.7191248,14H1.75
	C0.7835017,14,0,13.2164984,0,12.25V1.75C0,0.7835017,0.7835017,0,1.75,0h7.875c0.9664984,0,1.75,0.7835017,1.75,1.75v2.9242501
	c-0.2846851-0.1000972-0.5774221-0.1756234-0.875-0.22575V1.75c-0.0000582-0.443603-0.3320684-0.8169736-0.772625-0.868875
	L9.625,0.875H1.75C1.3061001,0.8751106,0.9326173,1.2075968,0.881125,1.6485001L0.875,1.75v10.5
	c0.0001106,0.4439001,0.3325968,0.8173828,0.7735001,0.8688755L1.75,13.125h3.9628749
	C6.0102005,13.4581127,6.3486147,13.7521296,6.7199998,14l0,0H6.7191248z M2.625,9.1875c0-0.2416248,0.1958754-0.4375,0.4375-0.4375
	S3.5,8.9458752,3.5,9.1875S3.3041246,9.625,3.0625,9.625S2.625,9.4291248,2.625,9.1875z M3.0625,7
	C2.8208754,7,2.625,6.8041248,2.625,6.5625S2.8208754,6.125,3.0625,6.125h0.875c0.2416248,0,0.4375,0.1958752,0.4375,0.4375
	S4.1791248,7,3.9375,7H3.0625z M3.0625,4.375c-0.2416246,0-0.4375-0.1958752-0.4375-0.4375S2.8208754,3.5,3.0625,3.5h3.5
	C6.8041248,3.5,7,3.6958752,7,3.9375S6.8041248,4.375,6.5625,4.375H3.0625z"/>
</svg>
