<?xml version="1.0" encoding="utf-8"?>
<!-- 
  Copyright (c) 2021, WSO2 Inc. (http://www.wso2.com). All Rights Reserved.
 
 - This software is the property of WSO2 Inc. and its suppliers, if any.
 - Dissemination of any information or reproduction of any material contained
 - herein is strictly forbidden, unless permitted by WSO2 in accordance with
 - the WSO2 Commercial License available at http://wso2.com/licenses.
 - For specific language governing the permissions and limitations under
 - this license, please see the license as well as any agreement you’ve
 - entered into with WSO2 governing the purchase of this software and any
 - associated services.
 -->
<svg version="1.1" id="restore" x="0px" y="0px" viewBox="0 0 14 14">
<path id="Combined_Shape" d="M3.5,13.1c-1.8-1-3-2.8-3.4-4.8C0,8,0.2,7.8,0.4,7.7S0.9,7.8,1,8.1C1.6,11.4,4.8,13.6,8,13
	c3.3-0.6,5.5-3.8,4.9-7.1S9.2,0.4,5.9,1C4.2,1.3,2.7,2.3,1.8,3.8h1.6l0.1,0c0.3,0,0.4,0.3,0.4,0.5c0,0.2-0.2,0.4-0.5,0.4H0V1.5
	l0-0.1C0.1,1.2,0.3,1,0.5,1l0.1,0C0.8,1.1,1,1.3,1,1.5v1.9C3,0,7.3-1,10.6,1s4.3,6.3,2.3,9.6C10.9,13.9,6.7,15,3.5,13.1z M9,10.4
	L9,10.4L6.6,8.1V2.6c0-0.2,0.2-0.4,0.4-0.4c0.2,0,0.4,0.2,0.4,0.4l0,0.1v5.1l2.1,2.1c0.1,0.1,0.2,0.4,0.1,0.6l-0.1,0.1
	C9.4,10.5,9.2,10.5,9,10.4L9,10.4z"/>
</svg>
