<?xml version="1.0" encoding="utf-8"?>
<!-- 
  Copyright (c) 2021, WSO2 Inc. (http://www.wso2.com). All Rights Reserved.
 
 - This software is the property of WSO2 Inc. and its suppliers, if any.
 - Dissemination of any information or reproduction of any material contained
 - herein is strictly forbidden, unless permitted by WSO2 in accordance with
 - the WSO2 Commercial License available at http://wso2.com/licenses.
 - For specific language governing the permissions and limitations under
 - this license, please see the license as well as any agreement you’ve
 - entered into with WSO2 governing the purchase of this software and any
 - associated services.
 -->
<svg version="1.1" id="restart" x="0px" y="0px" viewBox="0 0 14 14">
<path id="Combined_Shape" d="M0.8517823,7.8493323C0.8421637,6.2253132,1.4755017,4.6634555,2.6135039,3.5047998
	l-1.117764-0.0375206C1.2672824,3.4579914,1.0783246,3.2863116,1.0472382,3.0597885L1.0428754,2.9725313
	c0.0064564-0.2289217,0.1751579-0.4207282,0.4013828-0.4563546l0.0872571-0.0043631l2.7634332,0.0942378L4.171916,5.3860636
	C4.1648698,5.6412649,3.9568925,5.8449979,3.7016003,5.8467813H3.6858938
	C3.4574356,5.8367295,3.2687569,5.6649361,3.2373922,5.4384179L3.2330294,5.351161l0.0558445-1.1666279
	C1.254118,6.2225428,1.2567556,9.5241718,3.2947655,11.5589275s5.3396387,2.0321178,7.3743944-0.0058908
	s2.0321188-5.3396387-0.0058918-7.3743949c-0.147049-0.1468148-0.302742-0.284708-0.4662466-0.4129429
	C9.988596,3.60185,9.9524603,3.3000624,10.1163082,3.0916376c0.1638489-0.2084253,0.4656363-0.2445617,0.6740618-0.080713l0,0
	c2.6734276,2.0934079,3.1436272,5.9576921,1.0502186,8.6311207s-5.9576921,3.1436262-8.6311197,1.0502186
	C1.7206208,11.526432,0.8510867,9.7403193,0.8517823,7.8493323z M6.529604,5.4576144L6.5234957,5.3790832V0.4761049
	C6.5256,0.2110639,6.7421637-0.0020886,7.007205,0.0000154C7.2393742,0.0018585,7.4369302,0.1696387,7.4763436,0.398446
	l0.0069804,0.0776589v4.9029784c0.0012374,0.2650466-0.2126226,0.4809117-0.4776692,0.4821486
	C6.7692094,5.8623352,6.5671921,5.6910558,6.529604,5.4576144z"/>
</svg>
