<svg width="16" height="17" viewBox="0 0 16 17" fill="none" xmlns="http://www.w3.org/2000/svg">
<rect width="16" height="17" fill="#E5E5E5"/>
<g id="Icon/Restart">
<g id="Icon/Restart_2">
<path id="Combined Shape" fill-rule="evenodd" clip-rule="evenodd" d="M8.54264 0.460787C8.50002 0.199457 8.27322 0 7.99984 0C7.69608 0 7.44984 0.246243 7.44984 0.55V6.16894L7.45704 6.25816C7.49966 6.51949 7.72646 6.71894 7.99984 6.71894C8.3036 6.71894 8.54984 6.4727 8.54984 6.16894V0.55L8.54264 0.460787ZM4.8933 2.99164L4.75563 6.17627C4.74508 6.47851 4.49559 6.7151 4.19839 6.70473C3.93421 6.6955 3.72125 6.49424 3.6846 6.23736L3.67937 6.13869L3.73108 5.05089C2.79871 6.11479 2.26895 7.50453 2.26895 9C2.26895 12.2861 4.93285 14.95 8.21895 14.95C11.505 14.95 14.1689 12.2861 14.1689 9C14.1689 7.15691 13.3124 5.44661 11.8791 4.32022C11.6403 4.13253 11.5988 3.78677 11.7865 3.54794C11.9742 3.30911 12.32 3.26765 12.5588 3.45534C14.2537 4.78735 15.2689 6.81445 15.2689 9C15.2689 12.8936 12.1126 16.05 8.21895 16.05C4.32534 16.05 1.16895 12.8936 1.16895 9C1.16895 7.09306 1.90268 5.32366 3.18084 4.02796L1.68797 3.97794C1.42379 3.96871 1.21083 3.76745 1.17418 3.51057L1.16895 3.4119C1.17833 3.14325 1.37649 2.92646 1.62915 2.88889L1.72619 2.88345L4.8933 2.99164Z" fill="#40404B"/>
</g>
</g>
</svg>
