<svg width="16" height="16" viewBox="0 0 16 16" fill="none" xmlns="http://www.w3.org/2000/svg">
<rect width="16" height="16" fill="#E5E5E5"/>
<g id="Icon/Add/Return" clip-path="url(#clip0_501_1732)">
<path id="Combined-Shape" d="M8 0C12.4183 0 16 3.58172 16 8C16 12.4183 12.4183 16 8 16C3.58172 16 0 12.4183 0 8C0 3.58172 3.58172 0 8 0ZM8 1C4.13401 1 1 4.13401 1 8C1 11.866 4.13401 15 8 15C11.866 15 15 11.866 15 8C15 4.13401 11.866 1 8 1ZM7.53033 3.96967C7.7966 4.23594 7.8208 4.6526 7.60295 4.94621L7.53033 5.03033L4.561 8L7.53033 10.9697C7.7966 11.2359 7.8208 11.6526 7.60295 11.9462L7.53033 12.0303C7.26406 12.2966 6.8474 12.3208 6.55379 12.1029L6.46967 12.0303L2.43934 8L6.46967 3.96967C6.76256 3.67678 7.23744 3.67678 7.53033 3.96967ZM12.0303 3.96967C12.2966 4.23594 12.3208 4.6526 12.1029 4.94621L12.0303 5.03033L9.061 8L12.0303 10.9697C12.2966 11.2359 12.3208 11.6526 12.1029 11.9462L12.0303 12.0303C11.7641 12.2966 11.3474 12.3208 11.0538 12.1029L10.9697 12.0303L6.93934 8L10.9697 3.96967C11.2626 3.67678 11.7374 3.67678 12.0303 3.96967Z" fill="#40404B"/>
</g>
<defs>
<clipPath id="clip0_501_1732">
<rect width="16" height="16" fill="white"/>
</clipPath>
</defs>
</svg>
