<?xml version="1.0" encoding="utf-8"?>
<!-- 
  Copyright (c) 2021, WSO2 Inc. (http://www.wso2.com). All Rights Reserved.
 
 - This software is the property of WSO2 Inc. and its suppliers, if any.
 - Dissemination of any information or reproduction of any material contained
 - herein is strictly forbidden, unless permitted by WSO2 in accordance with
 - the WSO2 Commercial License available at http://wso2.com/licenses.
 - For specific language governing the permissions and limitations under
 - this license, please see the license as well as any agreement you’ve
 - entered into with WSO2 governing the purchase of this software and any
 - associated services.
 -->
<svg version="1.1" id="revision" x="0px" y="0px" viewBox="0 0 14 14">
<path id="Combined_Shape" d="M1,10.7v1.9c0,0.2-0.2,0.4-0.4,0.5l-0.1,0c-0.2,0-0.4-0.2-0.5-0.4l0-0.1V9.3h3.3c0.3,0,0.5,0.2,0.5,0.5
	c0,0.2-0.2,0.4-0.4,0.5l-0.1,0H1.8c1.8,2.8,5.5,3.7,8.4,1.9s3.7-5.5,1.9-8.4S6.6,0.1,3.8,1.8C2.3,2.8,1.3,4.2,1,5.9
	c0,0.3-0.3,0.4-0.5,0.4S0,6,0.1,5.7c0.7-3.8,4.3-6.3,8.1-5.6s6.3,4.3,5.6,8.1c-0.7,3.8-4.3,6.3-8.1,5.6C3.7,13.5,2,12.4,1,10.7z
	 M6.1,8.8C6,8.8,5.9,8.8,5.9,8.7L4.1,7c-0.2-0.2-0.2-0.5,0-0.7c0,0,0,0,0,0l0,0c0.2-0.2,0.5-0.2,0.7,0c0,0,0,0,0,0l1.5,1.5l3.7-3.7
	c0.2-0.2,0.5-0.2,0.7,0c0,0,0,0,0,0l0.1,0.1c0.2,0.2,0.2,0.5,0,0.7c0,0,0,0,0,0l-4,4C6.5,9,6.3,9,6.1,8.8L6.1,8.8z"/>
</svg>
