<svg width="16" height="16" viewBox="0 0 16 16" fill="none" xmlns="http://www.w3.org/2000/svg">
<rect width="16" height="16" fill="#E5E5E5"/>
<g id="Icon/Samples">
<g id="Icon/Samples_2">
<path id="Combined Shape" fill-rule="evenodd" clip-rule="evenodd" d="M5.5 0H3.5C2.11929 0 1 1.11929 1 2.5V4.5C1 5.88071 2.11929 7 3.5 7H5.5C6.88071 7 8 5.88071 8 4.5V2.5C8 1.11929 6.88071 0 5.5 0ZM3.5 1H5.5C6.32843 1 7 1.67157 7 2.5V4.5C7 5.32843 6.32843 6 5.5 6H3.5C2.67157 6 2 5.32843 2 4.5V2.5C2 1.67157 2.67157 1 3.5 1ZM5.5 8H2.5C1.11929 8 0 9.11929 0 10.5V13.5C0 14.8807 1.11929 16 2.5 16H5.5C6.88071 16 8 14.8807 8 13.5V10.5C8 9.11929 6.88071 8 5.5 8ZM2.5 9H5.5C6.32843 9 7 9.67157 7 10.5V13.5C7 14.3284 6.32843 15 5.5 15H2.5C1.67157 15 1 14.3284 1 13.5V10.5C1 9.67157 1.67157 9 2.5 9ZM11.5 0H13.5C14.8807 0 16 1.11929 16 2.5V4.5C16 5.88071 14.8807 7 13.5 7H11.5C10.1193 7 9 5.88071 9 4.5V2.5C9 1.11929 10.1193 0 11.5 0ZM13.5 1H11.5C10.6716 1 10 1.67157 10 2.5V4.5C10 5.32843 10.6716 6 11.5 6H13.5C14.3284 6 15 5.32843 15 4.5V2.5C15 1.67157 14.3284 1 13.5 1ZM13.5 8H11.5C10.1193 8 9 9.11929 9 10.5V12.5C9 13.8807 10.1193 15 11.5 15H13.5C14.8807 15 16 13.8807 16 12.5V10.5C16 9.11929 14.8807 8 13.5 8ZM11.5 9H13.5C14.3284 9 15 9.67157 15 10.5V12.5C15 13.3284 14.3284 14 13.5 14H11.5C10.6716 14 10 13.3284 10 12.5V10.5C10 9.67157 10.6716 9 11.5 9Z" fill="#40404B"/>
</g>
</g>
<g id="Icon/Samples_3">
<g id="Icon/Samples_4">
<path id="Combined Shape_2" fill-rule="evenodd" clip-rule="evenodd" d="M5.5 0H3.5C2.11929 0 1 1.11929 1 2.5V4.5C1 5.88071 2.11929 7 3.5 7H5.5C6.88071 7 8 5.88071 8 4.5V2.5C8 1.11929 6.88071 0 5.5 0ZM3.5 1H5.5C6.32843 1 7 1.67157 7 2.5V4.5C7 5.32843 6.32843 6 5.5 6H3.5C2.67157 6 2 5.32843 2 4.5V2.5C2 1.67157 2.67157 1 3.5 1ZM5.5 8H2.5C1.11929 8 0 9.11929 0 10.5V13.5C0 14.8807 1.11929 16 2.5 16H5.5C6.88071 16 8 14.8807 8 13.5V10.5C8 9.11929 6.88071 8 5.5 8ZM2.5 9H5.5C6.32843 9 7 9.67157 7 10.5V13.5C7 14.3284 6.32843 15 5.5 15H2.5C1.67157 15 1 14.3284 1 13.5V10.5C1 9.67157 1.67157 9 2.5 9ZM11.5 0H13.5C14.8807 0 16 1.11929 16 2.5V4.5C16 5.88071 14.8807 7 13.5 7H11.5C10.1193 7 9 5.88071 9 4.5V2.5C9 1.11929 10.1193 0 11.5 0ZM13.5 1H11.5C10.6716 1 10 1.67157 10 2.5V4.5C10 5.32843 10.6716 6 11.5 6H13.5C14.3284 6 15 5.32843 15 4.5V2.5C15 1.67157 14.3284 1 13.5 1ZM13.5 8H11.5C10.1193 8 9 9.11929 9 10.5V12.5C9 13.8807 10.1193 15 11.5 15H13.5C14.8807 15 16 13.8807 16 12.5V10.5C16 9.11929 14.8807 8 13.5 8ZM11.5 9H13.5C14.3284 9 15 9.67157 15 10.5V12.5C15 13.3284 14.3284 14 13.5 14H11.5C10.6716 14 10 13.3284 10 12.5V10.5C10 9.67157 10.6716 9 11.5 9Z" fill="#40404B"/>
</g>
</g>
</svg>
