<?xml version="1.0" encoding="utf-8"?>
<!-- 
  Copyright (c) 2021, WSO2 Inc. (http://www.wso2.com). All Rights Reserved.
 
 - This software is the property of WSO2 Inc. and its suppliers, if any.
 - Dissemination of any information or reproduction of any material contained
 - herein is strictly forbidden, unless permitted by WSO2 in accordance with
 - the WSO2 Commercial License available at http://wso2.com/licenses.
 - For specific language governing the permissions and limitations under
 - this license, please see the license as well as any agreement you’ve
 - entered into with WSO2 governing the purchase of this software and any
 - associated services.
 -->
<svg version="1.1" id="sample" x="0px" y="0px" viewBox="0 0 14 14">
<path id="Combined_Shape" d="M2.2,14C1,14,0,13,0,11.8V9.2C0,8,1,7,2.2,7h2.6C6,7,7,8,7,9.2v2.6C7,13,6,14,4.8,14H2.2z M0.9,9.2v2.6
	c0,0.7,0.6,1.3,1.3,1.3h2.6c0.7,0,1.3-0.6,1.3-1.3V9.2c0-0.7-0.6-1.3-1.3-1.3H2.2C1.5,7.9,0.9,8.5,0.9,9.2z M10.1,13.1
	c-1.2,0-2.2-1-2.2-2.2V9.2C7.9,8,8.9,7,10.1,7h1.8C13,7,14,8,14,9.2v1.8c0,1.2-1,2.2-2.2,2.2H10.1z M8.8,9.2v1.8
	c0,0.7,0.6,1.3,1.3,1.3h1.8c0.7,0,1.3-0.6,1.3-1.3V9.2c0-0.7-0.6-1.3-1.3-1.3h-1.8C9.3,7.9,8.8,8.5,8.8,9.2z M10.1,6.1
	c-1.2,0-2.2-1-2.2-2.2V2.2C7.9,1,8.9,0,10.1,0h1.8C13,0,14,1,14,2.2v1.8c0,1.2-1,2.2-2.2,2.2H10.1z M8.8,2.2v1.8
	c0,0.7,0.6,1.3,1.3,1.3h1.8c0.7,0,1.3-0.6,1.3-1.3V2.2c0-0.7-0.6-1.3-1.3-1.3h-1.8C9.3,0.9,8.8,1.5,8.8,2.2z M3.1,6.1
	c-1.2,0-2.2-1-2.2-2.2V2.2C0.9,1,1.9,0,3.1,0h1.8C6,0,7,1,7,2.2v1.8c0,1.2-1,2.2-2.2,2.2H3.1z M1.8,2.2v1.8c0,0.7,0.6,1.3,1.3,1.3
	h1.8c0.7,0,1.3-0.6,1.3-1.3V2.2c0-0.7-0.6-1.3-1.3-1.3H3.1C2.3,0.9,1.8,1.5,1.8,2.2z"/>
</svg>
