<?xml version="1.0" encoding="utf-8"?>
<!-- 
  Copyright (c) 2021, WSO2 Inc. (http://www.wso2.com). All Rights Reserved.
 
 - This software is the property of WSO2 Inc. and its suppliers, if any.
 - Dissemination of any information or reproduction of any material contained
 - herein is strictly forbidden, unless permitted by WSO2 in accordance with
 - the WSO2 Commercial License available at http://wso2.com/licenses.
 - For specific language governing the permissions and limitations under
 - this license, please see the license as well as any agreement you’ve
 - entered into with WSO2 governing the purchase of this software and any
 - associated services.
 -->
<svg version="1.1" id="save" x="0px" y="0px" viewBox="0 0 14 14">
<path id="Combined_Shape" d="M6.6,12.8L6.6,12.8l0-5.2L5.1,9.1C4.9,9.2,4.7,9.2,4.5,9.1L4.5,9.1C4.3,8.9,4.3,8.7,4.4,8.5l0.1-0.1
	l2.2-2.2l0,0L7,5.9l0.3,0.3l0,0l2.2,2.2c0.2,0.2,0.2,0.4,0,0.6C9.4,9.2,9.2,9.2,9,9.1L8.9,9.1L7.4,7.6v5.1c0,0.2-0.2,0.4-0.4,0.4
	C6.8,13.2,6.6,13,6.6,12.8z M10.3,10c0-0.2,0.2-0.4,0.4-0.4c1.3,0,2.4-1,2.4-2.3c0-1.3-1-2.3-2.3-2.3h-0.1H9V4.5
	c0-1.5-1.3-2.8-2.8-2.7c-1.5,0-2.7,1.1-2.8,2.6l0,0.2l0,0.4L3,4.9C1.8,5.1,0.9,6.1,0.9,7.2c0,1.3,1.1,2.4,2.4,2.3
	c0.2,0,0.4,0.2,0.4,0.4s-0.2,0.4-0.4,0.4C1.5,10.5,0,9.1,0,7.2c0-1.4,1-2.7,2.3-3.1l0.1,0v0C2.7,2.3,4.2,0.9,6,0.8l0.2,0
	c1.8,0,3.4,1.3,3.7,3.1l0,0.1h0.8c1.7,0,3.2,1.3,3.3,3.1l0,0.2c0,1.8-1.5,3.2-3.3,3.2C10.5,10.5,10.3,10.3,10.3,10z"/>
</svg>
