<?xml version="1.0" encoding="utf-8"?>
<!-- 
  Copyright (c) 2021, WSO2 Inc. (http://www.wso2.com). All Rights Reserved.
 
 - This software is the property of WSO2 Inc. and its suppliers, if any.
 - Dissemination of any information or reproduction of any material contained
 - herein is strictly forbidden, unless permitted by WSO2 in accordance with
 - the WSO2 Commercial License available at http://wso2.com/licenses.
 - For specific language governing the permissions and limitations under
 - this license, please see the license as well as any agreement you’ve
 - entered into with WSO2 governing the purchase of this software and any
 - associated services.
 -->
<svg version="1.1" id="sdk" x="0px" y="0px" viewBox="0 0 14 14">
<path id="Combined_Shape-2" d="M1.4,13.2c-0.7,0-1.3-0.5-1.4-1.3l0-0.1V4.5c0-0.7,0.5-1.3,1.3-1.4l0.1,0h6.5c0.3,0,0.5,0.2,0.5,0.5
	C8.3,3.8,8.2,4,7.9,4L7.9,4H1.4C1.2,4,1,4.2,0.9,4.4l0,0.1v7.4c0,0.2,0.2,0.4,0.4,0.5l0.1,0h10.2c0.2,0,0.4-0.2,0.5-0.4l0-0.1V10
	c0-0.3,0.2-0.5,0.5-0.5c0.2,0,0.4,0.2,0.5,0.4l0,0.1v1.8c0,0.7-0.5,1.3-1.3,1.4l-0.1,0H1.4z M9.7,8.7c-0.2-0.2-0.2-0.5,0-0.7
	l3.3-3.3L9.7,1.6c-0.2-0.2-0.2-0.5,0-0.7c0.2-0.2,0.5-0.2,0.7,0c0,0,0,0,0,0l3.5,3.5C14,4.5,14,4.7,14,4.8c0,0.1,0,0.3-0.1,0.4
	l-3.5,3.5C10.1,8.9,9.8,8.9,9.7,8.7z"/>
</svg>
