<svg width="16" height="16" viewBox="0 0 16 16" fill="none" xmlns="http://www.w3.org/2000/svg">
<rect width="16" height="16" fill="#E5E5E5"/>
<g id="Icon/Search small">
<g id="Icon/Search small_2">
<path id="Combined Shape" fill-rule="evenodd" clip-rule="evenodd" d="M7.46667 4C5.55208 4 4 5.55208 4 7.46667C4 9.38125 5.55208 10.9333 7.46667 10.9333C8.32797 10.9333 9.11591 10.6192 9.72219 10.0993L11.5448 11.9219L11.5817 11.9528C11.6856 12.0247 11.8293 12.0145 11.9219 11.9219C12.026 11.8178 12.026 11.6489 11.9219 11.5448L10.0993 9.72219C10.6192 9.11591 10.9333 8.32797 10.9333 7.46667C10.9333 5.55208 9.38125 4 7.46667 4ZM7.46667 4.53333C9.0867 4.53333 10.4 5.84663 10.4 7.46667C10.4 9.0867 9.0867 10.4 7.46667 10.4C5.84663 10.4 4.53333 9.0867 4.53333 7.46667C4.53333 5.84663 5.84663 4.53333 7.46667 4.53333Z" fill="#40404B"/>
<path id="Combined Shape_2" fill-rule="evenodd" clip-rule="evenodd" d="M7.5 4C5.567 4 4 5.567 4 7.5C4 9.433 5.567 11 7.5 11C8.28228 11 9.00462 10.7434 9.58741 10.3097L11.6478 12.3549L11.7172 12.4125C11.9126 12.5467 12.1819 12.5265 12.3549 12.3522C12.5494 12.1563 12.5482 11.8397 12.3522 11.6451L10.2967 9.60472C10.7382 9.01895 11 8.29004 11 7.5C11 5.567 9.433 4 7.5 4ZM7.5 5C8.88071 5 10 6.11929 10 7.5C10 8.88071 8.88071 10 7.5 10C6.11929 10 5 8.88071 5 7.5C5 6.11929 6.11929 5 7.5 5Z" fill="#40404B"/>
</g>
</g>
</svg>
