<?xml version="1.0" encoding="utf-8"?>
<!-- 
  Copyright (c) 2021, WSO2 Inc. (http://www.wso2.com). All Rights Reserved.
 
 - This software is the property of WSO2 Inc. and its suppliers, if any.
 - Dissemination of any information or reproduction of any material contained
 - herein is strictly forbidden, unless permitted by WSO2 in accordance with
 - the WSO2 Commercial License available at http://wso2.com/licenses.
 - For specific language governing the permissions and limitations under
 - this license, please see the license as well as any agreement you’ve
 - entered into with WSO2 governing the purchase of this software and any
 - associated services.
 -->
<svg version="1.1" id="select" x="0px" y="0px" viewBox="0 0 14 14">
<path id="Combined_Shape" d="M1.5,14c-0.8,0-1.4-0.6-1.5-1.4l0-0.1v-11C0,0.7,0.6,0.1,1.4,0l0.1,0h6C7.8,0,8,0.2,8,0.5
	C8,0.7,7.8,0.9,7.6,1L7.5,1h-6C1.3,1,1.1,1.2,1,1.4l0,0.1v11c0,0.2,0.2,0.4,0.4,0.5l0.1,0h11c0.2,0,0.4-0.2,0.5-0.4l0-0.1v-3
	C13,9.2,13.2,9,13.5,9C13.7,9,14,9.2,14,9.4l0,0.1v3c0,0.8-0.6,1.4-1.4,1.5l-0.1,0H1.5z M4.6,5.4c-0.2-0.2-0.2-0.5,0-0.7
	c0.2-0.2,0.4-0.2,0.6-0.1l0.1,0.1l2.7,2.7l4.6-4.6c0.2-0.2,0.4-0.2,0.6-0.1l0.1,0.1c0.2,0.2,0.2,0.4,0.1,0.6l-0.1,0.1L8.1,8.8
	L4.6,5.4z"/>
</svg>
