<svg width="16" height="16" viewBox="0 0 16 16" fill="none" xmlns="http://www.w3.org/2000/svg">
<rect width="16" height="16" fill="#E5E5E5"/>
<g id="Icon/Select">
<g id="Icon/Select_2">
<path id="Combined Shape" fill-rule="evenodd" clip-rule="evenodd" d="M9 1.5C9 1.22386 8.77614 1 8.5 1H2.5L2.35554 1.00687C1.59489 1.07955 1 1.7203 1 2.5V13.5L1.00687 13.6445C1.07955 14.4051 1.7203 15 2.5 15H13.5L13.6445 14.9931C14.4051 14.9204 15 14.2797 15 13.5V10.5L14.9919 10.4101C14.9496 10.1769 14.7455 10 14.5 10C14.2239 10 14 10.2239 14 10.5V13.5L13.9919 13.5899C13.9496 13.8231 13.7455 14 13.5 14H2.5L2.41012 13.9919C2.17688 13.9496 2 13.7455 2 13.5V2.5L2.00806 2.41012C2.05039 2.17688 2.25454 2 2.5 2H8.5L8.58988 1.99194C8.82312 1.94961 9 1.74546 9 1.5ZM14.4708 4.40064C14.6058 4.20577 14.5865 3.93635 14.4129 3.76278L14.3437 3.70493C14.1488 3.56993 13.8794 3.58922 13.7058 3.76278L9.07935 8.3883L6.33685 5.64645L6.2676 5.58859C6.07273 5.4536 5.80331 5.47288 5.62974 5.64645C5.43448 5.84171 5.43448 6.15829 5.62974 6.35355L9.07949 9.8033L14.4129 4.46989L14.4708 4.40064Z" fill="#40404B"/>
</g>
</g>
</svg>
