<svg width="16" height="16" viewBox="0 0 16 16" fill="none" xmlns="http://www.w3.org/2000/svg">
<rect width="16" height="16" fill="#E5E5E5"/>
<g id="Icon/Add/Send">
<path id="Combined-Shape" d="M1.75 1C2.16421 1 2.5 1.33579 2.5 1.75V14.25C2.5 14.6642 2.16421 15 1.75 15C1.33579 15 1 14.6642 1 14.25V1.75C1 1.33579 1.33579 1 1.75 1ZM9.28418 1.5885L9.35344 1.64633L15.7071 7.99598L9.35367 14.3534C9.15846 14.5488 8.84188 14.5489 8.64656 14.3537C8.47294 14.1802 8.45357 13.9107 8.5885 13.7158L8.64633 13.6466L13.793 8.496L4.0427 8.5C3.76656 8.5001 3.54253 8.27631 3.54253 8.00017C3.54253 7.75471 3.71925 7.5505 3.95248 7.50809L4.04236 7.5L13.793 7.496L8.64656 2.35367C8.47294 2.18015 8.45357 1.91074 8.5885 1.71582L8.64633 1.64656C8.79816 1.49464 9.02341 1.46082 9.20792 1.54513L9.28418 1.5885Z" fill="#40404B"/>
</g>
</svg>
