<?xml version="1.0" encoding="utf-8"?>
<!-- 
  Copyright (c) 2021, WSO2 Inc. (http://www.wso2.com). All Rights Reserved.
 
 - This software is the property of WSO2 Inc. and its suppliers, if any.
 - Dissemination of any information or reproduction of any material contained
 - herein is strictly forbidden, unless permitted by WSO2 in accordance with
 - the WSO2 Commercial License available at http://wso2.com/licenses.
 - For specific language governing the permissions and limitations under
 - this license, please see the license as well as any agreement you’ve
 - entered into with WSO2 governing the purchase of this software and any
 - associated services.
 -->
<svg version="1.1" id="show" x="0px" y="0px" viewBox="0 0 14 14">
<path id="Combined_Shape-2" d="M3.7379999,11.4205027c-1.3174224-0.8552599-2.4002252-2.0261898-3.1500001-3.406374
	l-0.1925-0.3272505L0,7.0000029L0.399,6.313128c0.7656409-1.4626603,1.877027-2.7161236,3.2375002-3.6513746
	C4.6449404,2.0367408,5.8139629,1.7198515,7,1.7500031c1.1429644-0.0315632,2.2721519,0.255657,3.2611256,0.8295
	c1.3184252,0.8566852,2.4013567,2.0298615,3.1499996,3.4124999L14,7.0000029l-0.3998747,0.6886253
	c-0.7658758,1.4624987-1.8772163,2.71591-3.2375002,3.6513748C9.3542061,11.9641428,8.1855526,12.280406,7,12.2500029
	C5.8567252,12.2818689,4.7271748,11.9946337,3.7379999,11.4205027z M4.04425,3.5000031
	C2.7921958,4.3574123,1.7704673,5.5098624,1.0692501,6.855628L0.984375,7.0000029l0.27475,0.4681249
	C3.285625,10.8403778,5.2981248,11.2953787,7,11.2953787c1.0406313,0.028492,2.0672407-0.2450275,2.9557505-0.7875004
	c1.2520409-0.8570557,2.2737837-2.0092211,2.9749994-3.3547497l0.0875006-0.1478753l-0.2730007-0.4681249
	c-0.6655645-1.2259889-1.622303-2.269567-2.7860003-3.0388749C9.1186657,3.0032289,8.1651573,2.732089,7.1898751,2.7107537
	L7,2.704628C5.95859,2.6785505,4.9319367,2.9548168,4.04425,3.5000031z M4.375,7.0000029c0-1.4497471,1.1752524-2.625,2.625-2.625
	s2.625,1.1752529,2.625,2.625s-1.175252,2.625-2.625,2.625S4.375,8.4497509,4.375,7.0000029z M5.25,7.0000029
	c0,0.9664984,0.7835016,1.75,1.75,1.75s1.75-0.7835016,1.75-1.75s-0.7835016-1.75-1.75-1.75S5.25,6.033505,5.25,7.0000029z"/>
</svg>
