<?xml version="1.0" encoding="utf-8"?>

<!--
 ~   Copyright 2018, WSO2 Inc. (http://www.wso2.com)
 ~
 ~   Licensed under the Apache License, Version 2.0 (the "License");
 ~   you may not use this file except in compliance with the License.
 ~   You may obtain a copy of the License at
 ~
 ~        http://www.apache.org/licenses/LICENSE-2.0
 ~
 ~   Unless required by applicable law or agreed to in writing, software
 ~   distributed under the License is distributed on an "AS IS" BASIS,
 ~   WITHOUT WARRANTIES OR CONDITIONS OF ANY KIND, either express or implied.
 ~   See the License for the specific language governing permissions and
 ~   limitations under the License.
-->

<svg version="1.1" id="slack" xmlns="http://www.w3.org/2000/svg" xmlns:xlink="http://www.w3.org/1999/xlink" x="0px" y="0px"
	 viewBox="0 0 14 14" style="enable-background:new 0 0 14 14;" xml:space="preserve">
<path id="XMLID_6_" d="M12.8,6.5c0.3,0,0.6,0.1,0.9,0.3C13.9,7.1,14,7.4,14,7.7c0,0.5-0.3,0.9-0.8,1.1l-1.4,0.5l0.5,1.4
	c0,0.1,0.1,0.2,0.1,0.4c0,0.3-0.1,0.6-0.4,0.9c-0.2,0.2-0.5,0.4-0.8,0.4c-0.3,0-0.5-0.1-0.7-0.2c-0.2-0.2-0.4-0.4-0.4-0.6l-0.5-1.4
	L6.9,11l0.5,1.4c0,0.1,0.1,0.3,0.1,0.4c0,0.3-0.1,0.6-0.4,0.9C6.8,13.9,6.5,14,6.2,14c-0.3,0-0.5-0.1-0.7-0.2
	c-0.2-0.2-0.4-0.4-0.4-0.6l-0.5-1.4l-1.3,0.4c-0.2,0.1-0.3,0.1-0.4,0.1c-0.3,0-0.6-0.1-0.9-0.3c-0.2-0.2-0.3-0.5-0.3-0.8
	c0-0.3,0.1-0.5,0.2-0.7C2,10.2,2.2,10.1,2.5,10l1.3-0.4L2.9,6.9L1.6,7.3c-0.1,0-0.3,0.1-0.4,0.1c-0.3,0-0.6-0.1-0.8-0.3
	C0.1,6.8,0,6.6,0,6.2C0,6,0.1,5.7,0.2,5.5c0.2-0.2,0.4-0.4,0.6-0.4l1.3-0.4L1.7,3.3c0-0.1-0.1-0.3-0.1-0.4C1.6,2.5,1.8,2.3,2,2
	c0.2-0.2,0.5-0.4,0.9-0.4c0.3,0,0.5,0.1,0.7,0.2C3.8,2,3.9,2.2,4,2.5l0.5,1.3L7.1,3L6.6,1.6c0-0.1-0.1-0.3-0.1-0.4
	c0-0.3,0.1-0.6,0.4-0.9C7.1,0.1,7.4,0,7.8,0C8,0,8.3,0.1,8.5,0.2s0.4,0.4,0.4,0.6l0.4,1.4l1.4-0.5c0.1,0,0.2-0.1,0.4-0.1
	c0.3,0,0.6,0.1,0.9,0.3c0.2,0.2,0.4,0.5,0.4,0.8c0,0.3-0.1,0.5-0.3,0.7c-0.2,0.2-0.4,0.3-0.6,0.4l-1.3,0.5L11,7.1l1.4-0.5
	C12.5,6.5,12.7,6.5,12.8,6.5z M6.1,8.7l2.6-0.9L7.8,5.2L5.2,6.1L6.1,8.7z"/>
</svg>
