<svg width="16" height="16" viewBox="0 0 16 16" fill="none" xmlns="http://www.w3.org/2000/svg">
<rect width="16" height="16" fill="#E5E5E5"/>
<g id="Icon/Source">
<g id="Icon/Source_2">
<path id="Combined Shape" fill-rule="evenodd" clip-rule="evenodd" d="M0.723359 5.09869C0.530465 5.43373 0.645696 5.8617 0.980735 6.05459L4.26932 7.94795L0.980735 9.84131L0.904047 9.89247C0.831052 9.94844 0.769556 10.0184 0.723359 10.0987C0.530465 10.4337 0.645696 10.8617 0.980735 11.0546L7.35159 14.7225L7.47464 14.7849C7.85104 14.9514 8.28749 14.9306 8.64886 14.7225L15.0197 11.0546L15.0964 11.0034C15.1694 10.9475 15.2309 10.8775 15.2771 10.7972C15.47 10.4622 15.3548 10.0342 15.0197 9.84131L11.7311 7.94795L15.0197 6.05459C15.1267 5.993 15.2155 5.9042 15.2771 5.79722C15.47 5.46218 15.3548 5.0342 15.0197 4.84131L8.64886 1.17338C8.24733 0.942207 7.75312 0.942207 7.35159 1.17338L0.980735 4.84131C0.873749 4.90291 0.784955 4.9917 0.723359 5.09869ZM10.729 8.52493L8.64886 9.72252C8.24733 9.9537 7.75312 9.9537 7.35159 9.72252L5.27145 8.52491L1.93184 10.448L7.85054 13.8559C7.92467 13.8986 8.01249 13.9071 8.09209 13.8815L8.14991 13.8559L14.0672 10.448L10.729 8.52493ZM1.93184 5.44795L7.85054 2.04001L7.90836 2.0144C7.98797 1.9888 8.07578 1.99733 8.14991 2.04001L14.0672 5.44795L8.14991 8.85589C8.05725 8.90924 7.9432 8.90924 7.85054 8.85589L1.93184 5.44795Z" fill="#40404B"/>
</g>
</g>
</svg>
