<?xml version="1.0" encoding="utf-8"?>
<!-- 
  Copyright (c) 2021, WSO2 Inc. (http://www.wso2.com). All Rights Reserved.
 
 - This software is the property of WSO2 Inc. and its suppliers, if any.
 - Dissemination of any information or reproduction of any material contained
 - herein is strictly forbidden, unless permitted by WSO2 in accordance with
 - the WSO2 Commercial License available at http://wso2.com/licenses.
 - For specific language governing the permissions and limitations under
 - this license, please see the license as well as any agreement you’ve
 - entered into with WSO2 governing the purchase of this software and any
 - associated services.
 -->
<svg version="1.1" id="source" x="0px" y="0px" viewBox="0 0 14 14">
<path id="Combined_Shape" d="M6.5000372,13.4930191l-0.1158657-0.0598316L0.3325698,9.950572
	C0.0150232,9.7672787-0.0941765,9.3614979,0.0884924,9.0435915C0.1320409,8.967473,0.1905085,8.9009295,0.2603913,8.84795
	l0.0721785-0.0484352l3.1236219-1.799716L0.3325698,5.2010331C0.0155911,5.017767-0.0935319,4.6126957,0.0884924,4.2950025
	c0.0294571-0.0505271,0.0651979-0.0971179,0.1063684-0.138659c0.0413377-0.0414028,0.08796-0.077168,0.1386588-0.1063685
	l6.0487533-3.4835649c0.382309-0.2193772,0.8523235-0.2193772,1.2346325,0l6.0497026,3.4835649
	c0.3182497,0.183095,0.4278145,0.5895147,0.2447205,0.9077644c-0.0002136,0.0003724-0.0004282,0.0007443-0.0006428,0.0011153
	C13.8820457,5.009387,13.846571,5.055727,13.8052664,5.0965638c-0.041338,0.0414033-0.0879602,0.077168-0.1386585,0.1063685
	l-3.1255207,1.7968664L13.665659,8.798564c0.3181152,0.18332,0.427392,0.5898123,0.2440767,0.9079304
	c-0.0440416,0.0757647-0.1024294,0.1422186-0.1718979,0.1956425L13.665659,9.950572l-6.050653,3.4826155
	C7.2741146,13.6296511,6.8599963,13.6518736,6.5000372,13.4930191z M1.233852,9.3740931l5.6204305,3.2356882
	c0.0694246,0.0400591,0.1525116,0.0490236,0.2288823,0.0246925l0.0550838-0.0246925l5.6194792-3.2356882l-3.166358-1.8263073
	L7.6169052,8.6874475c-0.3819971,0.2205458-0.8526359,0.2205458-1.234633,0L4.4068589,7.5477862L1.233852,9.3740931z
	 M6.9112649,1.3641732L6.8561811,1.3879161L1.233852,4.625504l5.6223292,3.2366385
	c0.0881534,0.0508952,0.1967626,0.0508952,0.2849159,0l5.6194801-3.2366385L7.1410971,1.3879161
	C7.0715342,1.3481743,6.9884539,1.339556,6.9122148,1.3641732H6.9112649z"/>
</svg>
