<?xml version="1.0" encoding="utf-8"?>
<!-- 
  Copyright (c) 2021, WSO2 Inc. (http://www.wso2.com). All Rights Reserved.
 
 - This software is the property of WSO2 Inc. and its suppliers, if any.
 - Dissemination of any information or reproduction of any material contained
 - herein is strictly forbidden, unless permitted by WSO2 in accordance with
 - the WSO2 Commercial License available at http://wso2.com/licenses.
 - For specific language governing the permissions and limitations under
 - this license, please see the license as well as any agreement you’ve
 - entered into with WSO2 governing the purchase of this software and any
 - associated services.
 -->
<svg version="1.1" id="stop" x="0px" y="0px" viewBox="0 0 14 14">
<g id="Rectangle">
	<path d="M12.6000004,1C12.8205605,1,13,1.1794395,13,1.3999996v11.2000008C13,12.8205605,12.8205605,13,12.6000004,13H1.4000001
		C1.17944,13,1,12.8205605,1,12.6000004V1.3999996C1,1.1794395,1.17944,1,1.4000001,1H12.6000004 M12.6000004,0H1.4000001
		C0.6267999,0,0,0.6267996,0,1.3999996v11.2000008C0,13.3732004,0.6267999,14,1.4000001,14h11.2000008
		C13.3732004,14,14,13.3732004,14,12.6000004V1.3999996C14,0.6267996,13.3732004,0,12.6000004,0L12.6000004,0z"/>
</g>
</svg>
