<?xml version="1.0" encoding="utf-8"?>
<!-- 
  Copyright (c) 2021, WSO2 Inc. (http://www.wso2.com). All Rights Reserved.
 
 - This software is the property of WSO2 Inc. and its suppliers, if any.
 - Dissemination of any information or reproduction of any material contained
 - herein is strictly forbidden, unless permitted by WSO2 in accordance with
 - the WSO2 Commercial License available at http://wso2.com/licenses.
 - For specific language governing the permissions and limitations under
 - this license, please see the license as well as any agreement you’ve
 - entered into with WSO2 governing the purchase of this software and any
 - associated services.
 -->
<svg version="1.1" id="support" x="0px" y="0px" viewBox="0 0 14 14">
<path id="Combined_Shape" d="M9.625,14H0v-0.4375C0,10.4256248,2.1586249,7.875,4.8125,7.875s4.8125,2.5506248,4.8125,5.6875V14
	L9.625,14z M0.90825,12.9403744L0.89075,13.125h7.8426247l-0.015749-0.1855001
	c-0.1019573-1.0788612-0.5364208-2.0994387-1.2433758-2.9207497C6.8464952,9.2801437,5.9482098,8.8248529,4.9813747,8.75525
	L4.8125,8.75C2.8385,8.75,1.1602499,10.5507498,0.90825,12.9403744z M2.625,4.8125c0-1.208123,0.979377-2.1875,2.1875-2.1875
	S7,3.604377,7,4.8125S6.0206232,7,4.8125,7S2.625,6.0206232,2.625,4.8125z M3.5,4.8125c0,0.724874,0.587626,1.3125,1.3125,1.3125
	S6.125,5.537374,6.125,4.8125S5.537374,3.5,4.8125,3.5S3.5,4.087626,3.5,4.8125z M7.9388747,6.6272497
	C7.8987465,6.5866356,7.8758621,6.5320878,7.875,6.4749999V2.1875l0.004375-0.1443748
	C7.9554224,0.8934072,8.9102697-0.0002077,10.0625,0h1.75l0.1443748,0.004375C13.1065922,0.0804222,14.0002089,1.0352697,14,2.1875
	l-0.0043755,0.1435001l-0.0139999,0.1417499C13.8384495,3.561352,12.9104767,4.3751521,11.8125,4.375H10.5L8.2486248,6.6272497
	L8.2022495,6.663125c-0.0328341,0.0185232-0.0699272,0.0281734-0.107625,0.0279999
	C8.0363035,6.6912684,7.9803009,6.6683011,7.9388747,6.6272497z M9.9356241,0.882
	C9.2620001,0.9445274,8.7475576,1.5109848,8.75,2.1875v2.7002501L10.1377506,3.5H11.8125l0.1216249-0.00525
	C12.5753641,3.4328625,13.0784903,2.917537,13.125,2.2749999v-0.114625V2.1875l-0.0061255-0.1268749
	c-0.0621576-0.6741589-0.629364-1.1889383-1.3063745-1.1856251h-1.75L9.9356241,0.882z"/>
</svg>
