<svg width="16" height="16" viewBox="0 0 16 16" fill="none" xmlns="http://www.w3.org/2000/svg">
<rect width="16" height="16" fill="#E5E5E5"/>
<g id="Icon/Add/Trigger" clip-path="url(#clip0_501_1732)">
<path id="Combined-Shape" d="M3.58058 2.51992C3.87348 2.81282 3.87348 3.28769 3.58058 3.58058C1.13981 6.02136 1.13981 9.97864 3.58058 12.4194C6.02136 14.8602 9.97864 14.8602 12.4194 12.4194C14.8602 9.97864 14.8602 6.02136 12.4194 3.58058C12.1265 3.28769 12.1265 2.81282 12.4194 2.51992C12.7123 2.22703 13.1872 2.22703 13.4801 2.51992C16.5066 5.54649 16.5066 10.4535 13.4801 13.4801C10.4535 16.5066 5.54649 16.5066 2.51992 13.4801C-0.506641 10.4535 -0.506641 5.54649 2.51992 2.51992C2.81282 2.22703 3.28769 2.22703 3.58058 2.51992ZM8 0C8.24546 0 8.44961 0.176875 8.49194 0.410124L8.5 0.5V8C8.5 8.27614 8.27614 8.5 8 8.5C7.75454 8.5 7.55039 8.32312 7.50806 8.08988L7.5 8V0.5C7.5 0.223858 7.72386 0 8 0Z" fill="#40404B"/>
</g>
<defs>
<clipPath id="clip0_501_1732">
<rect width="16" height="16" fill="white"/>
</clipPath>
</defs>
</svg>
