<svg width="16" height="16" viewBox="0 0 16 16" fill="none" xmlns="http://www.w3.org/2000/svg">
<rect width="16" height="16" fill="#E5E5E5"/>
<g id="Icon/Undeploy">
<g id="Icon/Undeploy_2">
<path id="Combined Shape" fill-rule="evenodd" clip-rule="evenodd" d="M15.1035 5.60358C15.3797 5.60358 15.6035 5.82743 15.6035 6.10358L15.6035 10.1036L15.5955 10.1935C15.5531 10.4267 15.349 10.6036 15.1035 10.6036C14.8274 10.6036 14.6035 10.3797 14.6035 10.1036L14.6035 8.60358L2.31052 8.60358L7.45707 13.75L7.51492 13.8193C7.64992 14.0141 7.63064 14.2836 7.45707 14.4571C7.26181 14.6524 6.94522 14.6524 6.74996 14.4571L0.396409 8.10358L6.74996 1.75002L6.81921 1.69217C7.01408 1.55717 7.2835 1.57646 7.45707 1.75002L7.51492 1.81927C7.64992 2.01414 7.63064 2.28356 7.45707 2.45713L2.31052 7.60358L14.6035 7.60358V6.10358L14.6116 6.0137C14.6539 5.78045 14.8581 5.60358 15.1035 5.60358Z" fill="#40404B"/>
</g>
</g>
</svg>
