<?xml version="1.0" encoding="utf-8"?>
<!-- 
  Copyright (c) 2021, WSO2 Inc. (http://www.wso2.com). All Rights Reserved.
 
 - This software is the property of WSO2 Inc. and its suppliers, if any.
 - Dissemination of any information or reproduction of any material contained
 - herein is strictly forbidden, unless permitted by WSO2 in accordance with
 - the WSO2 Commercial License available at http://wso2.com/licenses.
 - For specific language governing the permissions and limitations under
 - this license, please see the license as well as any agreement you’ve
 - entered into with WSO2 governing the purchase of this software and any
 - associated services.
 -->
<svg version="1.1" id="unlock" x="0px" y="0px" viewBox="0 0 14 14">
<path id="Combined_Shape" d="M2.625366,13.9993305c-0.9664173,0-1.7498535-0.7834358-1.7498535-1.7498531V6.9999161
	c0-0.9664173,0.7834362-1.7498536,1.7498535-1.7498536h6.5619507V3.0627458c0-1.2080219-0.9792957-2.1873171-2.1873169-2.1873171
	C6.7158728,0.8745248,6.4343424,0.9295228,6.1714444,1.0372901C6.1227541,1.0470206,6.0732346,1.0520018,6.0235815,1.0521638
	C5.8476028,1.0623757,5.6845431,0.9597604,5.6176157,0.7966853c-0.0391531-0.1172253-0.0344906-0.244669,0.013124-0.35872
	C5.6676059,0.342049,5.7432108,0.2661262,5.8389721,0.2288579c1.5649109-0.6413375,3.3534288,0.1073669,3.9947662,1.672278
	c0.1296568,0.3163729,0.2054148,0.652226,0.2241306,0.9936237l0.0043745,0.1679862v2.1873167h1.3123903
	c0.9664173,0,1.7498541,0.7834363,1.7498541,1.7498536v5.2495613c0,0.9664173-0.7834368,1.7498531-1.7498541,1.7498531H2.625366z
	 M1.7504393,6.9999161v5.2495613c0,0.4832087,0.391718,0.8749266,0.8749267,0.8749266h8.7492676
	c0.4832096,0,0.8749266-0.3917179,0.8749266-0.8749266V6.9999161c0-0.4832087-0.391717-0.8749266-0.8749266-0.8749266H2.625366
	C2.1421573,6.1249895,1.7504393,6.5167074,1.7504393,6.9999161z M6.1250734,9.6246967
	c0-0.4832096,0.3917179-0.8749266,0.8749266-0.8749266s0.8749266,0.391717,0.8749266,0.8749266
	c0,0.4832087-0.3917179,0.8749266-0.8749266,0.8749266S6.1250734,10.1079054,6.1250734,9.6246967z"/>
</svg>
