<svg width="16" height="16" viewBox="0 0 16 16" fill="none" xmlns="http://www.w3.org/2000/svg">
<rect width="16" height="16" fill="#E5E5E5"/>
<g id="Icon/Add/Variable" clip-path="url(#clip0_501_1732)">
<path id="module" d="M6.60137 0.340534C7.46692 -0.113512 8.53332 -0.113512 9.39887 0.340534L13.9833 3.06964C14.8488 3.52369 15.382 4.3628 15.382 5.27089V10.7291C15.382 11.6372 14.8488 12.4763 13.9833 12.9304L9.39887 15.6595C8.53332 16.1135 7.46692 16.1135 6.60137 15.6595L2.03537 12.9304C1.16983 12.4763 0.636719 11.6372 0.636719 10.7291V5.27089C0.636719 4.3628 1.16983 3.52369 2.03537 3.06964L6.60137 0.340534ZM8.71269 1.42039C8.27175 1.18909 7.72849 1.18909 7.28755 1.42039L2.72155 4.1495C2.28061 4.38081 2.00908 4.80828 2.00908 5.27089V10.7291C2.00908 11.1917 2.28061 11.6192 2.72155 11.8505L7.28755 14.5796C7.72849 14.8109 8.27175 14.8109 8.71269 14.5796L13.2971 11.8505C13.738 11.6192 14.0097 11.1917 14.0097 10.7291V5.27089C14.0097 4.80828 13.738 4.38081 13.2971 4.1495L8.71269 1.42039ZM12.4792 5.93268C12.5602 6.10818 12.5033 6.31208 12.3535 6.42232L12.2837 6.46349L8.39972 8.255L8.40012 11.5436C8.40012 11.7645 8.22103 11.9436 8.00012 11.9436C7.80682 11.9436 7.64554 11.8065 7.60825 11.6242L7.60012 11.5436L7.59972 8.251L3.88298 6.47769C3.68362 6.38251 3.59916 6.14374 3.69434 5.94438C3.77762 5.76994 3.97083 5.68348 4.15139 5.72834L4.22764 5.75574L8.00212 7.558L11.9484 5.73712C12.149 5.64454 12.3867 5.7321 12.4792 5.93268Z" fill="#40404B"/>
</g>
<defs>
<clipPath id="clip0_501_1732">
<rect width="16" height="16" fill="white"/>
</clipPath>
</defs>
</svg>
