<svg width="16" height="16" viewBox="0 0 16 16" fill="none" xmlns="http://www.w3.org/2000/svg">
<rect width="16" height="16" fill="#E5E5E5"/>
<g id="Icon/Add/Wait" clip-path="url(#clip0_501_1732)">
<path id="Combined-Shape" d="M8 0C12.4183 0 16 3.58172 16 8C16 8.27614 15.7761 8.5 15.5 8.5C15.2239 8.5 15 8.27614 15 8C15 4.13401 11.866 1 8 1C4.13401 1 1 4.13401 1 8C1 11.6865 3.85948 14.7349 7.51753 14.9837C7.79304 15.0024 8.00119 15.2409 7.98246 15.5164C7.96372 15.7919 7.72519 16.0001 7.44969 15.9813C3.26775 15.697 0 12.2133 0 8C0 3.58172 3.58172 0 8 0ZM10.5656 14.5485C10.8417 14.5485 11.0656 14.7724 11.0656 15.0485C11.0656 15.3247 10.8417 15.5485 10.5656 15.5485C10.2895 15.5485 10.0656 15.3247 10.0656 15.0485C10.0656 14.7724 10.2895 14.5485 10.5656 14.5485ZM13.1304 12.9661C13.4065 12.9661 13.6304 13.1899 13.6304 13.4661C13.6304 13.7422 13.4065 13.9661 13.1304 13.9661C12.8542 13.9661 12.6304 13.7422 12.6304 13.4661C12.6304 13.1899 12.8542 12.9661 13.1304 12.9661ZM10.75 3V6.09418C10.75 6.8628 10.352 7.57143 9.7048 8.00129C10.352 8.42858 10.75 9.1372 10.75 9.90582V13H5.25V9.90582C5.25 9.1372 5.64798 8.42857 6.2952 7.99871C5.64798 7.57143 5.25 6.8628 5.25 6.09418V3H10.75ZM7.30777 9.0854C6.96831 9.23068 6.75 9.5518 6.75 9.90582V11.5744H9.25V9.90582C9.25 9.59113 9.0775 9.30245 8.80076 9.14014L8.69223 9.0854C8.252 8.89699 7.748 8.89699 7.30777 9.0854ZM14.9004 10.4661C15.1765 10.4661 15.4004 10.69 15.4004 10.9661C15.4004 11.2423 15.1765 11.4661 14.9004 11.4661C14.6242 11.4661 14.4004 11.2423 14.4004 10.9661C14.4004 10.69 14.6242 10.4661 14.9004 10.4661ZM9.25 4.42658H6.75V6.09418C6.75 6.40887 6.9225 6.69755 7.19924 6.85986L7.30777 6.9146C7.748 7.10301 8.252 7.10301 8.69223 6.9146C9.03169 6.76932 9.25 6.4482 9.25 6.09418V4.42658Z" fill="#40404B"/>
</g>
<defs>
<clipPath id="clip0_501_1732">
<rect width="16" height="16" fill="white"/>
</clipPath>
</defs>
</svg>
