<svg width="16" height="16" viewBox="0 0 16 16" fill="none" xmlns="http://www.w3.org/2000/svg">
<rect width="16" height="16" fill="#E5E5E5"/>
<g id="Icon/Add/Websub">
<path id="Combined-Shape" d="M11.5 3.5C13.9853 3.5 16 5.51472 16 8C16 10.4853 13.9853 12.5 11.5 12.5C9.18397 12.5 7.27659 10.7503 7.02754 8.50071L3.93673 8.50102C3.71435 9.36312 2.93155 10 2 10C0.89543 10 0 9.10457 0 8C0 6.89543 0.89543 6 2 6C2.93191 6 3.71496 6.63738 3.93699 7.49998L7.02743 7.5003C7.27602 5.25018 9.18362 3.5 11.5 3.5ZM11.5 4.5C9.70107 4.5 8.21912 5.85718 8.02221 7.60349V8.39651C8.21912 10.1428 9.70107 11.5 11.5 11.5C13.433 11.5 15 9.933 15 8C15 6.067 13.433 4.5 11.5 4.5Z" fill="#40404B"/>
</g>
</svg>
