<svg width="16" height="16" viewBox="0 0 16 16" fill="none" xmlns="http://www.w3.org/2000/svg">
<path fill-rule="evenodd" clip-rule="evenodd" d="M3.71686 11C4.61385 11 5.45959 10.5195 5.85683 9.78643H5.88245V10.8891H6.93963V6.45994C6.93963 5.18478 5.95293 4.37164 4.3896 4.37164C2.81345 4.37164 1.82676 5.22175 1.74988 6.33058H2.82627C2.96723 5.70224 3.50542 5.31415 4.36397 5.31415C5.28659 5.31415 5.82479 5.78232 5.82479 6.56466V7.1006L3.91548 7.20532C2.37777 7.29156 1.5 7.9815 1.5 9.07801C1.5 10.23 2.39059 11 3.71686 11ZM11.6681 13.3716C13.3724 13.3716 14.5 12.0718 14.5 10.0575C14.5 8.04926 13.3659 6.74331 11.6873 6.74331C10.7454 6.74331 9.97018 7.193 9.55372 7.92606H9.52809V4.37164H8.41326V13.2608H9.47684V12.1766H9.50246C9.93174 12.9158 10.6942 13.3716 11.6681 13.3716ZM11.4502 7.68581C12.6291 7.68581 13.3595 8.60368 13.3595 10.0575C13.3595 11.5236 12.6291 12.4291 11.4502 12.4291C10.3226 12.4291 9.52169 11.4866 9.52169 10.0575C9.52169 8.63448 10.3226 7.68581 11.4502 7.68581ZM2.63406 9.07801C2.63406 9.68786 3.16585 10.0883 3.96673 10.0883C5.0175 10.0883 5.82479 9.37986 5.82479 8.45583V7.93222L4.04362 8.03694C3.14662 8.09238 2.63406 8.47431 2.63406 9.07801ZM1 12.2505H0V14.2505V15.2505H1H15H16V14.2505V12.2505H15V14.2505H1V12.2505Z" fill="#40404B"/>
</svg>
