<svg width="16" height="16" viewBox="0 0 16 16" fill="none" xmlns="http://www.w3.org/2000/svg">
<path fill-rule="evenodd" clip-rule="evenodd" d="M13.6572 1.02513C14.9785 2.3464 15.0225 4.46124 13.7893 5.83542L13.6572 5.97487L11.0645 8.5676L9.41455 10.2175L7.05753 12.5745C6.08122 13.5508 4.49831 13.5508 3.522 12.5745C2.58474 11.6373 2.54725 10.141 3.40953 9.15899L3.522 9.039L7.05753 5.50347C7.25279 5.30821 7.56938 5.30821 7.76464 5.50347C7.9382 5.67704 7.95749 5.94646 7.82249 6.14133L7.76464 6.21058L4.2291 9.74611C3.64332 10.3319 3.64332 11.2816 4.2291 11.8674C4.78043 12.4188 5.65416 12.4512 6.24342 11.9647L6.35042 11.8674L8.70745 9.51041L10.3574 7.86049L12.9501 5.26777C13.9264 4.29146 13.9264 2.70854 12.9501 1.73223C12.0128 0.794975 10.5165 0.757484 9.53454 1.61976L9.41455 1.73223L7.29323 3.85355L5.17191 5.97487L2.34349 8.8033C0.976651 10.1701 0.976651 12.3862 2.34349 13.753C3.66476 15.0743 5.7796 15.1184 7.15378 13.8852L7.29323 13.753L13.6572 7.38909C13.8525 7.19383 14.169 7.19383 14.3643 7.38909C14.5379 7.56265 14.5572 7.83208 14.4222 8.02695L14.3643 8.09619L8.00034 14.4602C6.24298 16.2175 3.39374 16.2175 1.63638 14.4602C-0.0707701 12.753 -0.119546 10.0155 1.49005 8.24945L1.63638 8.09619L4.46481 5.26777L6.58613 3.14645C6.58625 3.14633 6.58637 3.14621 6.58649 3.14609L8.70745 1.02513C10.0743 -0.341709 12.2904 -0.341709 13.6572 1.02513Z" fill="#40404B"/>
</svg>
