<svg width="16" height="16" viewBox="0 0 16 16" fill="none" xmlns="http://www.w3.org/2000/svg">
<path fill-rule="evenodd" clip-rule="evenodd" d="M5.85331 3.35355C6.04857 3.15829 6.04857 2.84171 5.85331 2.64645C5.65805 2.45118 5.34147 2.45118 5.14621 2.64645L0.358338 7.43431C0.0459186 7.74673 0.0459186 8.25327 0.358338 8.56569L5.14621 13.3536C5.34147 13.5488 5.65805 13.5488 5.85331 13.3536C6.04857 13.1583 6.04857 12.8417 5.85331 12.6464L1.20687 8L5.85331 3.35355ZM10.1462 12.6464C9.95094 12.8417 9.95094 13.1583 10.1462 13.3536C10.3415 13.5488 10.6581 13.5488 10.8533 13.3536L15.6412 8.56569C15.9536 8.25327 15.9536 7.74673 15.6412 7.43431L10.8533 2.64645C10.6581 2.45118 10.3415 2.45118 10.1462 2.64645C9.95094 2.84171 9.95094 3.15829 10.1462 3.35355L14.7927 8L10.1462 12.6464Z" fill="#40404B"/>
</svg>
