<svg width="16" height="16" viewBox="0 0 16 16" fill="none" xmlns="http://www.w3.org/2000/svg">
<g clip-path="url(#clip0_1944_32581)">
<path d="M13.8187 2.87348C14.1116 3.16637 14.1116 3.64124 13.8187 3.93414C13.5258 4.22703 13.051 4.22703 12.7581 3.93414C10.5125 1.68862 6.87184 1.68862 4.62633 3.93414C2.38081 6.17965 2.38081 9.82035 4.62633 12.0659C6.87184 14.3114 10.5125 14.3114 12.7581 12.0659C13.051 11.773 13.5258 11.773 13.8187 12.0659C14.1116 12.3588 14.1116 12.8336 13.8187 13.1265C10.9874 15.9578 6.39697 15.9578 3.56567 13.1265C2.34094 11.9018 1.64599 10.3479 1.48081 8.74961L0.799805 8.75C0.385591 8.75 0.0498047 8.41421 0.0498047 8C0.0498047 7.6203 0.331959 7.30651 0.698034 7.25685L0.799805 7.25L1.48092 7.24939C1.64627 5.65146 2.34119 4.09795 3.56567 2.87348C6.39697 0.0421748 10.9874 0.0421748 13.8187 2.87348ZM8.7998 5C10.2861 5 11.5199 6.08079 11.7582 7.4993L15.4203 7.5C15.6965 7.5 15.9203 7.72386 15.9203 8C15.9203 8.24546 15.7434 8.44961 15.5102 8.49194L15.4203 8.5L11.7584 8.49971C11.5205 9.91871 10.2864 11 8.7998 11C7.14295 11 5.7998 9.65685 5.7998 8C5.7998 6.34315 7.14295 5 8.7998 5ZM8.7998 6C7.69524 6 6.7998 6.89543 6.7998 8C6.7998 9.10457 7.69524 10 8.7998 10C9.90437 10 10.7998 9.10457 10.7998 8C10.7998 6.89543 9.90437 6 8.7998 6Z" fill="#40404B"/>
</g>
<defs>
<clipPath id="clip0_1944_32581">
<rect width="16" height="16" fill="white"/>
</clipPath>
</defs>
</svg>
