<svg width="16" height="16" viewBox="0 0 16 16" fill="none" xmlns="http://www.w3.org/2000/svg">
<g clip-path="url(#clip0_1944_32568)">
<path d="M6.56698 0.895341C6.96841 0.0946127 7.94296 -0.229081 8.74368 0.17235C9.01257 0.307153 9.23777 0.513593 9.39524 0.767587L9.46822 0.898435L15.8292 13.6544C16.2289 14.456 15.9031 15.4298 15.1016 15.8295C14.9217 15.9192 14.7272 15.9745 14.528 15.993L14.3778 16H1.62184C0.726124 16 0 15.2739 0 14.3782C0 14.1763 0.0376921 13.9766 0.110677 13.7893L0.171996 13.6513L6.56698 0.895341ZM8.07143 1.51328C8.02331 1.48915 7.96683 1.49989 7.93072 1.53595L7.90791 1.56759L1.51292 14.3235C1.50442 14.3405 1.5 14.3592 1.5 14.3782C1.5 14.432 1.53491 14.4777 1.58333 14.4938L1.62184 14.5H14.3778C14.3967 14.5 14.4153 14.4956 14.4322 14.4872C14.4803 14.4632 14.5056 14.4115 14.4985 14.361L14.4868 14.3238L8.12586 1.56782C8.1141 1.54423 8.095 1.52509 8.07143 1.51328Z" fill="#40404B"/>
</g>
<defs>
<clipPath id="clip0_1944_32568">
<rect width="16" height="16" fill="white"/>
</clipPath>
</defs>
</svg>
