<svg width="16" height="16" viewBox="0 0 16 16" fill="none" xmlns="http://www.w3.org/2000/svg">
<path fill-rule="evenodd" clip-rule="evenodd" d="M10.5681 1.25233C10.7073 1.0138 11.0134 0.933233 11.2519 1.07237C11.464 1.19605 11.5512 1.4517 11.4702 1.67451L11.4319 1.7562L3.43189 14.7562C3.29275 14.9947 2.98659 15.0753 2.74806 14.9362C2.53604 14.8125 2.44882 14.5568 2.52978 14.334L2.56811 14.2523L10.5681 1.25233ZM14.5681 1.25233C14.7073 1.0138 15.0134 0.933233 15.2519 1.07237C15.464 1.19605 15.5512 1.4517 15.4702 1.67451L15.4319 1.7562L7.43189 14.7562C7.29275 14.9947 6.98659 15.0753 6.74806 14.9362C6.53604 14.8125 6.44882 14.5568 6.52978 14.334L6.56811 14.2523L14.5681 1.25233ZM2 5.25001C2 5.66423 1.66421 6.00001 1.25 6.00001C0.835786 6.00001 0.5 5.66423 0.5 5.25001C0.5 4.8358 0.835786 4.50001 1.25 4.50001C1.66421 4.50001 2 4.8358 2 5.25001ZM2 10.75C2 11.1642 1.66421 11.5 1.25 11.5C0.835786 11.5 0.5 11.1642 0.5 10.75C0.5 10.3358 0.835786 10 1.25 10C1.66421 10 2 10.3358 2 10.75Z" fill="#40404B"/>
</svg>
