<svg width="16" height="16" viewBox="0 0 16 16" fill="none" xmlns="http://www.w3.org/2000/svg">
<path d="M1.60633 15C2.8724 15 3.85889 14.2071 4.56578 12.6214C5.06693 11.4937 5.7026 9.12262 6.4728 5.50809H7.9367L8.08704 4.86624H6.58358L6.88427 3.77131C7.09001 3.01618 7.31289 2.44229 7.55292 2.04962C7.79294 1.65696 8.06067 1.46063 8.35608 1.46063C8.46159 1.46063 8.53544 1.4858 8.57765 1.53614C8.61457 1.59151 8.63304 1.63682 8.63304 1.67206C8.63304 1.69723 8.58952 1.78155 8.50247 1.92503C8.41543 2.0685 8.37191 2.2082 8.37191 2.34412C8.37191 2.54045 8.45104 2.71161 8.6093 2.85761C8.76756 3.0036 8.95483 3.07659 9.17112 3.07659C9.39268 3.07659 9.58391 3.00234 9.74481 2.85383C9.9057 2.70532 9.98615 2.50773 9.98615 2.26106C9.98615 1.84322 9.82921 1.52859 9.51533 1.31715C9.20145 1.10572 8.79921 1 8.30861 1C7.69667 1 7.10056 1.23912 6.52028 1.71737C6.04022 2.1201 5.6459 2.64995 5.33729 3.3069C5.02868 3.96386 4.8269 4.48364 4.73195 4.86624H3.545L3.39466 5.50809H4.5816L3.91691 8.18878C3.25223 11.169 2.81438 12.9662 2.60336 13.5804C2.39235 14.1996 2.08375 14.5092 1.67755 14.5092C1.59842 14.5092 1.53116 14.4941 1.47577 14.4639C1.42038 14.4337 1.39268 14.3909 1.39268 14.3355C1.39268 14.2902 1.4362 14.2059 1.52324 14.0825C1.61029 13.9592 1.65381 13.8346 1.65381 13.7087C1.65381 13.4721 1.57072 13.2846 1.40455 13.1462C1.23838 13.0077 1.04979 12.9385 0.838773 12.9385C0.622486 12.9385 0.428619 13.014 0.257171 13.165C0.0857237 13.3161 0 13.5149 0 13.7616C0 14.1039 0.143752 14.3959 0.431256 14.6375C0.71876 14.8792 1.11045 15 1.60633 15ZM8.6726 12.0324C9.15265 12.0324 9.57468 11.8411 9.93867 11.4585C10.1813 11.2017 10.5638 10.6455 11.0861 9.78964L11.1968 9.60841C11.2232 9.68896 11.2826 9.90165 11.3749 10.2465C11.4672 10.5913 11.5397 10.8317 11.5925 10.9676C11.6927 11.2294 11.8088 11.4358 11.9407 11.5868C12.1728 11.8688 12.4682 12.0097 12.8269 12.0097C13.2542 12.0097 13.6907 11.8083 14.1365 11.4056C14.5823 11.0029 14.9449 10.5775 15.2245 10.1294L14.8922 9.91046C14.6548 10.2075 14.4781 10.4114 14.362 10.5221C14.151 10.7285 13.9716 10.8317 13.8239 10.8317C13.6604 10.8317 13.5364 10.7663 13.452 10.6354C13.3676 10.5045 13.2832 10.2931 13.1988 10.0011C13.1355 9.78964 13.0775 9.55933 13.0247 9.31014C12.972 9.06095 12.906 8.74254 12.8269 8.35491L12.6766 7.59978C13.1091 6.98058 13.4138 6.57533 13.5905 6.38403C13.7672 6.19274 13.9532 6.09709 14.1484 6.09709C14.2486 6.09709 14.395 6.15246 14.5875 6.26321C14.7801 6.37397 14.9529 6.42934 15.1058 6.42934C15.3538 6.42934 15.5648 6.34376 15.7389 6.1726C15.913 6.00144 16 5.81266 16 5.60626C16 5.40489 15.9578 5.23373 15.8734 5.09277C15.7151 4.82093 15.4276 4.68501 15.0109 4.68501C14.6627 4.68501 14.3053 4.84232 13.9387 5.15696C13.572 5.47159 13.088 6.01906 12.4866 6.79935L12.3996 6.29342C12.3469 5.97123 12.269 5.66667 12.1662 5.37972C12.0633 5.09277 11.9327 4.84862 11.7745 4.64725C11.5846 4.68249 11.2061 4.7429 10.639 4.82848C10.0719 4.91406 9.55094 4.98454 9.07616 5.03991V5.45523C9.17639 5.44516 9.27662 5.43635 9.37685 5.4288C9.47709 5.42125 9.54039 5.41748 9.56677 5.41748C9.81998 5.41748 10.002 5.46027 10.1128 5.54585C10.3079 5.69184 10.4504 5.9964 10.5401 6.45955L10.6667 7.1014C10.73 7.42359 10.792 7.73822 10.8526 8.04531C10.9133 8.35239 10.97 8.61165 11.0227 8.82309L10.7062 9.32147C10.3581 9.87019 10.1246 10.2138 10.0059 10.3522C9.88724 10.4907 9.74613 10.5599 9.58259 10.5599C9.50874 10.5599 9.3518 10.5045 9.11177 10.3937C8.87174 10.283 8.66996 10.2276 8.50643 10.2276C8.23739 10.2276 8.0277 10.3195 7.87735 10.5032C7.727 10.687 7.65183 10.8871 7.65183 11.1036C7.65183 11.3653 7.75338 11.5856 7.95648 11.7643C8.15958 11.943 8.39829 12.0324 8.6726 12.0324Z" fill="#40404B"/>
</svg>
