<svg width="16" height="16" viewBox="0 0 16 16" fill="none" xmlns="http://www.w3.org/2000/svg">
<path fill-rule="evenodd" clip-rule="evenodd" d="M4.51733 0.417725C6.38589 0.417725 7.91246 1.882 8.01215 3.72569L8.01733 3.91772V4.99998H14.5C15.3284 4.99998 16 5.67156 16 6.49998V14.5C16 15.3284 15.3284 16 14.5 16H5.5C4.67157 16 4 15.3284 4 14.5V6.49998C4 5.67156 4.67157 4.99998 5.5 4.99998H7.01733V3.91772C7.01733 2.59224 5.9858 1.50769 4.68171 1.42304L4.51733 1.41772H3.5C2.17452 1.41772 1.08996 2.44926 1.00532 3.75335L1 3.91772V5.49998C1 5.77613 0.776142 5.99998 0.5 5.99998C0.25454 5.99998 0.0503916 5.82311 0.00805567 5.58986L0 5.49998V3.91772C0 2.04916 1.46428 0.522598 3.30796 0.422903L3.5 0.417725H4.51733ZM5.5 5.99998H7.51733H14.5C14.7761 5.99998 15 6.22384 15 6.49998V14.5C15 14.7761 14.7761 15 14.5 15H5.5C5.22386 15 5 14.7761 5 14.5V6.49998C5 6.22384 5.22386 5.99998 5.5 5.99998ZM12.8739 8.11657C12.653 7.95089 12.3396 7.99566 12.1739 8.21657L9.946 11.239L8.35355 9.64643L8.28431 9.58858C8.08944 9.45358 7.82001 9.47287 7.64645 9.64643C7.45118 9.84169 7.45118 10.1583 7.64645 10.3535L10.0541 12.7612L12.9739 8.81657L13.0214 8.73984C13.1275 8.52784 13.0703 8.26385 12.8739 8.11657Z" fill="#40404B"/>
</svg>
