<svg width="16" height="16" viewBox="0 0 16 16" fill="none" xmlns="http://www.w3.org/2000/svg">
<path d="M12.5 1C13.8807 1 15 2.11929 15 3.5V12.5C15 13.8807 13.8807 15 12.5 15H3.5C2.11929 15 1 13.8807 1 12.5V3.5C1 2.11929 2.11929 1 3.5 1H12.5ZM12.5 2H3.5C2.67157 2 2 2.67157 2 3.5V12.5C2 13.3284 2.67157 14 3.5 14H12.5C13.3284 14 14 13.3284 14 12.5V3.5C14 2.67157 13.3284 2 12.5 2ZM12 3C12.5523 3 13 3.44772 13 4V6C13 6.55229 12.5523 7 12 7H4C3.44772 7 3 6.55229 3 6V4C3 3.44772 3.44772 3 4 3H12ZM12 4H4V6H12V4Z" fill="#40404B"/>
</svg>
