<svg width="16" height="17" viewBox="0 0 16 17" fill="none" xmlns="http://www.w3.org/2000/svg">
<path fill-rule="evenodd" clip-rule="evenodd" d="M1.07347 12.0013C-1.13567 8.17501 0.175333 3.28229 4.00167 1.07315C7.76346 -1.09872 12.5559 0.131774 14.8158 3.80984V1.68949C14.8158 1.42922 15.0069 1.21276 15.259 1.16787L15.3561 1.15933C15.6214 1.15933 15.842 1.34687 15.8878 1.59419L15.8965 1.68949V5.40057H12.1141C11.8156 5.40057 11.5737 5.16321 11.5737 4.87042C11.5737 4.61016 11.7649 4.39369 12.0169 4.3488L12.1141 4.34026L13.8901 4.34096C11.9246 1.17488 7.78574 0.120093 4.53501 1.99691C1.21885 3.91149 0.0826445 8.15185 1.99723 11.468C3.91182 14.7842 8.15218 15.9204 11.4683 14.0058C13.2525 12.9757 14.4569 11.2375 14.8218 9.24977C14.875 8.96006 15.153 8.76832 15.4427 8.82151C15.7324 8.87469 15.9242 9.15267 15.871 9.44238C15.4502 11.7344 14.0596 13.7414 12.0017 14.9296C8.17533 17.1387 3.28261 15.8277 1.07347 12.0013ZM7.89515 13.0027C7.64969 13.0027 7.44554 12.8258 7.4032 12.5926L7.39515 12.5027L7.39548 7.50169L4.8663 7.50135C4.62084 7.50135 4.41669 7.32447 4.37436 7.09122L4.3663 7.00135C4.3663 6.75589 4.54318 6.55174 4.77643 6.50941L4.8663 6.50135H8.39515V12.5027C8.39515 12.7788 8.17129 13.0027 7.89515 13.0027Z" fill="#40404B"/>
</svg>
