<svg width="16" height="16" viewBox="0 0 16 16" fill="none" xmlns="http://www.w3.org/2000/svg">
<path d="M12 0.25C12.9665 0.25 13.75 1.0335 13.75 2V14C13.75 14.9665 12.9665 15.75 12 15.75H4C3.0335 15.75 2.25 14.9665 2.25 14V2C2.25 1.0335 3.0335 0.25 4 0.25H12ZM12 1.75H4C3.86193 1.75 3.75 1.86193 3.75 2V3.5H5.98672C6.26286 3.5 6.48672 3.72386 6.48672 4C6.48672 4.24546 6.30985 4.44961 6.0766 4.49194L5.98672 4.5H3.75V6.5H4.98672C5.26286 6.5 5.48672 6.72386 5.48672 7C5.48672 7.24546 5.30985 7.44961 5.0766 7.49194L4.98672 7.5H3.75V9.5H5.98672C6.26286 9.5 6.48672 9.72386 6.48672 10C6.48672 10.2455 6.30985 10.4496 6.0766 10.4919L5.98672 10.5H3.75V12.5H4.98672C5.26286 12.5 5.48672 12.7239 5.48672 13C5.48672 13.2455 5.30985 13.4496 5.0766 13.4919L4.98672 13.5H3.75V14C3.75 14.1183 3.83223 14.2175 3.94268 14.2434L4 14.25H12C12.1381 14.25 12.25 14.1381 12.25 14V2C12.25 1.86193 12.1381 1.75 12 1.75Z" fill="#40404B"/>
</svg>
