<svg width="16" height="16" viewBox="0 0 16 16" fill="none" xmlns="http://www.w3.org/2000/svg">
<g clip-path="url(#clip0_1944_32573)">
<path d="M8 0C10.2091 0 12 1.79086 12 4C12 6.20914 10.2091 8 8 8C5.79086 8 4 6.20914 4 4C4 1.79086 5.79086 0 8 0ZM8 1C6.34315 1 5 2.34315 5 4C5 5.65685 6.34315 7 8 7C9.65685 7 11 5.65685 11 4C11 2.34315 9.65685 1 8 1ZM8 8.00002C12.1421 8.00002 15.5 10.5072 15.5 13.6C15.5 14.7694 13.735 15.5047 11.1858 15.8206L10.6475 15.88C10.4646 15.8978 10.2782 15.9137 10.0888 15.9275L9.51151 15.963C9.41387 15.968 9.31553 15.9724 9.21654 15.9764L8.61512 15.9941L8 16L7.38488 15.9943C6.97916 15.9867 6.58256 15.9715 6.19766 15.9486L5.62942 15.9083L5.08066 15.8563L4.55332 15.7924C2.14535 15.4667 0.5 14.7512 0.5 13.6C0.5 10.5072 3.85786 8.00002 8 8.00002ZM8 9.50002C4.76633 9.50002 2.24658 11.3162 2.11274 13.4237L2.11025 13.5131L2.13225 13.5275C2.31699 13.6745 2.67156 13.8384 3.1745 13.9845C4.31969 14.3173 6.01786 14.5 8 14.5C9.96656 14.5 11.6687 14.3122 12.8211 13.974C13.2627 13.8444 13.5917 13.7013 13.7925 13.5682L13.8707 13.5118L13.8886 13.5L13.8873 13.4237C13.7571 11.3747 11.3718 9.60114 8.26778 9.50419L8 9.50002Z" fill="#40404B"/>
</g>
<defs>
<clipPath id="clip0_1944_32573">
<rect width="16" height="16" fill="white"/>
</clipPath>
</defs>
</svg>
