<svg width="16" height="16" viewBox="0 0 16 16" fill="none" xmlns="http://www.w3.org/2000/svg">
<path fill-rule="evenodd" clip-rule="evenodd" d="M15.3807 3.05765L8.38075 0.175297C8.13685 0.0748683 7.86315 0.0748683 7.61925 0.175297L0.61925 3.05765C0.244549 3.21194 0 3.5771 0 3.98233V12.0547C0 12.4599 0.244549 12.8251 0.61925 12.9794L7.61925 15.8617C7.86315 15.9622 8.13685 15.9622 8.38075 15.8617L15.3807 12.9794C15.7555 12.8251 16 12.4599 16 12.0547V3.98233C16 3.5771 15.7555 3.21194 15.3807 3.05765ZM8 1.09952L14.8206 3.90844L8.19037 6.63853L8.09658 6.66678C8.00093 6.68561 7.90109 6.67619 7.80963 6.63853L1.17941 3.90844L8 1.09952ZM8.57112 7.56321L15 4.91603V12.0547L8.5 14.7312V7.59041C8.52388 7.58197 8.54759 7.5729 8.57112 7.56321ZM7.5 7.58848L7.42888 7.56321L1 4.91603V12.0547L7.5 14.7312V7.58848Z" fill="#40404B"/>
</svg>
