<svg width="17" height="16" viewBox="0 0 17 16" fill="none" xmlns="http://www.w3.org/2000/svg">
<path fill-rule="evenodd" clip-rule="evenodd" d="M0.1459 3.37657C0.0937326 3.14532 0.212541 2.90274 0.438489 2.80683L0.524368 2.77913C0.755616 2.72696 0.998198 2.84577 1.09411 3.07172L2.32506 5.96983C2.96949 3.84372 4.58964 2.12225 6.74638 1.37963C10.4017 0.120984 14.3853 2.06391 15.644 5.71928C16.9026 9.37465 14.9597 13.3582 11.3043 14.6169C9.5819 15.21 7.73443 15.1063 6.11129 14.3629C5.30752 13.9947 4.57901 13.478 3.96703 12.8393C3.77599 12.6399 3.78275 12.3234 3.98214 12.1323C4.18153 11.9413 4.49804 11.948 4.68908 12.1474C5.21353 12.6948 5.83826 13.1379 6.52771 13.4537C7.91963 14.0912 9.5016 14.18 10.9788 13.6714C14.1119 12.5925 15.7773 9.17802 14.6985 6.04485C13.6196 2.91168 10.2051 1.24631 7.07195 2.32515C5.24244 2.9551 3.86398 4.40578 3.29982 6.20237L6.00271 5.055L6.08858 5.02728C6.31982 4.97506 6.56243 5.09382 6.65838 5.31975C6.76634 5.57391 6.64781 5.86747 6.39364 5.97542L2.02747 7.82988L0.173602 3.46245L0.1459 3.37657Z" fill="#40404B"/>
</svg>
