<svg width="16" height="16" viewBox="0 0 16 16" fill="none" xmlns="http://www.w3.org/2000/svg">
<path d="M3.5 1.00002C4.88071 1.00002 6 2.11931 6 3.50002C6 4.70935 5.14133 5.71811 4.00043 5.94991V10.0501C5.14133 10.2819 6 11.2907 6 12.5C6 13.8807 4.88071 15 3.5 15C2.11929 15 1 13.8807 1 12.5C1 11.2903 1.85914 10.2813 3.00055 10.0499V5.95016C1.85914 5.71875 1 4.70971 1 3.50002C1 2.11931 2.11929 1.00002 3.5 1.00002ZM3.5 11C2.67157 11 2 11.6716 2 12.5C2 13.3285 2.67157 14 3.5 14C4.32843 14 5 13.3285 5 12.5C5 11.6716 4.32843 11 3.5 11ZM3.5 2.00002C2.67157 2.00002 2 2.6716 2 3.50002C2 4.32845 2.67157 5.00002 3.5 5.00002C4.32843 5.00002 5 4.32845 5 3.50002C5 2.6716 4.32843 2.00002 3.5 2.00002ZM9.85358 5.14645C10.0271 5.32001 10.0464 5.58946 9.91144 5.78433L9.85358 5.8536C9.68001 6.02717 9.41057 6.04646 9.2157 5.91146L9.14642 5.8536L6.79291 3.50002L9.14642 1.14645C9.34169 0.951184 9.65831 0.951184 9.85358 1.14645C10.0271 1.32001 10.0464 1.58946 9.91144 1.78433L9.85358 1.8536L8.70599 3.00002H9.5C11.3686 3.00002 12.8951 4.46432 12.9948 6.30801L13 6.50002L13.0004 10.0501C14.1413 10.2819 15 11.2907 15 12.5C15 13.8807 13.8807 15 12.5 15C11.1193 15 10 13.8807 10 12.5C10 11.2903 10.8591 10.2813 12.0005 10.0499L12 6.50002C12 5.17454 10.9685 4.08998 9.66437 4.00533L9.5 4.00002H8.70599L9.85358 5.14645ZM12.5 11C11.6716 11 11 11.6716 11 12.5C11 13.3285 11.6716 14 12.5 14C13.3284 14 14 13.3285 14 12.5C14 11.6716 13.3284 11 12.5 11Z" fill="#40404B"/>
</svg>
