<svg width="16" height="16" viewBox="0 0 16 16" fill="none" xmlns="http://www.w3.org/2000/svg">
<g clip-path="url(#clip0_1118_17946)">
<path fill-rule="evenodd" clip-rule="evenodd" d="M14.3973 5.87657C14.6668 6.07647 14.6668 6.47986 14.3973 6.67976L8.59565 10.9828C8.24185 11.2452 7.75801 11.2452 7.40421 10.9828L1.60253 6.67976C1.33301 6.47986 1.33301 6.07647 1.60253 5.87657L7.4042 1.57352C7.75801 1.31111 8.24185 1.31111 8.59565 1.57352L14.3973 5.87657ZM14.993 7.48295C15.8016 6.88325 15.8016 5.67308 14.993 5.07338L9.19137 0.770325C8.48376 0.245503 7.51609 0.245504 6.80848 0.770325L1.00681 5.07338C0.198252 5.67308 0.19825 6.88325 1.00681 7.48295L6.80849 11.786C7.51609 12.3108 8.48376 12.3108 9.19137 11.786L14.993 7.48295ZM15.0763 10.6797C15.2981 10.5152 15.3445 10.2021 15.18 9.98029C15.0155 9.75849 14.7023 9.71205 14.4805 9.87655L8.89381 14.0202C8.36311 14.4138 7.63735 14.4138 7.10665 14.0202L1.51991 9.87655C1.29812 9.71205 0.984962 9.75849 0.820459 9.98029C0.655955 10.2021 0.702399 10.5152 0.924195 10.6797L6.51093 14.8234C7.39543 15.4794 8.60503 15.4794 9.48953 14.8234L15.0763 10.6797Z" fill="#40404B"/>
</g>
<defs>
<clipPath id="clip0_1118_17946">
<rect width="16" height="16" fill="white"/>
</clipPath>
</defs>
</svg>
