<svg width="17" height="16" viewBox="0 0 17 16" fill="none" xmlns="http://www.w3.org/2000/svg">
<path fill-rule="evenodd" clip-rule="evenodd" d="M0.438553 2.80681C0.212605 2.90272 0.0937963 3.14531 0.145964 3.37655L0.173665 3.46243L2.02753 7.82987L6.3937 5.97541C6.64787 5.86746 6.7664 5.5739 6.65845 5.31973C6.56249 5.09381 6.31988 4.97505 6.08864 5.02727L6.00277 5.05499L3.29988 6.20236C3.86404 4.40577 5.2425 2.95508 7.07201 2.32513C10.2052 1.24629 13.6197 2.91166 14.6985 6.04484C15.7774 9.17801 14.112 12.5925 10.9788 13.6714C9.50166 14.18 7.9197 14.0912 6.52777 13.4537C5.83832 13.1379 5.21359 12.6948 4.68915 12.1474C4.4981 11.948 4.18159 11.9413 3.9822 12.1323C3.78281 12.3234 3.77605 12.6399 3.9671 12.8393C4.57908 13.478 5.30758 13.9947 6.11135 14.3629C7.73449 15.1063 9.58196 15.21 11.3044 14.6169C14.9598 13.3582 16.9027 9.37463 15.644 5.71927C14.3854 2.0639 10.4018 0.12097 6.74644 1.37961C4.58971 2.12224 2.96955 3.84371 2.32513 5.96982L1.09417 3.0717C0.998262 2.84575 0.75568 2.72695 0.524431 2.77911L0.438553 2.80681ZM11.8536 4.85354C12.0489 4.65828 12.0489 4.34169 11.8536 4.14643C11.6584 3.95117 11.3418 3.95117 11.1465 4.14643L8.64651 6.64643L8.50006 6.79288V6.99999V12C8.50006 12.2761 8.72392 12.5 9.00006 12.5C9.27621 12.5 9.50006 12.2761 9.50006 12V7.20709L11.8536 4.85354Z" fill="#40404B"/>
</svg>
