<svg width="16" height="16" viewBox="0 0 16 16" fill="none" xmlns="http://www.w3.org/2000/svg">
<path fill-rule="evenodd" clip-rule="evenodd" d="M7.0625 1.5C9.19325 1.5 10.9623 3.02761 11.2663 5.02433L11.28 5.136L12.2188 5.13636C14.2364 5.13636 15.8902 6.67686 15.9947 8.62233L16 8.81818C16 10.8551 14.3037 12.5 12.2188 12.5C11.9426 12.5 11.7188 12.2761 11.7188 12C11.7188 11.7239 11.9426 11.5 12.2188 11.5C13.7582 11.5 15 10.2958 15 8.81818C15 7.39528 13.8485 6.22594 12.3885 6.14127L12.2188 6.13636H10.3125V5.63636C10.3125 3.9077 8.86081 2.5 7.0625 2.5C5.3262 2.5 3.91303 3.81229 3.81763 5.45873L3.81229 5.63767L3.85543 6.09821L3.38203 6.16373C2.01983 6.35226 1 7.48318 1 8.81818C1 10.2958 2.24182 11.5 3.78125 11.5C4.05739 11.5 4.28125 11.7239 4.28125 12C4.28125 12.2761 4.05739 12.5 3.78125 12.5C1.69631 12.5 0 10.8551 0 8.81818C0 7.17373 1.11227 5.76411 2.6672 5.2987L2.831 5.254L2.83318 5.22553C3.03832 3.19871 4.74526 1.60572 6.85067 1.50505L7.0625 1.5ZM8.5 9.20702L10.1872 10.8943L10.2565 10.9522C10.4514 11.0872 10.7208 11.0679 10.8943 10.8943C11.0896 10.6991 11.0896 10.3825 10.8943 10.1872L8 7.29289L7.64678 7.64612C7.64656 7.64634 7.64634 7.64656 7.64612 7.64678L5.10565 10.1872L5.0478 10.2565C4.9128 10.4514 4.93209 10.7208 5.10565 10.8943L5.1749 10.9522C5.36977 11.0872 5.63919 11.0679 5.81276 10.8943L7.5 9.20702V15.07L7.50806 15.1599C7.55039 15.3931 7.75454 15.57 8 15.57C8.27614 15.57 8.5 15.3462 8.5 15.07V9.20702Z" fill="#40404B"/>
</svg>
