<svg width="16" height="16" viewBox="0 0 16 16" fill="none" xmlns="http://www.w3.org/2000/svg">
<path fill-rule="evenodd" clip-rule="evenodd" d="M10.957 1.14646C11.1523 0.951199 11.4688 0.951199 11.6641 1.14646L15.4925 4.97489C15.6011 5.08344 15.6493 5.22948 15.6371 5.37132C15.6493 5.51317 15.6011 5.65921 15.4925 5.76776L11.6641 9.59618C11.4688 9.79145 11.1523 9.79145 10.957 9.59618C10.7617 9.40092 10.7617 9.08434 10.957 8.88908L14.4747 5.37132L10.957 1.85357C10.7617 1.65831 10.7617 1.34172 10.957 1.14646ZM9.31055 3.5C9.58669 3.5 9.81055 3.72386 9.81055 4C9.81055 4.24546 9.63367 4.44961 9.40042 4.49194L9.31055 4.5H2.31055C2.06509 4.5 1.86094 4.67688 1.8186 4.91012L1.81055 5V13C1.81055 13.2455 1.98742 13.4496 2.22067 13.4919L2.31055 13.5H13.3105C13.556 13.5 13.7602 13.3231 13.8025 13.0899L13.8105 13V11C13.8105 10.7239 14.0344 10.5 14.3105 10.5C14.556 10.5 14.7602 10.6769 14.8025 10.9101L14.8105 11V13C14.8105 13.7797 14.2157 14.4204 13.455 14.4931L13.3105 14.5H2.31055C1.53085 14.5 0.890098 13.9051 0.817413 13.1445L0.810547 13V5C0.810547 4.2203 1.40544 3.57955 2.16609 3.50687L2.31055 3.5H9.31055Z" fill="#40404B"/>
</svg>
