<svg width="16" height="16" viewBox="0 0 16 16" fill="none" xmlns="http://www.w3.org/2000/svg">
<g clip-path="url(#clip0_1944_32587)">
<path d="M8.58156 0.0933655C8.96569 0.233753 9.27551 0.521197 9.44523 0.888735L9.50218 1.03019L9.69637 1.59174C9.92554 2.25443 10.6485 2.60587 11.3112 2.37671L11.3719 2.35398L11.4313 2.32818L11.9702 2.07779C12.7363 1.72176 13.646 2.05423 14.0021 2.82039C14.1744 3.19128 14.1902 3.61361 14.0504 3.99351L13.9906 4.1338L13.7308 4.66819C13.4243 5.29883 13.687 6.05857 14.3177 6.36512L14.3766 6.39194L14.4369 6.41573L14.995 6.61969C15.7885 6.9097 16.1966 7.78806 15.9066 8.58156C15.7662 8.96569 15.4788 9.27551 15.1113 9.44523L14.9698 9.50218L14.4083 9.69637C13.7456 9.92554 13.3941 10.6485 13.6233 11.3112L13.646 11.3719L13.6718 11.4313L13.9222 11.9702C14.2782 12.7363 13.9458 13.646 13.1796 14.0021C12.8087 14.1744 12.3864 14.1902 12.0065 14.0504L11.8662 13.9906L11.3318 13.7308C10.7012 13.4243 9.94143 13.687 9.63488 14.3177L9.60806 14.3766L9.58427 14.4369L9.38031 14.995C9.0903 15.7885 8.21194 16.1966 7.41844 15.9066C7.03431 15.7662 6.72449 15.4788 6.55477 15.1113L6.49782 14.9698L6.30363 14.4083C6.07446 13.7456 5.35147 13.3941 4.68878 13.6233L4.62811 13.646L4.56868 13.6718L4.02983 13.9222C3.26368 14.2782 2.35396 13.9458 1.99794 13.1796C1.82559 12.8087 1.80977 12.3864 1.94965 12.0065L2.0094 11.8662L2.26916 11.3318C2.57571 10.7012 2.31298 9.94143 1.68234 9.63488L1.62337 9.60806L1.56311 9.58427L1.00503 9.38031C0.211526 9.0903 -0.196641 8.21194 0.0933655 7.41844C0.233753 7.03431 0.521197 6.72449 0.888735 6.55477L1.03019 6.49782L1.59174 6.30363C2.25443 6.07446 2.60587 5.35147 2.37671 4.68878L2.35398 4.62811L2.32818 4.56868L2.07779 4.02983C1.72176 3.26368 2.05423 2.35396 2.82039 1.99794C3.19128 1.82559 3.61361 1.80977 3.99351 1.94965L4.1338 2.0094L4.66819 2.26916C5.29883 2.57571 6.05857 2.31298 6.36512 1.68234L6.39194 1.62337L6.41573 1.56311L6.61969 1.00503C6.9097 0.211526 7.78806 -0.196641 8.58156 0.0933655ZM7.79625 1.28767L7.75387 1.34325L7.72249 1.40808L7.51853 1.96616C7.48998 2.04426 7.45747 2.12086 7.42111 2.19565C6.85467 3.36094 5.48432 3.87361 4.30167 3.39073L4.15489 3.32516L3.62049 3.06539C3.5243 3.01864 3.41218 3.01766 3.31519 3.06273C3.15936 3.13514 3.08071 3.30609 3.11893 3.467L3.14258 3.53503L3.39298 4.07388C3.42802 4.1493 3.45919 4.22645 3.48637 4.30504C3.91113 5.53334 3.29959 6.86927 2.11472 7.36042L1.97548 7.41329L1.41392 7.60749C1.31285 7.64244 1.23287 7.72103 1.19616 7.82148C1.13718 7.98287 1.20244 8.15936 1.34325 8.24613L1.40808 8.27751L1.96616 8.48147C2.04426 8.51002 2.12086 8.54253 2.19565 8.57889C3.36094 9.14533 3.87361 10.5157 3.39073 11.6983L3.32516 11.8451L3.06539 12.3795C3.01864 12.4757 3.01766 12.5878 3.06273 12.6848C3.13514 12.8406 3.30609 12.9193 3.467 12.8811L3.53503 12.8574L4.07388 12.607C4.1493 12.572 4.22645 12.5408 4.30504 12.5136C5.53334 12.0889 6.86927 12.7004 7.36042 13.8853L7.41329 14.0245L7.60749 14.5861C7.64244 14.6872 7.72103 14.7671 7.82148 14.8038C7.98287 14.8628 8.15936 14.7976 8.24613 14.6568L8.27751 14.5919L8.48147 14.0338C8.51002 13.9557 8.54253 13.8791 8.57889 13.8043C9.14533 12.6391 10.5157 12.1264 11.6983 12.6093L11.8451 12.6748L12.3795 12.9346C12.4757 12.9814 12.5878 12.9823 12.6848 12.9373C12.8406 12.8649 12.9193 12.6939 12.8811 12.533L12.8574 12.465L12.607 11.9261C12.572 11.8507 12.5408 11.7736 12.5136 11.695C12.0889 10.4667 12.7004 9.13073 13.8853 8.63958L14.0245 8.58671L14.5861 8.39251C14.6872 8.35756 14.7671 8.27897 14.8038 8.17852C14.8628 8.01713 14.7976 7.84064 14.6568 7.75387L14.5919 7.72249L14.0338 7.51853C13.9557 7.48998 13.8791 7.45747 13.8043 7.42111C12.6391 6.85467 12.1264 5.48432 12.6093 4.30167L12.6748 4.15489L12.9346 3.62049C12.9814 3.5243 12.9823 3.41218 12.9373 3.31519C12.8649 3.15936 12.6939 3.08071 12.533 3.11893L12.465 3.14258L11.9261 3.39298C11.8507 3.42802 11.7736 3.45919 11.695 3.48637C10.4667 3.91113 9.13073 3.29959 8.63958 2.11472L8.58671 1.97548L8.39251 1.41392C8.35756 1.31285 8.27897 1.23287 8.17852 1.19616C8.04018 1.1456 7.89075 1.18633 7.79625 1.28767ZM8 4.67103C9.83854 4.67103 11.329 6.16146 11.329 8C11.329 9.83854 9.83854 11.329 8 11.329C6.16146 11.329 4.67103 9.83854 4.67103 8C4.67103 6.16146 6.16146 4.67103 8 4.67103ZM8 5.41371C6.57163 5.41371 5.41371 6.57163 5.41371 8C5.41371 9.42837 6.57163 10.5863 8 10.5863C9.42837 10.5863 10.5863 9.42837 10.5863 8C10.5863 6.57163 9.42837 5.41371 8 5.41371Z" fill="#40404B"/>
</g>
<defs>
<clipPath id="clip0_1944_32587">
<rect width="16" height="16" fill="white"/>
</clipPath>
</defs>
</svg>
