<svg width="16" height="16" viewBox="0 0 16 16" fill="none" xmlns="http://www.w3.org/2000/svg">
<path d="M7 1.25C10.5794 1.25 13.5081 4.03609 13.7358 7.55798L15.1464 6.14645C15.32 5.97288 15.5894 5.9536 15.7843 6.08859L15.8536 6.14645C16.0271 6.32001 16.0464 6.58944 15.9114 6.78431L15.8536 6.85355L13 9.70711L10.1464 6.85355C9.95118 6.65829 9.95118 6.34171 10.1464 6.14645C10.32 5.97288 10.5894 5.9536 10.7843 6.08859L10.8536 6.14645L12.2284 7.52025C11.9861 4.8456 9.73777 2.75 7 2.75C4.10051 2.75 1.75 5.10051 1.75 8C1.75 10.8995 4.10051 13.25 7 13.25C7.41421 13.25 7.75 13.5858 7.75 14C7.75 14.4142 7.41421 14.75 7 14.75C3.27208 14.75 0.25 11.7279 0.25 8C0.25 4.27208 3.27208 1.25 7 1.25ZM15.5 10.5C15.7761 10.5 16 10.7239 16 11C16 11.2455 15.8231 11.4496 15.5899 11.4919L15.5 11.5H10.5C10.2239 11.5 10 11.2761 10 11C10 10.7545 10.1769 10.5504 10.4101 10.5081L10.5 10.5H15.5Z" fill="#40404B"/>
</svg>
