<svg width="16" height="16" viewBox="0 0 16 16" fill="none" xmlns="http://www.w3.org/2000/svg">
<path d="M11 0.75C13.0711 0.75 14.75 2.42893 14.75 4.5C14.75 4.91421 14.4142 5.25 14 5.25C13.6203 5.25 13.3065 4.96785 13.2568 4.60177L13.25 4.5C13.25 3.30914 12.3248 2.33436 11.154 2.25519L11 2.25H5C3.80914 2.25 2.83436 3.17516 2.75519 4.34595L2.75 4.5V11.5C2.75 12.6909 3.67516 13.6656 4.84595 13.7448L5 13.75H9C9.41421 13.75 9.75 14.0858 9.75 14.5C9.75 14.8797 9.46785 15.1935 9.10177 15.2432L9 15.25H5C2.99574 15.25 1.35873 13.6776 1.2552 11.6992L1.25 11.5V4.5C1.25 2.49574 2.82236 0.858726 4.80084 0.755198L5 0.75H11ZM12.2843 7.58859L12.3536 7.64645L15.7041 10.997L12.4079 14.3505C12.2143 14.5474 11.8978 14.5502 11.7008 14.3566C11.5258 14.1845 11.5042 13.9153 11.6375 13.7193L11.6947 13.6495L14.296 11.003L11.6464 8.35355C11.4729 8.17999 11.4536 7.91056 11.5886 7.71569L11.6464 7.64645C11.82 7.47288 12.0894 7.4536 12.2843 7.58859Z" fill="#40404B"/>
</svg>
